{
.appVersion = "3151";
DisplayStrings = (
lnr,
"//",
"http/backslash/backslash 999////",
"S/Germandbls",
"/ldot",
":",
"à1123456789£Oc&7zn&",
"John&SarahBaskerville",
"www.anrt-nancy.fr",
"/cedillacomb"
);
classes = (
{
automatic = 1;
code = "A Aacute Abreve Acaron Acircumflex Adieresis Agrave Amacron Aogonek Aring Aringacute Atilde AE B C Cacute Ccaron Ccedilla Cdotaccent D Eth Dcaron Dcroat E Eacute Ecaron Ecircumflex Edieresis Edotaccent Egrave Emacron Eogonek F Fhook G Gbreve Gcommaaccent Gdotaccent H Hbar I IJ Iacute Icaron Icircumflex Idieresis Idotaccent Igrave Imacron Iogonek J K Kcommaaccent L Lacute Lcaron Lcommaaccent Ldot Lslash M N Nacute Ncaron Ncommaaccent Ntilde Eng O Oacute Ocaron Ocircumflex Odieresis Ograve Ohungarumlaut Omacron Oslash Otilde OE P Thorn Q R Racute Rcaron Rcommaaccent S Sacute Scaron Scedilla Scommaaccent Germandbls T Tbar Tcaron Tcedilla Tcommaaccent U Uacute Ubreve Ucaron Ucircumflex Udieresis Udieresisacute Udieresiscaron Udieresisgrave Udieresismacron Ugrave Uhungarumlaut Umacron Uogonek Uring Utilde V W Wacute Wcircumflex Wdieresis Wgrave X Y Yacute Ycircumflex Ydieresis Ygrave Ytilde Z Zacute Zcaron Zdotaccent J.ss01 Y.ss01";
name = Uppercase;
}
);
copyright = "Copyright 2018 The Baskervville Project Authors (https://github.com/anrt-type/ANRT-Baskervville)";
customParameters = (
{
name = fsType;
value = (
);
},
{
name = "Use Typo Metrics";
value = 1;
},
{
name = "Disable Last Change";
value = 1;
},
{
name = "Use Line Breaks";
value = 1;
},
{
name = panose;
value = (
0,
0,
0,
0,
0,
0,
0,
0,
0,
0
);
},
{
name = license;
value = "This Font Software is licensed under the SIL Open Font License, Version 1.1. This license is available with a FAQ at: https://scripts.sil.org/OFL";
},
{
name = licenseURL;
value = "https://scripts.sil.org/OFL";
},
{
name = Axes;
value = (
{
Name = Weight;
Tag = wght;
}
);
}
);
date = "2018-11-04 19:35:33 +0000";
designer = ANRT;
designerURL = "https://anrt-nancy.fr";
familyName = "Baskervville LSP";

glyphs = (
{
color = 6;
glyphname = A;
layers = (
{
anchors = (
{
name = bottom;
position = "{241, 0}";
},
{
name = ogonek;
position = "{500, 0}";
},
{
name = top;
position = "{514, 710}";
}
);
background = {
anchors = (
{
name = bottom;
position = "{241, 0}";
},
{
name = ogonek;
position = "{500, 0}";
},
{
name = top;
position = "{514, 710}";
}
);
paths = (
{
closed = 1;
nodes = (
"53 0 LINE",
"171 -3 LINE",
"179 22 LINE",
"160 24 LINE SMOOTH",
"117 28 OFFCURVE",
"95 39 OFFCURVE",
"95 60 CURVE SMOOTH",
"95 73 OFFCURVE",
"102 89 OFFCURVE",
"117 111 CURVE SMOOTH",
"496 659 LINE",
"448 621 LINE",
"448 116 LINE SMOOTH",
"448 44 OFFCURVE",
"414 30 OFFCURVE",
"355 24 CURVE SMOOTH",
"334 22 LINE",
"326 -3 LINE",
"471 0 LINE",
"616 -3 LINE",
"624 22 LINE",
"605 24 LINE SMOOTH",
"533 32 OFFCURVE",
"530 59 OFFCURVE",
"530 114 CURVE SMOOTH",
"530 710 LINE",
"508 724 LINE",
"84 112 LINE SMOOTH",
"56 71 OFFCURVE",
"28 31 OFFCURVE",
"-41 24 CURVE SMOOTH",
"-62 22 LINE",
"-70 -3 LINE"
);
},
{
closed = 1;
nodes = (
"467 258 LINE",
"479 284 LINE",
"219 284 LINE",
"200 258 LINE"
);
}
);
};
guideLines = (
{
angle = 90;
position = "{530, 363}";
}
);
layerId = "9372F035-DA38-4B54-966C-CEBA9B53DD02";
paths = (
{
closed = 1;
nodes = (
"53 0 LINE",
"171 -3 LINE",
"179 22 LINE",
"160 24 LINE SMOOTH",
"117 28 OFFCURVE",
"95 39 OFFCURVE",
"95 60 CURVE SMOOTH",
"95 73 OFFCURVE",
"102 89 OFFCURVE",
"117 111 CURVE SMOOTH",
"496 659 LINE",
"448 621 LINE",
"448 116 LINE SMOOTH",
"448 44 OFFCURVE",
"414 30 OFFCURVE",
"355 24 CURVE SMOOTH",
"334 22 LINE",
"326 -3 LINE",
"471 0 LINE",
"616 -3 LINE",
"624 22 LINE",
"605 24 LINE SMOOTH",
"533 32 OFFCURVE",
"530 59 OFFCURVE",
"530 114 CURVE SMOOTH",
"530 710 LINE",
"508 724 LINE",
"84 112 LINE SMOOTH",
"56 71 OFFCURVE",
"28 31 OFFCURVE",
"-41 24 CURVE SMOOTH",
"-62 22 LINE",
"-70 -3 LINE"
);
},
{
closed = 1;
nodes = (
"467 258 LINE",
"479 284 LINE",
"219 284 LINE",
"200 258 LINE"
);
}
);
width = 662;
},
{
anchors = (
{
name = bottom;
position = "{287, 0}";
},
{
name = ogonek;
position = "{615, -2}";
},
{
name = top;
position = "{538, 710}";
}
);
layerId = m002;
paths = (
{
closed = 1;
nodes = (
"47 -1 LINE",
"176 -3 LINE",
"188 37 LINE",
"159 39 LINE SMOOTH",
"130 41 OFFCURVE",
"119 56 OFFCURVE",
"119 76 CURVE SMOOTH",
"119 101 OFFCURVE",
"140 137 OFFCURVE",
"156 160 CURVE SMOOTH",
"487 635 LINE",
"465 635 LINE",
"461 123 LINE SMOOTH",
"461 87 OFFCURVE",
"450 44 OFFCURVE",
"398 39 CURVE SMOOTH",
"377 37 LINE",
"364 -3 LINE",
"519 0 LINE",
"661 -3 LINE",
"674 37 LINE",
"655 39 LINE SMOOTH",
"617 43 OFFCURVE",
"610 63 OFFCURVE",
"610 103 CURVE SMOOTH",
"610 712 LINE",
"491 724 LINE",
"92 153 LINE SMOOTH",
"32 67 OFFCURVE",
"7 44 OFFCURVE",
"-46 38 CURVE SMOOTH",
"-55 37 LINE",
"-68 -3 LINE"
);
},
{
closed = 1;
nodes = (
"505 233 LINE",
"508 287 LINE",
"222 287 LINE",
"192 233 LINE"
);
}
);
width = 729;
}
);
leftKerningGroup = A;
rightKerningGroup = A;
unicode = 0041;
},
{
color = 6;
glyphname = AE;
layers = (
{
background = {
paths = (
{
closed = 1;
nodes = (
"53 0 LINE",
"171 -3 LINE",
"180 22 LINE",
"161 24 LINE SMOOTH",
"118 28 OFFCURVE",
"95 38 OFFCURVE",
"95 61 CURVE SMOOTH",
"95 73 OFFCURVE",
"102 89 OFFCURVE",
"117 111 CURVE SMOOTH",
"484 649 LINE",
"473 657 LINE",
"466 116 LINE SMOOTH",
"465 44 OFFCURVE",
"430 30 OFFCURVE",
"370 24 CURVE SMOOTH",
"349 22 LINE",
"340 -3 LINE",
"485 0 LINE",
"622 25 LINE",
"548 25 OFFCURVE",
"549 59 OFFCURVE",
"549 114 CURVE SMOOTH",
"549 710 LINE",
"495 710 LINE",
"81 112 LINE SMOOTH",
"51 69 OFFCURVE",
"32 31 OFFCURVE",
"-40 24 CURVE SMOOTH",
"-61 22 LINE",
"-70 -3 LINE"
);
},
{
closed = 1;
nodes = (
"482 258 LINE",
"495 284 LINE",
"218 284 LINE",
"205 258 LINE"
);
},
{
closed = 1;
nodes = (
"852 0 LINE",
"876 74 LINE",
"926 210 LINE",
"900 210 LINE",
"848 90 OFFCURVE",
"799 25 OFFCURVE",
"683 25 CURVE SMOOTH",
"495 25 LINE",
"485 0 LINE"
);
},
{
closed = 1;
nodes = (
"676 362 LINE",
"685 388 LINE",
"509 388 LINE",
"500 362 LINE"
);
},
{
closed = 1;
nodes = (
"681 226 LINE",
"730 371 LINE",
"781 508 LINE",
"755 508 LINE",
"712 399 OFFCURVE",
"686 388 OFFCURVE",
"642 388 CURVE",
"633 362 LINE",
"659 362 OFFCURVE",
"676 349 OFFCURVE",
"676 316 CURVE SMOOTH",
"676 295 OFFCURVE",
"669 265 OFFCURVE",
"655 226 CURVE"
);
},
{
closed = 1;
nodes = (
"921 526 LINE",
"922 649 LINE",
"924 709 LINE",
"524 710 LINE",
"537 685 LINE",
"771 685 LINE SMOOTH",
"867 685 OFFCURVE",
"895 615 OFFCURVE",
"895 526 CURVE"
);
}
);
};
layerId = "9372F035-DA38-4B54-966C-CEBA9B53DD02";
paths = (
{
closed = 1;
nodes = (
"53 0 LINE",
"171 -3 LINE",
"180 22 LINE",
"161 24 LINE SMOOTH",
"118 29 OFFCURVE",
"95 38 OFFCURVE",
"95 61 CURVE SMOOTH",
"95 73 OFFCURVE",
"102 89 OFFCURVE",
"117 111 CURVE SMOOTH",
"473 632 LINE",
"466 116 LINE SMOOTH",
"465 44 OFFCURVE",
"430 30 OFFCURVE",
"370 24 CURVE SMOOTH",
"349 22 LINE",
"340 -3 LINE",
"485 0 LINE",
"852 0 LINE",
"876 74 LINE",
"926 210 LINE",
"900 210 LINE",
"848 90 OFFCURVE",
"799 25 OFFCURVE",
"683 25 CURVE SMOOTH",
"622 25 LINE SMOOTH",
"548 25 OFFCURVE",
"549 59 OFFCURVE",
"549 114 CURVE SMOOTH",
"549 685 LINE",
"771 685 LINE SMOOTH",
"867 685 OFFCURVE",
"895 615 OFFCURVE",
"895 526 CURVE",
"921 526 LINE",
"924 709 LINE",
"495 710 LINE",
"81 112 LINE SMOOTH",
"51 69 OFFCURVE",
"32 31 OFFCURVE",
"-40 24 CURVE SMOOTH",
"-61 22 LINE",
"-70 -3 LINE"
);
},
{
closed = 1;
nodes = (
"482 258 LINE",
"495 284 LINE",
"218 284 LINE",
"205 258 LINE"
);
},
{
closed = 1;
nodes = (
"691 226 LINE",
"732 371 LINE",
"781 508 LINE",
"755 508 LINE",
"715 399 OFFCURVE",
"689 388 OFFCURVE",
"646 388 CURVE SMOOTH",
"533 388 LINE",
"525 362 LINE",
"638 362 LINE SMOOTH",
"703 362 OFFCURVE",
"682 278 OFFCURVE",
"665 226 CURVE"
);
}
);
width = 951;
},
{
background = {
paths = (
{
closed = 1;
nodes = (
"53 0 LINE",
"171 -3 LINE",
"180 22 LINE",
"161 24 LINE SMOOTH",
"118 28 OFFCURVE",
"95 38 OFFCURVE",
"95 61 CURVE SMOOTH",
"95 73 OFFCURVE",
"102 89 OFFCURVE",
"117 111 CURVE SMOOTH",
"484 649 LINE",
"473 657 LINE",
"466 116 LINE SMOOTH",
"465 44 OFFCURVE",
"430 30 OFFCURVE",
"370 24 CURVE SMOOTH",
"349 22 LINE",
"340 -3 LINE",
"485 0 LINE",
"622 25 LINE",
"548 25 OFFCURVE",
"549 59 OFFCURVE",
"549 114 CURVE SMOOTH",
"549 710 LINE",
"495 710 LINE",
"81 112 LINE SMOOTH",
"51 69 OFFCURVE",
"32 31 OFFCURVE",
"-40 24 CURVE SMOOTH",
"-61 22 LINE",
"-70 -3 LINE"
);
},
{
closed = 1;
nodes = (
"482 258 LINE",
"495 284 LINE",
"218 284 LINE",
"205 258 LINE"
);
},
{
closed = 1;
nodes = (
"852 0 LINE",
"876 74 LINE",
"926 210 LINE",
"900 210 LINE",
"848 90 OFFCURVE",
"799 25 OFFCURVE",
"683 25 CURVE SMOOTH",
"495 25 LINE",
"485 0 LINE"
);
},
{
closed = 1;
nodes = (
"676 362 LINE",
"685 388 LINE",
"509 388 LINE",
"500 362 LINE"
);
},
{
closed = 1;
nodes = (
"681 226 LINE",
"730 371 LINE",
"781 508 LINE",
"755 508 LINE",
"712 399 OFFCURVE",
"686 388 OFFCURVE",
"642 388 CURVE",
"633 362 LINE",
"659 362 OFFCURVE",
"676 349 OFFCURVE",
"676 316 CURVE SMOOTH",
"676 295 OFFCURVE",
"669 265 OFFCURVE",
"655 226 CURVE"
);
},
{
closed = 1;
nodes = (
"921 526 LINE",
"922 649 LINE",
"924 709 LINE",
"524 710 LINE",
"537 685 LINE",
"771 685 LINE SMOOTH",
"867 685 OFFCURVE",
"895 615 OFFCURVE",
"895 526 CURVE"
);
}
);
};
layerId = m002;
paths = (
{
closed = 1;
nodes = (
"47 -1 LINE",
"176 -3 LINE",
"188 37 LINE",
"159 39 LINE SMOOTH",
"130 41 OFFCURVE",
"119 56 OFFCURVE",
"119 76 CURVE SMOOTH",
"119 101 OFFCURVE",
"140 137 OFFCURVE",
"156 160 CURVE SMOOTH",
"461 598 LINE",
"461 123 LINE SMOOTH",
"461 87 OFFCURVE",
"450 44 OFFCURVE",
"398 39 CURVE SMOOTH",
"377 37 LINE",
"364 -3 LINE",
"519 0 LINE",
"939 0 LINE",
"965 85 LINE",
"1012 230 LINE",
"972 230 LINE",
"913 89 OFFCURVE",
"841 44 OFFCURVE",
"724 44 CURVE SMOOTH",
"676 44 LINE SMOOTH",
"625 44 OFFCURVE",
"608 62 OFFCURVE",
"608 113 CURVE SMOOTH",
"608 666 LINE",
"753 666 LINE SMOOTH",
"869 666 OFFCURVE",
"934 615 OFFCURVE",
"934 508 CURVE",
"974 508 LINE",
"971 710 LINE",
"481 710 LINE",
"92 153 LINE SMOOTH",
"32 67 OFFCURVE",
"7 44 OFFCURVE",
"-46 38 CURVE SMOOTH",
"-55 37 LINE",
"-68 -3 LINE"
);
},
{
closed = 1;
nodes = (
"505 233 LINE",
"508 287 LINE",
"222 287 LINE",
"192 233 LINE"
);
},
{
closed = 1;
nodes = (
"768 226 LINE",
"811 374 LINE",
"859 508 LINE",
"820 508 LINE",
"781 416 OFFCURVE",
"735 396 OFFCURVE",
"668 396 CURVE SMOOTH",
"580 396 LINE",
"566 352 LINE",
"654 352 LINE SMOOTH",
"728 352 OFFCURVE",
"755 317 OFFCURVE",
"728 226 CURVE"
);
}
);
width = 1041;
}
);
leftKerningGroup = A;
leftMetricsKey = A;
rightKerningGroup = E;
rightMetricsKey = E;
unicode = 00C6;
},
{
color = 6;
glyphname = B;
layers = (
{
anchors = (
{
name = bottom;
position = "{246, 0}";
},
{
name = top;
position = "{480, 710}";
}
);
background = {
anchors = (
{
name = bottom;
position = "{246, 0}";
},
{
name = top;
position = "{480, 710}";
}
);
paths = (
{
closed = 1;
nodes = (
"119 0 LINE",
"270 0 LINE SMOOTH",
"395 0 OFFCURVE",
"494 31 OFFCURVE",
"553 90 CURVE SMOOTH",
"589 126 OFFCURVE",
"611 170 OFFCURVE",
"611 223 CURVE SMOOTH",
"611 319 OFFCURVE",
"538 372 OFFCURVE",
"419 385 CURVE",
"425 376 LINE",
"493 384 OFFCURVE",
"561 408 OFFCURVE",
"605 451 CURVE SMOOTH",
"634 480 OFFCURVE",
"655 518 OFFCURVE",
"654 566 CURVE SMOOTH",
"650 676 OFFCURVE",
"550 713 OFFCURVE",
"411 711 CURVE SMOOTH",
"349 710 LINE",
"204 713 LINE",
"196 688 LINE",
"215 686 LINE SMOOTH",
"269 681 OFFCURVE",
"289 673 OFFCURVE",
"289 649 CURVE SMOOTH",
"289 640 OFFCURVE",
"286 630 OFFCURVE",
"282 616 CURVE SMOOTH",
"119 124 LINE SMOOTH",
"97 59 OFFCURVE",
"72 30 OFFCURVE",
"-1 24 CURVE SMOOTH",
"-22 22 LINE",
"-30 -3 LINE"
);
},
{
closed = 1;
nodes = (
"212 26 OFFCURVE",
"185 37 OFFCURVE",
"185 72 CURVE SMOOTH",
"185 81 OFFCURVE",
"188 97 OFFCURVE",
"191 106 CURVE SMOOTH",
"382 685 LINE",
"391 685 LINE SMOOTH",
"501 687 OFFCURVE",
"567 653 OFFCURVE",
"569 572 CURVE SMOOTH",
"573 465 OFFCURVE",
"495 397 OFFCURVE",
"379 397 CURVE SMOOTH",
"280 397 LINE",
"272 372 LINE",
"368 372 LINE SMOOTH",
"468 372 OFFCURVE",
"527 337 OFFCURVE",
"527 235 CURVE SMOOTH",
"527 112 OFFCURVE",
"414 26 OFFCURVE",
"262 26 CURVE SMOOTH"
);
}
);
};
layerId = "9372F035-DA38-4B54-966C-CEBA9B53DD02";
paths = (
{
closed = 1;
nodes = (
"119 0 LINE",
"270 0 LINE SMOOTH",
"437 0 OFFCURVE",
"611 69 OFFCURVE",
"611 221 CURVE SMOOTH",
"611 320 OFFCURVE",
"538 376 OFFCURVE",
"419 385 CURVE",
"425 376 LINE",
"545 390 OFFCURVE",
"664 457 OFFCURVE",
"653 576 CURVE SMOOTH",
"643 682 OFFCURVE",
"540 713 OFFCURVE",
"411 711 CURVE SMOOTH",
"349 710 LINE",
"204 713 LINE",
"196 688 LINE",
"215 686 LINE SMOOTH",
"288 678 OFFCURVE",
"300 670 OFFCURVE",
"282 616 CURVE SMOOTH",
"119 124 LINE SMOOTH",
"97 59 OFFCURVE",
"72 31 OFFCURVE",
"-1 24 CURVE SMOOTH",
"-22 22 LINE",
"-30 -3 LINE"
);
},
{
closed = 1;
nodes = (
"190 26 OFFCURVE",
"173 50 OFFCURVE",
"191 106 CURVE SMOOTH",
"382 685 LINE",
"391 685 LINE SMOOTH",
"511 685 OFFCURVE",
"561 650 OFFCURVE",
"569 577 CURVE SMOOTH",
"580 476 OFFCURVE",
"499 397 OFFCURVE",
"379 397 CURVE SMOOTH",
"280 397 LINE",
"272 372 LINE",
"368 372 LINE SMOOTH",
"465 372 OFFCURVE",
"527 337 OFFCURVE",
"527 240 CURVE SMOOTH",
"527 106 OFFCURVE",
"407 26 OFFCURVE",
"267 26 CURVE SMOOTH"
);
}
);
width = 658;
},
{
anchors = (
{
name = bottom;
position = "{273, 0}";
},
{
name = top;
position = "{484, 710}";
}
);
background = {
paths = (
{
closed = 0;
nodes = (
"373 346 LINE",
"468 346 OFFCURVE",
"521 334 OFFCURVE",
"521 271 CURVE SMOOTH",
"521 119 OFFCURVE",
"405 50 OFFCURVE",
"322 50 CURVE"
);
},
{
closed = 0;
nodes = (
"424 357 LINE SMOOTH",
"613 357 OFFCURVE",
"747 432 OFFCURVE",
"747 550 CURVE SMOOTH",
"747 634 OFFCURVE",
"678 710 OFFCURVE",
"507 710 CURVE SMOOTH",
"349 710 LINE",
"192 713 LINE",
"179 673 LINE",
"198 671 LINE SMOOTH",
"247 666 OFFCURVE",
"258 654 OFFCURVE",
"233 577 CURVE SMOOTH",
"89 133 LINE SMOOTH",
"65 59 OFFCURVE",
"48 45 OFFCURVE",
"-7 40 CURVE SMOOTH",
"-28 38 LINE",
"-41 -3 LINE",
"124 0 LINE",
"306 0 LINE"
);
},
{
closed = 0;
nodes = (
"322 50 LINE",
"244 50 OFFCURVE",
"220 59 OFFCURVE",
"244 133 CURVE SMOOTH",
"415 660 LINE",
"487 660 LINE SMOOTH",
"554 660 OFFCURVE",
"578 622 OFFCURVE",
"578 565 CURVE SMOOTH",
"578 487 OFFCURVE",
"513 396 OFFCURVE",
"405 396 CURVE SMOOTH",
"294 396 LINE",
"278 346 LINE",
"373 346 LINE"
);
},
{
closed = 0;
nodes = (
"306 0 LINE",
"520 0 OFFCURVE",
"689 104 OFFCURVE",
"689 256 CURVE SMOOTH",
"689 338 OFFCURVE",
"609 372 OFFCURVE",
"504 380 CURVE",
"567 335 LINE"
);
}
);
};
layerId = m002;
paths = (
{
closed = 1;
nodes = (
"124 0 LINE",
"317 0 LINE SMOOTH",
"533 0 OFFCURVE",
"681 88 OFFCURVE",
"681 218 CURVE SMOOTH",
"681 312 OFFCURVE",
"605 384 OFFCURVE",
"435 384 CURVE",
"424 357 LINE",
"613 357 OFFCURVE",
"747 432 OFFCURVE",
"747 550 CURVE SMOOTH",
"747 634 OFFCURVE",
"678 710 OFFCURVE",
"507 710 CURVE SMOOTH",
"349 710 LINE",
"192 713 LINE",
"179 673 LINE",
"198 671 LINE SMOOTH",
"247 666 OFFCURVE",
"258 654 OFFCURVE",
"233 577 CURVE SMOOTH",
"89 133 LINE SMOOTH",
"65 59 OFFCURVE",
"48 45 OFFCURVE",
"-7 40 CURVE SMOOTH",
"-28 38 LINE",
"-41 -3 LINE"
);
},
{
closed = 1;
nodes = (
"238 50 OFFCURVE",
"223 68 OFFCURVE",
"244 133 CURVE SMOOTH",
"415 660 LINE",
"487 660 LINE SMOOTH",
"552 660 OFFCURVE",
"578 623 OFFCURVE",
"578 570 CURVE SMOOTH",
"578 485 OFFCURVE",
"513 396 OFFCURVE",
"405 396 CURVE SMOOTH",
"294 396 LINE",
"278 346 LINE",
"385 346 LINE SMOOTH",
"485 346 OFFCURVE",
"512 302 OFFCURVE",
"512 242 CURVE SMOOTH",
"512 153 OFFCURVE",
"451 50 OFFCURVE",
"301 50 CURVE SMOOTH"
);
}
);
width = 719;
}
);
leftKerningGroup = I;
leftMetricsKey = I;
rightKerningGroup = B;
unicode = 0042;
},
{
color = 6;
glyphname = C;
layers = (
{
anchors = (
{
name = bottom;
position = "{344, 0}";
},
{
name = top;
position = "{518, 710}";
}
);
background = {
paths = (
{
closed = 1;
nodes = (
"396 -11 OFFCURVE",
"451 13 OFFCURVE",
"485 29 CURVE SMOOTH",
"503 38 OFFCURVE",
"515 44 OFFCURVE",
"522 44 CURVE SMOOTH",
"540 44 OFFCURVE",
"536 18 OFFCURVE",
"534 0 CURVE",
"560 0 LINE",
"588 106 LINE",
"638 247 LINE",
"612 247 LINE",
"563 127 OFFCURVE",
"438 20 OFFCURVE",
"334 20 CURVE SMOOTH",
"227 20 OFFCURVE",
"168 110 OFFCURVE",
"168 249 CURVE SMOOTH",
"168 474 OFFCURVE",
"344 694 OFFCURVE",
"520 694 CURVE SMOOTH",
"655 694 OFFCURVE",
"678 574 OFFCURVE",
"663 485 CURVE",
"689 485 LINE",
"724 594 LINE",
"762 697 LINE",
"736 697 LINE",
"726 683 OFFCURVE",
"710 663 OFFCURVE",
"699 663 CURVE SMOOTH",
"691 663 OFFCURVE",
"682 669 OFFCURVE",
"669 676 CURVE SMOOTH",
"640 694 OFFCURVE",
"594 724 OFFCURVE",
"512 724 CURVE SMOOTH",
"268 724 OFFCURVE",
"79 468 OFFCURVE",
"79 228 CURVE SMOOTH",
"79 59 OFFCURVE",
"197 -11 OFFCURVE",
"319 -11 CURVE SMOOTH"
);
}
);
};
guideLines = (
{
angle = 70;
position = "{682, 240}";
}
);
layerId = "9372F035-DA38-4B54-966C-CEBA9B53DD02";
paths = (
{
closed = 1;
nodes = (
"391 -11 OFFCURVE",
"448 11 OFFCURVE",
"485 29 CURVE SMOOTH",
"502 37 OFFCURVE",
"513 44 OFFCURVE",
"522 44 CURVE SMOOTH",
"540 44 OFFCURVE",
"536 18 OFFCURVE",
"534 0 CURVE",
"560 0 LINE",
"588 106 LINE",
"638 247 LINE",
"612 247 LINE",
"559 121 OFFCURVE",
"437 20 OFFCURVE",
"330 20 CURVE SMOOTH",
"230 20 OFFCURVE",
"168 109 OFFCURVE",
"168 246 CURVE SMOOTH",
"168 476 OFFCURVE",
"344 694 OFFCURVE",
"522 694 CURVE SMOOTH",
"655 694 OFFCURVE",
"678 572 OFFCURVE",
"663 485 CURVE",
"689 485 LINE",
"724 594 LINE",
"762 697 LINE",
"738 697 LINE",
"731 676 OFFCURVE",
"717 663 OFFCURVE",
"701 663 CURVE SMOOTH",
"687 663 OFFCURVE",
"675 672 OFFCURVE",
"659 682 CURVE SMOOTH",
"619 707 OFFCURVE",
"575 724 OFFCURVE",
"512 724 CURVE SMOOTH",
"268 724 OFFCURVE",
"79 464 OFFCURVE",
"79 236 CURVE SMOOTH",
"79 55 OFFCURVE",
"197 -11 OFFCURVE",
"320 -11 CURVE SMOOTH"
);
}
);
width = 694;
},
{
anchors = (
{
name = bottom;
position = "{356, 0}";
},
{
name = top;
position = "{533, 710}";
}
);
background = {
paths = (
{
closed = 1;
nodes = (
"418 -11 OFFCURVE",
"465 7 OFFCURVE",
"496 19 CURVE SMOOTH",
"512 25 OFFCURVE",
"525 30 OFFCURVE",
"535 30 CURVE SMOOTH",
"551 30 OFFCURVE",
"555 21 OFFCURVE",
"555 0 CURVE",
"588 0 LINE",
"625 117 LINE",
"672 249 LINE",
"631 249 LINE",
"567 119 OFFCURVE",
"458 39 OFFCURVE",
"365 39 CURVE SMOOTH",
"228 39 OFFCURVE",
"213 217 OFFCURVE",
"267 385 CURVE SMOOTH",
"315 534 OFFCURVE",
"419 674 OFFCURVE",
"540 674 CURVE SMOOTH",
"635 674 OFFCURVE",
"667 590 OFFCURVE",
"667 466 CURVE",
"707 466 LINE",
"747 593 LINE",
"790 710 LINE",
"750 710 LINE",
"740 688 OFFCURVE",
"728 680 OFFCURVE",
"714 680 CURVE SMOOTH",
"694 680 OFFCURVE",
"674 688 OFFCURVE",
"651 697 CURVE SMOOTH",
"621 710 OFFCURVE",
"584 724 OFFCURVE",
"529 724 CURVE SMOOTH",
"310 724 OFFCURVE",
"150 557 OFFCURVE",
"93 383 CURVE SMOOTH",
"31 191 OFFCURVE",
"94 -11 OFFCURVE",
"343 -11 CURVE SMOOTH"
);
}
);
};
layerId = m002;
paths = (
{
closed = 1;
nodes = (
"421 -14 OFFCURVE",
"470 6 OFFCURVE",
"496 16 CURVE SMOOTH",
"517 24 OFFCURVE",
"527 27 OFFCURVE",
"537 27 CURVE SMOOTH",
"552 27 OFFCURVE",
"556 18 OFFCURVE",
"556 -3 CURVE",
"589 -3 LINE",
"626 115 LINE",
"673 247 LINE",
"632 247 LINE",
"568 117 OFFCURVE",
"458 36 OFFCURVE",
"365 36 CURVE SMOOTH",
"275 36 OFFCURVE",
"237 113 OFFCURVE",
"237 213 CURVE SMOOTH",
"237 380 OFFCURVE",
"358 674 OFFCURVE",
"541 674 CURVE SMOOTH",
"636 674 OFFCURVE",
"668 589 OFFCURVE",
"668 465 CURVE",
"708 465 LINE",
"748 592 LINE",
"792 710 LINE",
"751 710 LINE",
"741 688 OFFCURVE",
"730 680 OFFCURVE",
"713 680 CURVE SMOOTH",
"693 680 OFFCURVE",
"667 691 OFFCURVE",
"650 698 CURVE SMOOTH",
"611 714 OFFCURVE",
"581 724 OFFCURVE",
"527 724 CURVE SMOOTH",
"261 724 OFFCURVE",
"69 464 OFFCURVE",
"69 247 CURVE SMOOTH",
"69 106 OFFCURVE",
"151 -14 OFFCURVE",
"343 -14 CURVE SMOOTH"
);
}
);
width = 715;
}
);
leftKerningGroup = O;
leftMetricsKey = O;
rightKerningGroup = C;
unicode = 0043;
},
{
color = 6;
glyphname = D;
layers = (
{
anchors = (
{
name = bottom;
position = "{317, 0}";
},
{
name = center;
position = "{247, 355}";
},
{
name = top;
position = "{475, 710}";
}
);
background = {
anchors = (
{
name = bottom;
position = "{317, 0}";
},
{
name = center;
position = "{247, 355}";
},
{
name = top;
position = "{475, 710}";
}
);
paths = (
{
closed = 1;
nodes = (
"115 0 LINE",
"300 0 LINE SMOOTH",
"469 0 OFFCURVE",
"625 72 OFFCURVE",
"719 190 CURVE SMOOTH",
"777 262 OFFCURVE",
"811 353 OFFCURVE",
"811 450 CURVE SMOOTH",
"811 623 OFFCURVE",
"669 721 OFFCURVE",
"456 713 CURVE SMOOTH",
"374 710 LINE",
"373 710 LINE",
"226 713 LINE",
"217 688 LINE",
"236 686 LINE SMOOTH",
"289 681 OFFCURVE",
"308 673 OFFCURVE",
"308 651 CURVE SMOOTH",
"308 643 OFFCURVE",
"305 631 OFFCURVE",
"300 617 CURVE SMOOTH",
"108 88 LINE SMOOTH",
"91 41 OFFCURVE",
"73 31 OFFCURVE",
"-4 24 CURVE SMOOTH",
"-25 22 LINE",
"-34 -3 LINE"
);
},
{
closed = 1;
nodes = (
"238 26 OFFCURVE",
"192 25 OFFCURVE",
"192 77 CURVE SMOOTH",
"192 91 OFFCURVE",
"196 110 OFFCURVE",
"204 133 CURVE SMOOTH",
"404 683 LINE",
"439 684 LINE SMOOTH",
"651 689 OFFCURVE",
"721 588 OFFCURVE",
"721 453 CURVE SMOOTH",
"721 237 OFFCURVE",
"546 26 OFFCURVE",
"301 26 CURVE SMOOTH",
"267 26 LINE SMOOTH"
);
}
);
};
guideLines = (
{
angle = 270;
position = "{2953, 356}";
}
);
layerId = "9372F035-DA38-4B54-966C-CEBA9B53DD02";
paths = (
{
closed = 1;
nodes = (
"119 0 LINE",
"304 0 LINE SMOOTH",
"576 0 OFFCURVE",
"820 199 OFFCURVE",
"807 450 CURVE SMOOTH",
"797 631 OFFCURVE",
"660 721 OFFCURVE",
"447 713 CURVE SMOOTH",
"364 710 LINE",
"217 713 LINE",
"209 688 LINE",
"228 686 LINE SMOOTH",
"289 680 OFFCURVE",
"313 675 OFFCURVE",
"293 617 CURVE SMOOTH",
"110 88 LINE SMOOTH",
"94 41 OFFCURVE",
"76 31 OFFCURVE",
"-1 24 CURVE SMOOTH",
"-22 22 LINE",
"-30 -3 LINE"
);
},
{
closed = 1;
nodes = (
"184 26 OFFCURVE",
"183 67 OFFCURVE",
"206 133 CURVE SMOOTH",
"396 683 LINE",
"431 684 LINE SMOOTH",
"637 690 OFFCURVE",
"714 593 OFFCURVE",
"717 453 CURVE SMOOTH",
"721 237 OFFCURVE",
"549 26 OFFCURVE",
"304 26 CURVE SMOOTH",
"270 26 LINE SMOOTH"
);
}
);
width = 808;
},
{
anchors = (
{
name = bottom;
position = "{377, 0}";
},
{
name = center;
position = "{244, 354}";
},
{
name = top;
position = "{619, 710}";
}
);
layerId = m002;
paths = (
{
closed = 1;
nodes = (
"120 0 LINE",
"309 0 LINE SMOOTH",
"622 0 OFFCURVE",
"811 236 OFFCURVE",
"811 436 CURVE SMOOTH",
"811 586 OFFCURVE",
"704 717 OFFCURVE",
"462 712 CURVE SMOOTH",
"369 710 LINE",
"191 713 LINE",
"178 673 LINE",
"207 671 LINE SMOOTH",
"255 668 OFFCURVE",
"267 653 OFFCURVE",
"241 577 CURVE SMOOTH",
"91 133 LINE SMOOTH",
"65 57 OFFCURVE",
"48 45 OFFCURVE",
"-3 40 CURVE SMOOTH",
"-23 38 LINE",
"-36 -3 LINE"
);
},
{
closed = 1;
nodes = (
"245 50 OFFCURVE",
"226 73 OFFCURVE",
"253 153 CURVE SMOOTH",
"424 660 LINE",
"456 660 LINE SMOOTH",
"592 660 OFFCURVE",
"647 572 OFFCURVE",
"647 463 CURVE SMOOTH",
"647 284 OFFCURVE",
"501 50 OFFCURVE",
"319 50 CURVE SMOOTH",
"287 50 LINE"
);
}
);
width = 799;
}
);
leftKerningGroup = I;
leftMetricsKey = I;
rightKerningGroup = O;
rightMetricsKey = O;
unicode = 0044;
},
{
color = 6;
glyphname = E;
layers = (
{
anchors = (
{
name = bottom;
position = "{315, 0}";
},
{
name = ogonek;
position = "{546, 0}";
},
{
name = top;
position = "{496, 710}";
},
{
name = topleft;
position = "{178, 710}";
}
);
background = {
anchors = (
{
name = bottom;
position = "{262, 0}";
},
{
name = ogonek;
position = "{526, 0}";
},
{
name = top;
position = "{496, 710}";
},
{
name = topleft;
position = "{178, 710}";
}
);
paths = (
{
closed = 1;
nodes = (
"119 0 LINE",
"595 0 LINE",
"617 74 LINE",
"662 210 LINE",
"636 210 LINE",
"588 90 OFFCURVE",
"541 26 OFFCURVE",
"426 25 CURVE SMOOTH",
"288 24 LINE SMOOTH",
"228 23 OFFCURVE",
"197 42 OFFCURVE",
"197 89 CURVE SMOOTH",
"197 108 OFFCURVE",
"203 135 OFFCURVE",
"213 165 CURVE SMOOTH",
"384 685 LINE",
"535 685 LINE SMOOTH",
"631 685 OFFCURVE",
"662 616 OFFCURVE",
"665 527 CURVE",
"691 527 LINE",
"688 650 LINE",
"688 710 LINE",
"351 710 LINE",
"204 713 LINE",
"196 688 LINE",
"215 686 LINE SMOOTH",
"269 681 OFFCURVE",
"288 673 OFFCURVE",
"288 650 CURVE SMOOTH",
"288 642 OFFCURVE",
"285 631 OFFCURVE",
"281 617 CURVE SMOOTH",
"106 81 LINE SMOOTH",
"93 40 OFFCURVE",
"71 30 OFFCURVE",
"-1 24 CURVE SMOOTH",
"-22 22 LINE",
"-30 -3 LINE"
);
},
{
closed = 1;
nodes = (
"472 226 LINE",
"515 371 LINE",
"562 508 LINE",
"536 508 LINE",
"496 399 OFFCURVE",
"470 388 OFFCURVE",
"427 388 CURVE SMOOTH",
"254 388 LINE",
"246 362 LINE",
"419 362 LINE SMOOTH",
"446 362 OFFCURVE",
"463 348 OFFCURVE",
"463 312 CURVE SMOOTH",
"463 291 OFFCURVE",
"458 263 OFFCURVE",
"446 226 CURVE"
);
}
);
};
layerId = "9372F035-DA38-4B54-966C-CEBA9B53DD02";
paths = (
{
closed = 1;
nodes = (
"119 0 LINE",
"595 0 LINE",
"617 74 LINE",
"662 210 LINE",
"636 210 LINE",
"588 90 OFFCURVE",
"541 26 OFFCURVE",
"426 25 CURVE SMOOTH",
"288 24 LINE SMOOTH",
"191 23 OFFCURVE",
"183 73 OFFCURVE",
"213 165 CURVE SMOOTH",
"384 685 LINE",
"535 685 LINE SMOOTH",
"631 685 OFFCURVE",
"662 616 OFFCURVE",
"665 527 CURVE",
"691 527 LINE",
"688 710 LINE",
"351 710 LINE",
"204 713 LINE",
"196 688 LINE",
"215 686 LINE SMOOTH",
"286 679 OFFCURVE",
"299 671 OFFCURVE",
"281 617 CURVE SMOOTH",
"106 81 LINE SMOOTH",
"93 40 OFFCURVE",
"71 31 OFFCURVE",
"-1 24 CURVE SMOOTH",
"-22 22 LINE",
"-30 -3 LINE"
);
},
{
closed = 1;
nodes = (
"472 226 LINE",
"513 371 LINE",
"562 508 LINE",
"536 508 LINE",
"496 399 OFFCURVE",
"470 388 OFFCURVE",
"427 388 CURVE SMOOTH",
"254 388 LINE",
"246 362 LINE",
"419 362 LINE SMOOTH",
"484 362 OFFCURVE",
"463 278 OFFCURVE",
"446 226 CURVE"
);
}
);
width = 688;
},
{
anchors = (
{
name = bottom;
position = "{322, 0}";
},
{
name = ogonek;
position = "{548, 0}";
},
{
name = top;
position = "{508, 710}";
},
{
name = topleft;
position = "{172, 710}";
}
);
layerId = m002;
paths = (
{
closed = 1;
nodes = (
"129 0 LINE",
"605 0 LINE",
"631 85 LINE",
"678 230 LINE",
"638 230 LINE",
"579 89 OFFCURVE",
"507 44 OFFCURVE",
"390 44 CURVE SMOOTH",
"332 44 LINE SMOOTH",
"255 44 OFFCURVE",
"231 60 OFFCURVE",
"254 133 CURVE SMOOTH",
"424 666 LINE",
"496 666 LINE SMOOTH",
"612 666 OFFCURVE",
"667 615 OFFCURVE",
"667 508 CURVE",
"707 508 LINE",
"704 710 LINE",
"355 710 LINE",
"191 713 LINE",
"178 673 LINE",
"207 671 LINE SMOOTH",
"255 668 OFFCURVE",
"265 653 OFFCURVE",
"241 577 CURVE SMOOTH",
"100 133 LINE SMOOTH",
"76 57 OFFCURVE",
"57 45 OFFCURVE",
"6 40 CURVE SMOOTH",
"-14 38 LINE",
"-27 -3 LINE"
);
},
{
closed = 1;
nodes = (
"481 226 LINE",
"524 374 LINE",
"572 508 LINE",
"533 508 LINE",
"494 416 OFFCURVE",
"448 396 OFFCURVE",
"381 396 CURVE SMOOTH",
"293 396 LINE",
"279 352 LINE",
"367 352 LINE SMOOTH",
"441 352 OFFCURVE",
"468 317 OFFCURVE",
"441 226 CURVE"
);
}
);
width = 707;
}
);
leftKerningGroup = I;
leftMetricsKey = I;
rightKerningGroup = E;
unicode = 0045;
},
{
color = 6;
glyphname = F;
layers = (
{
anchors = (
{
name = bottom;
position = "{229, 0}";
},
{
name = top;
position = "{463, 710}";
}
);
background = {
anchors = (
{
name = bottom;
position = "{229, 0}";
},
{
name = top;
position = "{463, 710}";
}
);
paths = (
{
closed = 1;
nodes = (
"116 0 LINE",
"285 -3 LINE",
"294 22 LINE",
"275 24 LINE SMOOTH",
"203 32 OFFCURVE",
"179 35 OFFCURVE",
"179 60 CURVE SMOOTH",
"179 67 OFFCURVE",
"181 76 OFFCURVE",
"185 87 CURVE SMOOTH",
"381 685 LINE",
"525 685 LINE SMOOTH",
"621 685 OFFCURVE",
"653 615 OFFCURVE",
"655 526 CURVE",
"681 526 LINE",
"675 709 LINE",
"349 710 LINE",
"202 713 LINE",
"194 688 LINE",
"213 686 LINE SMOOTH",
"267 681 OFFCURVE",
"286 673 OFFCURVE",
"286 650 CURVE SMOOTH",
"286 645 OFFCURVE",
"285 638 OFFCURVE",
"283 631 CURVE SMOOTH",
"109 100 LINE SMOOTH",
"83 35 OFFCURVE",
"62 30 OFFCURVE",
"1 24 CURVE SMOOTH",
"-20 22 LINE",
"-29 -3 LINE"
);
},
{
closed = 0;
nodes = (
"273 377 LINE"
);
},
{
closed = 1;
nodes = (
"451 196 LINE",
"490 341 LINE",
"541 478 LINE",
"515 478 LINE",
"476 369 OFFCURVE",
"449 358 OFFCURVE",
"406 358 CURVE SMOOTH",
"243 358 LINE",
"235 332 LINE",
"398 332 LINE SMOOTH",
"425 332 OFFCURVE",
"442 318 OFFCURVE",
"442 282 CURVE SMOOTH",
"442 261 OFFCURVE",
"437 233 OFFCURVE",
"425 196 CURVE"
);
}
);
};
layerId = "9372F035-DA38-4B54-966C-CEBA9B53DD02";
paths = (
{
closed = 1;
nodes = (
"116 0 LINE",
"285 -3 LINE",
"294 22 LINE",
"275 24 LINE SMOOTH",
"215 30 OFFCURVE",
"165 25 OFFCURVE",
"185 87 CURVE SMOOTH",
"381 685 LINE",
"525 685 LINE SMOOTH",
"621 685 OFFCURVE",
"653 615 OFFCURVE",
"655 526 CURVE",
"681 526 LINE",
"675 709 LINE",
"349 710 LINE",
"202 713 LINE",
"194 688 LINE",
"213 686 LINE SMOOTH",
"262 681 OFFCURVE",
"298 676 OFFCURVE",
"283 631 CURVE SMOOTH",
"109 100 LINE SMOOTH",
"87 33 OFFCURVE",
"62 30 OFFCURVE",
"1 24 CURVE SMOOTH",
"-20 22 LINE",
"-29 -3 LINE"
);
},
{
closed = 1;
nodes = (
"451 196 LINE",
"492 341 LINE",
"541 478 LINE",
"515 478 LINE",
"476 369 OFFCURVE",
"449 358 OFFCURVE",
"406 358 CURVE SMOOTH",
"243 358 LINE",
"235 332 LINE",
"398 332 LINE SMOOTH",
"463 332 OFFCURVE",
"442 248 OFFCURVE",
"425 196 CURVE"
);
}
);
width = 590;
},
{
anchors = (
{
name = bottom;
position = "{253, 0}";
},
{
name = top;
position = "{483, 710}";
}
);
layerId = m002;
paths = (
{
closed = 1;
nodes = (
"129 0 LINE",
"296 -3 LINE",
"309 38 LINE",
"290 40 LINE SMOOTH",
"241 45 OFFCURVE",
"229 56 OFFCURVE",
"254 133 CURVE SMOOTH",
"424 666 LINE",
"485 666 LINE SMOOTH",
"601 666 OFFCURVE",
"656 618 OFFCURVE",
"656 507 CURVE",
"696 507 LINE",
"703 710 LINE",
"355 710 LINE",
"191 713 LINE",
"178 673 LINE",
"207 671 LINE SMOOTH",
"255 668 OFFCURVE",
"265 653 OFFCURVE",
"241 577 CURVE SMOOTH",
"100 133 LINE SMOOTH",
"76 57 OFFCURVE",
"57 45 OFFCURVE",
"6 40 CURVE SMOOTH",
"-14 38 LINE",
"-27 -3 LINE"
);
},
{
closed = 1;
nodes = (
"467 196 LINE",
"510 344 LINE",
"558 478 LINE",
"519 478 LINE",
"480 386 OFFCURVE",
"434 366 OFFCURVE",
"367 366 CURVE SMOOTH",
"279 366 LINE",
"265 322 LINE",
"353 322 LINE SMOOTH",
"427 322 OFFCURVE",
"454 287 OFFCURVE",
"427 196 CURVE"
);
}
);
width = 630;
}
);
leftKerningGroup = I;
leftMetricsKey = I;
rightKerningGroup = F;
unicode = 0046;
},
{
color = 6;
glyphname = Fhook;
layers = (
{
background = {
anchors = (
{
name = bottom;
position = "{228, 0}";
},
{
name = top;
position = "{462, 710}";
}
);
paths = (
{
closed = 1;
nodes = (
"15 -294 OFFCURVE",
"70 -260 OFFCURVE",
"112 -131 CURVE SMOOTH",
"380 685 LINE",
"524 685 LINE SMOOTH",
"620 685 OFFCURVE",
"652 615 OFFCURVE",
"654 526 CURVE",
"680 526 LINE",
"674 709 LINE",
"348 710 LINE",
"201 713 LINE",
"193 688 LINE",
"212 686 LINE SMOOTH",
"265 681 OFFCURVE",
"286 673 OFFCURVE",
"286 651 CURVE SMOOTH",
"286 645 OFFCURVE",
"284 639 OFFCURVE",
"282 631 CURVE SMOOTH",
"33 -128 LINE SMOOTH",
"3 -219 OFFCURVE",
"-22 -272 OFFCURVE",
"-54 -272 CURVE SMOOTH",
"-98 -272 OFFCURVE",
"-75 -174 OFFCURVE",
"-134 -174 CURVE SMOOTH",
"-162 -174 OFFCURVE",
"-183 -194 OFFCURVE",
"-183 -221 CURVE SMOOTH",
"-183 -257 OFFCURVE",
"-154 -294 OFFCURVE",
"-72 -294 CURVE SMOOTH"
);
},
{
closed = 0;
nodes = (
"272 377 LINE"
);
},
{
closed = 1;
nodes = (
"450 196 LINE",
"489 341 LINE",
"540 478 LINE",
"514 478 LINE",
"475 369 OFFCURVE",
"448 358 OFFCURVE",
"405 358 CURVE SMOOTH",
"242 358 LINE",
"234 332 LINE",
"397 332 LINE SMOOTH",
"424 332 OFFCURVE",
"441 318 OFFCURVE",
"441 282 CURVE SMOOTH",
"441 261 OFFCURVE",
"436 233 OFFCURVE",
"424 196 CURVE"
);
}
);
};
layerId = "9372F035-DA38-4B54-966C-CEBA9B53DD02";
paths = (
{
closed = 1;
nodes = (
"15 -294 OFFCURVE",
"70 -259 OFFCURVE",
"112 -131 CURVE SMOOTH",
"380 685 LINE",
"524 685 LINE SMOOTH",
"620 685 OFFCURVE",
"652 615 OFFCURVE",
"654 526 CURVE",
"680 526 LINE",
"674 709 LINE",
"348 710 LINE",
"201 713 LINE",
"193 688 LINE",
"212 686 LINE SMOOTH",
"262 681 OFFCURVE",
"298 679 OFFCURVE",
"282 631 CURVE SMOOTH",
"33 -128 LINE SMOOTH",
"3 -219 OFFCURVE",
"-22 -272 OFFCURVE",
"-54 -272 CURVE SMOOTH",
"-98 -272 OFFCURVE",
"-75 -174 OFFCURVE",
"-134 -174 CURVE SMOOTH",
"-160 -174 OFFCURVE",
"-183 -192 OFFCURVE",
"-183 -223 CURVE SMOOTH",
"-183 -257 OFFCURVE",
"-155 -294 OFFCURVE",
"-69 -294 CURVE SMOOTH"
);
},
{
closed = 1;
nodes = (
"450 196 LINE",
"489 341 LINE",
"540 478 LINE",
"514 478 LINE",
"475 369 OFFCURVE",
"448 358 OFFCURVE",
"405 358 CURVE SMOOTH",
"242 358 LINE",
"234 332 LINE",
"397 332 LINE SMOOTH",
"462 332 OFFCURVE",
"441 248 OFFCURVE",
"424 196 CURVE"
);
}
);
width = 589;
},
{
background = {
anchors = (
{
name = bottom;
position = "{236, 0}";
},
{
name = top;
position = "{470, 710}";
}
);
paths = (
{
closed = 1;
nodes = (
"23 -294 OFFCURVE",
"78 -260 OFFCURVE",
"120 -131 CURVE SMOOTH",
"388 685 LINE",
"532 685 LINE SMOOTH",
"628 685 OFFCURVE",
"660 615 OFFCURVE",
"662 526 CURVE",
"688 526 LINE",
"682 709 LINE",
"356 710 LINE",
"209 713 LINE",
"201 688 LINE",
"220 686 LINE SMOOTH",
"273 681 OFFCURVE",
"294 673 OFFCURVE",
"294 651 CURVE SMOOTH",
"294 645 OFFCURVE",
"292 639 OFFCURVE",
"290 631 CURVE SMOOTH",
"41 -128 LINE SMOOTH",
"11 -219 OFFCURVE",
"-14 -272 OFFCURVE",
"-46 -272 CURVE SMOOTH",
"-90 -272 OFFCURVE",
"-67 -174 OFFCURVE",
"-126 -174 CURVE SMOOTH",
"-154 -174 OFFCURVE",
"-175 -194 OFFCURVE",
"-175 -221 CURVE SMOOTH",
"-175 -257 OFFCURVE",
"-146 -294 OFFCURVE",
"-64 -294 CURVE SMOOTH"
);
},
{
closed = 0;
nodes = (
"280 377 LINE"
);
},
{
closed = 1;
nodes = (
"458 196 LINE",
"497 341 LINE",
"548 478 LINE",
"522 478 LINE",
"483 369 OFFCURVE",
"456 358 OFFCURVE",
"413 358 CURVE SMOOTH",
"250 358 LINE",
"242 332 LINE",
"405 332 LINE SMOOTH",
"432 332 OFFCURVE",
"449 318 OFFCURVE",
"449 282 CURVE SMOOTH",
"449 261 OFFCURVE",
"444 233 OFFCURVE",
"432 196 CURVE"
);
}
);
};
layerId = m002;
paths = (
{
closed = 1;
nodes = (
"36 -294 OFFCURVE",
"123 -251 OFFCURVE",
"167 -117 CURVE SMOOTH",
"422 666 LINE",
"483 666 LINE SMOOTH",
"599 666 OFFCURVE",
"654 618 OFFCURVE",
"654 507 CURVE",
"694 507 LINE",
"701 710 LINE",
"353 710 LINE",
"189 713 LINE",
"176 673 LINE",
"205 671 LINE SMOOTH",
"253 668 OFFCURVE",
"266 653 OFFCURVE",
"241 577 CURVE SMOOTH",
"21 -103 LINE SMOOTH",
"-7 -190 OFFCURVE",
"-29 -258 OFFCURVE",
"-65 -258 CURVE SMOOTH",
"-121 -258 OFFCURVE",
"-42 -130 OFFCURVE",
"-150 -130 CURVE SMOOTH",
"-204 -130 OFFCURVE",
"-234 -162 OFFCURVE",
"-234 -201 CURVE SMOOTH",
"-234 -254 OFFCURVE",
"-185 -294 OFFCURVE",
"-90 -294 CURVE SMOOTH"
);
},
{
closed = 1;
nodes = (
"465 196 LINE",
"508 344 LINE",
"556 478 LINE",
"517 478 LINE",
"478 386 OFFCURVE",
"432 366 OFFCURVE",
"365 366 CURVE SMOOTH",
"277 366 LINE",
"263 322 LINE",
"351 322 LINE SMOOTH",
"425 322 OFFCURVE",
"452 287 OFFCURVE",
"425 196 CURVE"
);
}
);
width = 628;
}
);
rightKerningGroup = F;
rightMetricsKey = F;
unicode = 0191;
},
{
color = 6;
glyphname = G;
layers = (
{
anchors = (
{
name = bottom;
position = "{333, 0}";
},
{
name = top;
position = "{524, 710}";
}
);
background = {
paths = (
{
closed = 1;
nodes = (
"413 -14 OFFCURVE",
"471 15 OFFCURVE",
"513 40 CURVE SMOOTH",
"544 58 OFFCURVE",
"563 68 OFFCURVE",
"579 68 CURVE SMOOTH",
"596 68 OFFCURVE",
"608 56 OFFCURVE",
"627 32 CURVE",
"652 58 LINE",
"626 95 OFFCURVE",
"631 117 OFFCURVE",
"643 154 CURVE SMOOTH",
"661 208 LINE SMOOTH",
"670 235 OFFCURVE",
"691 257 OFFCURVE",
"724 261 CURVE SMOOTH",
"761 265 LINE",
"768 290 LINE",
"637 286 LINE",
"498 290 LINE",
"491 264 LINE",
"523 261 LINE SMOOTH",
"578 256 OFFCURVE",
"590 236 OFFCURVE",
"573 187 CURVE SMOOTH",
"558 144 LINE SMOOTH",
"537 85 OFFCURVE",
"439 16 OFFCURVE",
"344 16 CURVE SMOOTH",
"239 16 OFFCURVE",
"168 96 OFFCURVE",
"168 248 CURVE SMOOTH",
"168 459 OFFCURVE",
"333 694 OFFCURVE",
"519 694 CURVE SMOOTH",
"656 694 OFFCURVE",
"679 572 OFFCURVE",
"664 485 CURVE",
"690 485 LINE",
"725 594 LINE",
"763 697 LINE",
"739 697 LINE",
"732 676 OFFCURVE",
"718 663 OFFCURVE",
"702 663 CURVE SMOOTH",
"688 663 OFFCURVE",
"676 672 OFFCURVE",
"660 682 CURVE SMOOTH",
"620 707 OFFCURVE",
"576 724 OFFCURVE",
"513 724 CURVE SMOOTH",
"254 724 OFFCURVE",
"79 457 OFFCURVE",
"79 235 CURVE SMOOTH",
"79 96 OFFCURVE",
"157 -14 OFFCURVE",
"327 -14 CURVE SMOOTH"
);
}
);
};
layerId = "9372F035-DA38-4B54-966C-CEBA9B53DD02";
paths = (
{
closed = 1;
nodes = (
"413 -14 OFFCURVE",
"471 15 OFFCURVE",
"513 40 CURVE SMOOTH",
"544 58 OFFCURVE",
"563 68 OFFCURVE",
"579 68 CURVE SMOOTH",
"596 68 OFFCURVE",
"608 56 OFFCURVE",
"627 32 CURVE",
"652 58 LINE",
"626 95 OFFCURVE",
"631 117 OFFCURVE",
"643 154 CURVE SMOOTH",
"661 208 LINE SMOOTH",
"670 235 OFFCURVE",
"691 257 OFFCURVE",
"724 261 CURVE SMOOTH",
"761 265 LINE",
"768 290 LINE",
"637 286 LINE",
"498 290 LINE",
"491 264 LINE",
"523 261 LINE SMOOTH",
"578 256 OFFCURVE",
"590 236 OFFCURVE",
"573 187 CURVE SMOOTH",
"563 158 LINE SMOOTH",
"536 80 OFFCURVE",
"439 16 OFFCURVE",
"344 16 CURVE SMOOTH",
"239 16 OFFCURVE",
"168 96 OFFCURVE",
"168 248 CURVE SMOOTH",
"168 459 OFFCURVE",
"333 694 OFFCURVE",
"519 694 CURVE SMOOTH",
"656 694 OFFCURVE",
"679 572 OFFCURVE",
"664 485 CURVE",
"690 485 LINE",
"725 594 LINE",
"763 697 LINE",
"739 697 LINE",
"732 676 OFFCURVE",
"718 663 OFFCURVE",
"702 663 CURVE SMOOTH",
"688 663 OFFCURVE",
"676 672 OFFCURVE",
"660 682 CURVE SMOOTH",
"620 707 OFFCURVE",
"576 724 OFFCURVE",
"513 724 CURVE SMOOTH",
"254 724 OFFCURVE",
"79 457 OFFCURVE",
"79 235 CURVE SMOOTH",
"79 96 OFFCURVE",
"157 -14 OFFCURVE",
"327 -14 CURVE SMOOTH"
);
}
);
width = 755;
},
{
anchors = (
{
name = bottom;
position = "{351, 0}";
},
{
name = top;
position = "{533, 710}";
}
);
background = {
paths = (
{
closed = 1;
nodes = (
"407 -11 OFFCURVE",
"449 10 OFFCURVE",
"489 30 CURVE SMOOTH",
"523 47 OFFCURVE",
"553 64 OFFCURVE",
"582 64 CURVE SMOOTH",
"607 64 OFFCURVE",
"629 54 OFFCURVE",
"642 24 CURVE",
"683 48 LINE",
"673 103 OFFCURVE",
"671 133 OFFCURVE",
"682 171 CURVE SMOOTH",
"684 178 LINE SMOOTH",
"702 240 OFFCURVE",
"742 257 OFFCURVE",
"785 262 CURVE SMOOTH",
"811 265 LINE",
"824 305 LINE",
"648 301 LINE",
"464 305 LINE",
"451 265 LINE",
"502 261 LINE SMOOTH",
"554 257 OFFCURVE",
"557 229 OFFCURVE",
"540 174 CURVE SMOOTH",
"533 151 LINE SMOOTH",
"515 92 OFFCURVE",
"450 39 OFFCURVE",
"364 39 CURVE SMOOTH",
"227 39 OFFCURVE",
"212 217 OFFCURVE",
"266 385 CURVE SMOOTH",
"314 534 OFFCURVE",
"418 674 OFFCURVE",
"539 674 CURVE SMOOTH",
"634 674 OFFCURVE",
"666 590 OFFCURVE",
"666 466 CURVE",
"706 466 LINE",
"746 593 LINE",
"789 710 LINE",
"749 710 LINE",
"739 688 OFFCURVE",
"728 680 OFFCURVE",
"711 680 CURVE SMOOTH",
"691 680 OFFCURVE",
"665 691 OFFCURVE",
"648 698 CURVE SMOOTH",
"609 714 OFFCURVE",
"579 724 OFFCURVE",
"526 724 CURVE SMOOTH",
"311 724 OFFCURVE",
"149 557 OFFCURVE",
"92 383 CURVE SMOOTH",
"30 193 OFFCURVE",
"92 -11 OFFCURVE",
"342 -11 CURVE SMOOTH"
);
}
);
};
layerId = m002;
paths = (
{
closed = 1;
nodes = (
"414 -14 OFFCURVE",
"462 10 OFFCURVE",
"501 31 CURVE SMOOTH",
"531 47 OFFCURVE",
"556 61 OFFCURVE",
"582 61 CURVE SMOOTH",
"607 61 OFFCURVE",
"629 51 OFFCURVE",
"642 21 CURVE",
"683 45 LINE",
"673 100 OFFCURVE",
"671 131 OFFCURVE",
"682 169 CURVE SMOOTH",
"684 176 LINE SMOOTH",
"702 238 OFFCURVE",
"742 255 OFFCURVE",
"785 260 CURVE SMOOTH",
"811 263 LINE",
"824 303 LINE",
"648 299 LINE",
"464 303 LINE",
"451 263 LINE",
"502 259 LINE SMOOTH",
"554 255 OFFCURVE",
"557 227 OFFCURVE",
"540 172 CURVE SMOOTH",
"533 149 LINE SMOOTH",
"515 89 OFFCURVE",
"450 36 OFFCURVE",
"364 36 CURVE SMOOTH",
"227 36 OFFCURVE",
"212 215 OFFCURVE",
"266 384 CURVE SMOOTH",
"314 533 OFFCURVE",
"418 674 OFFCURVE",
"539 674 CURVE SMOOTH",
"634 674 OFFCURVE",
"666 589 OFFCURVE",
"666 465 CURVE",
"706 465 LINE",
"746 592 LINE",
"789 710 LINE",
"749 710 LINE",
"739 688 OFFCURVE",
"728 680 OFFCURVE",
"711 680 CURVE SMOOTH",
"691 680 OFFCURVE",
"665 691 OFFCURVE",
"648 698 CURVE SMOOTH",
"609 714 OFFCURVE",
"579 724 OFFCURVE",
"526 724 CURVE SMOOTH",
"311 724 OFFCURVE",
"149 556 OFFCURVE",
"92 382 CURVE SMOOTH",
"30 191 OFFCURVE",
"92 -14 OFFCURVE",
"342 -14 CURVE SMOOTH"
);
}
);
width = 796;
}
);
leftKerningGroup = O;
leftMetricsKey = O;
rightKerningGroup = G;
unicode = 0047;
},
{
color = 6;
glyphname = H;
layers = (
{
anchors = (
{
name = bottom;
position = "{341, 0}";
},
{
name = center;
position = "{517, 520}";
},
{
name = top;
position = "{578, 710}";
},
{
name = topleft;
position = "{172, 710}";
}
);
background = {
anchors = (
{
name = bottom;
position = "{339, 0}";
},
{
name = center;
position = "{528, 535}";
},
{
name = top;
position = "{573, 710}";
},
{
name = topleft;
position = "{182, 710}";
}
);
paths = (
{
closed = 1;
nodes = (
"119 0 LINE",
"268 -3 LINE",
"276 22 LINE",
"257 24 LINE SMOOTH",
"202 29 OFFCURVE",
"184 36 OFFCURVE",
"184 60 CURVE SMOOTH",
"184 69 OFFCURVE",
"186 81 OFFCURVE",
"191 96 CURVE SMOOTH",
"347 573 LINE",
"374 655 OFFCURVE",
"400 679 OFFCURVE",
"473 686 CURVE SMOOTH",
"494 688 LINE",
"502 713 LINE",
"353 710 LINE",
"204 713 LINE",
"196 688 LINE",
"215 686 LINE SMOOTH",
"269 681 OFFCURVE",
"290 674 OFFCURVE",
"290 651 CURVE SMOOTH",
"290 644 OFFCURVE",
"288 635 OFFCURVE",
"284 624 CURVE SMOOTH",
"124 136 LINE SMOOTH",
"98 56 OFFCURVE",
"72 31 OFFCURVE",
"-1 24 CURVE SMOOTH",
"-22 22 LINE",
"-30 -3 LINE"
);
},
{
closed = 1;
nodes = (
"654 345 LINE",
"664 376 LINE",
"274 376 LINE",
"264 345 LINE"
);
},
{
closed = 1;
nodes = (
"574 0 LINE",
"723 -3 LINE",
"731 22 LINE",
"712 24 LINE SMOOTH",
"658 29 OFFCURVE",
"637 36 OFFCURVE",
"637 61 CURVE SMOOTH",
"637 71 OFFCURVE",
"640 82 OFFCURVE",
"645 97 CURVE SMOOTH",
"801 573 LINE SMOOTH",
"829 659 OFFCURVE",
"854 679 OFFCURVE",
"927 686 CURVE SMOOTH",
"948 688 LINE",
"956 713 LINE",
"807 710 LINE",
"658 713 LINE",
"650 688 LINE",
"669 686 LINE SMOOTH",
"723 681 OFFCURVE",
"743 673 OFFCURVE",
"743 650 CURVE SMOOTH",
"743 643 OFFCURVE",
"741 634 OFFCURVE",
"738 624 CURVE SMOOTH",
"573 121 LINE SMOOTH",
"549 47 OFFCURVE",
"522 31 OFFCURVE",
"454 24 CURVE SMOOTH",
"433 22 LINE",
"425 -3 LINE"
);
}
);
};
guideLines = (
{
angle = 70;
position = "{767, 355}";
},
{
angle = 70;
position = "{322, 353}";
},
{
angle = 70;
position = "{245, 355}";
},
{
position = "{718, 472}";
}
);
layerId = "9372F035-DA38-4B54-966C-CEBA9B53DD02";
paths = (
{
closed = 1;
nodes = (
"119 0 LINE",
"268 -3 LINE",
"276 22 LINE",
"257 24 LINE SMOOTH",
"183 32 OFFCURVE",
"174 44 OFFCURVE",
"191 96 CURVE SMOOTH",
"347 573 LINE",
"374 655 OFFCURVE",
"400 679 OFFCURVE",
"473 686 CURVE SMOOTH",
"494 688 LINE",
"502 713 LINE",
"353 710 LINE",
"204 713 LINE",
"196 688 LINE",
"215 686 LINE SMOOTH",
"276 680 OFFCURVE",
"300 674 OFFCURVE",
"284 624 CURVE SMOOTH",
"124 136 LINE SMOOTH",
"98 56 OFFCURVE",
"72 31 OFFCURVE",
"-1 24 CURVE SMOOTH",
"-22 22 LINE",
"-30 -3 LINE"
);
},
{
closed = 1;
nodes = (
"654 345 LINE",
"664 376 LINE",
"274 376 LINE",
"264 345 LINE"
);
},
{
closed = 1;
nodes = (
"574 0 LINE",
"723 -3 LINE",
"731 22 LINE",
"712 24 LINE SMOOTH",
"646 31 OFFCURVE",
"624 34 OFFCURVE",
"645 97 CURVE SMOOTH",
"801 573 LINE SMOOTH",
"829 659 OFFCURVE",
"854 679 OFFCURVE",
"927 686 CURVE SMOOTH",
"948 688 LINE",
"956 713 LINE",
"807 710 LINE",
"658 713 LINE",
"650 688 LINE",
"669 686 LINE SMOOTH",
"730 680 OFFCURVE",
"755 675 OFFCURVE",
"738 624 CURVE SMOOTH",
"573 121 LINE SMOOTH",
"549 47 OFFCURVE",
"522 30 OFFCURVE",
"454 24 CURVE SMOOTH",
"433 22 LINE",
"425 -3 LINE"
);
}
);
width = 838;
},
{
anchors = (
{
name = bottom;
position = "{352, 0}";
},
{
name = center;
position = "{521, 520}";
},
{
name = top;
position = "{582, 710}";
},
{
name = topleft;
position = "{175, 710}";
}
);
background = {
anchors = (
{
name = bottom;
position = "{408, 0}";
},
{
name = center;
position = "{408, 521}";
},
{
name = top;
position = "{413, 710}";
},
{
name = topleft;
position = "{-13, 710}";
}
);
paths = (
{
closed = 1;
nodes = (
"637 341 LINE",
"637 395 LINE",
"195 395 LINE",
"195 341 LINE"
);
}
);
};
layerId = m002;
paths = (
{
closed = 1;
nodes = (
"124 0 LINE",
"286 -3 LINE",
"299 38 LINE",
"280 40 LINE SMOOTH",
"231 45 OFFCURVE",
"219 56 OFFCURVE",
"244 133 CURVE SMOOTH",
"388 577 LINE SMOOTH",
"412 651 OFFCURVE",
"430 666 OFFCURVE",
"485 671 CURVE SMOOTH",
"506 673 LINE",
"519 713 LINE",
"355 710 LINE",
"192 713 LINE",
"179 673 LINE",
"198 671 LINE SMOOTH",
"247 666 OFFCURVE",
"258 654 OFFCURVE",
"233 577 CURVE SMOOTH",
"89 133 LINE SMOOTH",
"65 59 OFFCURVE",
"48 45 OFFCURVE",
"-7 40 CURVE SMOOTH",
"-28 38 LINE",
"-41 -3 LINE"
);
},
{
closed = 1;
nodes = (
"637 341 LINE",
"637 395 LINE",
"195 395 LINE",
"195 341 LINE"
);
},
{
closed = 1;
nodes = (
"577 0 LINE",
"739 -3 LINE",
"752 38 LINE",
"733 40 LINE SMOOTH",
"684 45 OFFCURVE",
"672 56 OFFCURVE",
"697 133 CURVE SMOOTH",
"841 577 LINE SMOOTH",
"865 651 OFFCURVE",
"883 666 OFFCURVE",
"938 671 CURVE SMOOTH",
"959 673 LINE",
"972 713 LINE",
"808 710 LINE",
"645 713 LINE",
"632 673 LINE",
"651 671 LINE SMOOTH",
"700 666 OFFCURVE",
"711 654 OFFCURVE",
"686 577 CURVE SMOOTH",
"542 133 LINE SMOOTH",
"518 59 OFFCURVE",
"501 45 OFFCURVE",
"446 40 CURVE SMOOTH",
"425 38 LINE",
"412 -3 LINE"
);
}
);
width = 845;
}
);
leftKerningGroup = I;
leftMetricsKey = I;
rightKerningGroup = I;
rightMetricsKey = I;
unicode = 0048;
},
{
color = 6;
glyphname = I;
layers = (
{
anchors = (
{
name = bottom;
position = "{117, 0}";
},
{
name = ogonek;
position = "{217, -2}";
},
{
name = top;
position = "{351, 710}";
},
{
name = topleft;
position = "{174, 710}";
}
);
background = {
anchors = (
{
name = bottom;
position = "{117, 0}";
},
{
name = ogonek;
position = "{134, 0}";
},
{
name = top;
position = "{351, 710}";
},
{
name = topleft;
position = "{174, 710}";
}
);
paths = (
{
closed = 1;
nodes = (
"119 0 LINE",
"268 -3 LINE",
"276 22 LINE",
"257 24 LINE SMOOTH",
"202 29 OFFCURVE",
"184 36 OFFCURVE",
"184 60 CURVE SMOOTH",
"184 69 OFFCURVE",
"187 81 OFFCURVE",
"191 96 CURVE SMOOTH",
"347 573 LINE SMOOTH",
"376 661 OFFCURVE",
"400 679 OFFCURVE",
"473 686 CURVE SMOOTH",
"494 688 LINE",
"502 713 LINE",
"353 710 LINE",
"204 713 LINE",
"196 688 LINE",
"215 686 LINE SMOOTH",
"270 681 OFFCURVE",
"288 674 OFFCURVE",
"288 650 CURVE SMOOTH",
"288 643 OFFCURVE",
"287 634 OFFCURVE",
"284 624 CURVE SMOOTH",
"124 136 LINE SMOOTH",
"96 51 OFFCURVE",
"72 31 OFFCURVE",
"-1 24 CURVE SMOOTH",
"-22 22 LINE",
"-30 -3 LINE"
);
}
);
};
layerId = "9372F035-DA38-4B54-966C-CEBA9B53DD02";
paths = (
{
closed = 1;
nodes = (
"119 0 LINE",
"268 -3 LINE",
"276 22 LINE",
"257 24 LINE SMOOTH",
"191 31 OFFCURVE",
"170 33 OFFCURVE",
"191 96 CURVE SMOOTH",
"347 573 LINE SMOOTH",
"376 661 OFFCURVE",
"400 679 OFFCURVE",
"473 686 CURVE SMOOTH",
"494 688 LINE",
"502 713 LINE",
"353 710 LINE",
"204 713 LINE",
"196 688 LINE",
"215 686 LINE SMOOTH",
"278 679 OFFCURVE",
"299 671 OFFCURVE",
"284 624 CURVE SMOOTH",
"124 136 LINE SMOOTH",
"96 51 OFFCURVE",
"72 31 OFFCURVE",
"-1 24 CURVE SMOOTH",
"-22 22 LINE",
"-30 -3 LINE"
);
}
);
width = 384;
},
{
anchors = (
{
name = bottom;
position = "{125, 0}";
},
{
name = ogonek;
position = "{226, -2}";
},
{
name = top;
position = "{354, 710}";
},
{
name = topleft;
position = "{156, 710}";
}
);
background = {
paths = (
{
closed = 1;
nodes = (
"118 0 LINE",
"119 0 LINE",
"267 -3 LINE",
"267 22 LINE",
"247 24 LINE SMOOTH",
"178 31 OFFCURVE",
"161 34 OFFCURVE",
"161 133 CURVE SMOOTH",
"161 577 LINE SMOOTH",
"161 676 OFFCURVE",
"178 679 OFFCURVE",
"247 686 CURVE SMOOTH",
"267 688 LINE",
"267 713 LINE",
"119 710 LINE",
"118 710 LINE",
"-30 713 LINE",
"-30 688 LINE",
"-10 686 LINE SMOOTH",
"59 679 OFFCURVE",
"76 676 OFFCURVE",
"76 577 CURVE SMOOTH",
"76 133 LINE SMOOTH",
"76 34 OFFCURVE",
"59 31 OFFCURVE",
"-10 24 CURVE SMOOTH",
"-30 22 LINE",
"-30 -3 LINE"
);
}
);
};
layerId = m002;
paths = (
{
closed = 1;
nodes = (
"124 0 LINE",
"286 -3 LINE",
"299 38 LINE",
"280 40 LINE SMOOTH",
"231 45 OFFCURVE",
"219 56 OFFCURVE",
"244 133 CURVE SMOOTH",
"388 577 LINE SMOOTH",
"412 651 OFFCURVE",
"430 666 OFFCURVE",
"485 671 CURVE SMOOTH",
"506 673 LINE",
"519 713 LINE",
"355 710 LINE",
"192 713 LINE",
"179 673 LINE",
"198 671 LINE SMOOTH",
"247 666 OFFCURVE",
"258 654 OFFCURVE",
"233 577 CURVE SMOOTH",
"89 133 LINE SMOOTH",
"65 59 OFFCURVE",
"48 45 OFFCURVE",
"-7 40 CURVE SMOOTH",
"-28 38 LINE",
"-41 -3 LINE"
);
}
);
width = 392;
}
);
leftKerningGroup = I;
rightKerningGroup = I;
unicode = 0049;
},
{
color = 6;
glyphname = J;
layers = (
{
anchors = (
{
name = bottom;
position = "{133, 0}";
},
{
name = top;
position = "{366, 710}";
}
);
background = {
anchors = (
{
name = bottom;
position = "{133, 0}";
},
{
name = top;
position = "{366, 710}";
}
);
paths = (
{
closed = 1;
nodes = (
"217 -14 OFFCURVE",
"236 60 OFFCURVE",
"264 147 CURVE SMOOTH",
"403 574 LINE SMOOTH",
"432 664 OFFCURVE",
"460 679 OFFCURVE",
"529 686 CURVE SMOOTH",
"550 688 LINE",
"558 713 LINE",
"409 710 LINE",
"260 713 LINE",
"252 688 LINE",
"271 686 LINE SMOOTH",
"326 681 OFFCURVE",
"344 674 OFFCURVE",
"344 650 CURVE SMOOTH",
"344 641 OFFCURVE",
"341 629 OFFCURVE",
"337 614 CURVE SMOOTH",
"207 217 LINE SMOOTH",
"166 94 OFFCURVE",
"145 9 OFFCURVE",
"90 9 CURVE SMOOTH",
"53 9 OFFCURVE",
"50 33 OFFCURVE",
"42 63 CURVE SMOOTH",
"35 93 OFFCURVE",
"24 120 OFFCURVE",
"-11 120 CURVE SMOOTH",
"-38 120 OFFCURVE",
"-56 101 OFFCURVE",
"-56 75 CURVE SMOOTH",
"-56 15 OFFCURVE",
"13 -14 OFFCURVE",
"87 -14 CURVE SMOOTH"
);
}
);
};
layerId = "9372F035-DA38-4B54-966C-CEBA9B53DD02";
paths = (
{
closed = 1;
nodes = (
"217 -14 OFFCURVE",
"236 60 OFFCURVE",
"264 147 CURVE SMOOTH",
"403 574 LINE SMOOTH",
"432 664 OFFCURVE",
"460 679 OFFCURVE",
"529 686 CURVE SMOOTH",
"550 688 LINE",
"558 713 LINE",
"409 710 LINE",
"260 713 LINE",
"252 688 LINE",
"271 686 LINE SMOOTH",
"337 680 OFFCURVE",
"354 678 OFFCURVE",
"337 614 CURVE SMOOTH",
"207 217 LINE SMOOTH",
"166 94 OFFCURVE",
"145 9 OFFCURVE",
"90 9 CURVE SMOOTH",
"73 9 OFFCURVE",
"64 14 OFFCURVE",
"57 22 CURVE SMOOTH",
"49 32 OFFCURVE",
"46 46 OFFCURVE",
"42 63 CURVE SMOOTH",
"35 93 OFFCURVE",
"24 120 OFFCURVE",
"-11 120 CURVE SMOOTH",
"-38 120 OFFCURVE",
"-56 101 OFFCURVE",
"-56 75 CURVE SMOOTH",
"-56 15 OFFCURVE",
"13 -14 OFFCURVE",
"87 -14 CURVE SMOOTH"
);
}
);
width = 430;
},
{
anchors = (
{
name = bottom;
position = "{296, 0}";
},
{
name = top;
position = "{587, 710}";
}
);
background = {
paths = (
{
closed = 1;
nodes = (
"360 -14 OFFCURVE",
"432 50 OFFCURVE",
"432 203 CURVE SMOOTH",
"433 577 LINE SMOOTH",
"433 651 OFFCURVE",
"446 666 OFFCURVE",
"499 671 CURVE SMOOTH",
"519 673 LINE",
"519 713 LINE",
"356 710 LINE",
"192 713 LINE",
"192 673 LINE",
"212 671 LINE SMOOTH",
"265 666 OFFCURVE",
"278 651 OFFCURVE",
"278 577 CURVE SMOOTH",
"278 181 LINE SMOOTH",
"278 98 OFFCURVE",
"272 30 OFFCURVE",
"227 30 CURVE SMOOTH",
"205 30 OFFCURVE",
"192 38 OFFCURVE",
"192 56 CURVE SMOOTH",
"192 77 OFFCURVE",
"204 94 OFFCURVE",
"204 114 CURVE SMOOTH",
"204 148 OFFCURVE",
"177 173 OFFCURVE",
"128 173 CURVE SMOOTH",
"81 173 OFFCURVE",
"54 145 OFFCURVE",
"54 103 CURVE SMOOTH",
"54 29 OFFCURVE",
"119 -14 OFFCURVE",
"221 -14 CURVE SMOOTH"
);
}
);
};
layerId = m002;
paths = (
{
closed = 1;
nodes = (
"224 -14 OFFCURVE",
"309 42 OFFCURVE",
"353 179 CURVE SMOOTH",
"481 577 LINE SMOOTH",
"505 653 OFFCURVE",
"525 666 OFFCURVE",
"577 671 CURVE SMOOTH",
"598 673 LINE",
"611 713 LINE",
"447 710 LINE",
"274 713 LINE",
"261 673 LINE",
"290 671 LINE SMOOTH",
"339 668 OFFCURVE",
"351 654 OFFCURVE",
"326 577 CURVE SMOOTH",
"199 181 LINE SMOOTH",
"173 99 OFFCURVE",
"144 32 OFFCURVE",
"98 32 CURVE SMOOTH",
"80 32 OFFCURVE",
"68 42 OFFCURVE",
"68 58 CURVE SMOOTH",
"68 76 OFFCURVE",
"83 96 OFFCURVE",
"83 120 CURVE SMOOTH",
"83 154 OFFCURVE",
"54 178 OFFCURVE",
"6 178 CURVE SMOOTH",
"-53 178 OFFCURVE",
"-82 143 OFFCURVE",
"-82 97 CURVE SMOOTH",
"-82 33 OFFCURVE",
"-25 -14 OFFCURVE",
"94 -14 CURVE SMOOTH"
);
}
);
width = 474;
}
);
leftKerningGroup = J;
rightKerningGroup = U;
unicode = 004A;
},
{
color = 6;
glyphname = K;
layers = (
{
anchors = (
{
name = bottom;
position = "{343, 1}";
},
{
name = top;
position = "{537, 711}";
}
);
background = {
anchors = (
{
name = bottom;
position = "{343, 0}";
},
{
name = top;
position = "{527, 710}";
}
);
paths = (
{
closed = 1;
nodes = (
"119 0 LINE",
"268 -3 LINE",
"276 22 LINE",
"257 24 LINE SMOOTH",
"202 29 OFFCURVE",
"184 36 OFFCURVE",
"184 60 CURVE SMOOTH",
"184 69 OFFCURVE",
"187 81 OFFCURVE",
"191 96 CURVE SMOOTH",
"349 580 LINE SMOOTH",
"381 673 OFFCURVE",
"399 678 OFFCURVE",
"468 686 CURVE",
"481 713 LINE",
"353 710 LINE",
"214 713 LINE",
"205 688 LINE",
"224 686 LINE SMOOTH",
"261 682 OFFCURVE",
"291 678 OFFCURVE",
"291 653 CURVE SMOOTH",
"291 648 OFFCURVE",
"290 642 OFFCURVE",
"287 635 CURVE SMOOTH",
"124 136 LINE SMOOTH",
"96 50 OFFCURVE",
"72 31 OFFCURVE",
"-1 24 CURVE SMOOTH",
"-22 22 LINE",
"-30 -3 LINE"
);
},
{
closed = 1;
nodes = (
"682 22 LINE",
"621 31 OFFCURVE",
"585 59 OFFCURVE",
"554 139 CURVE SMOOTH",
"434 434 LINE",
"374 372 LINE",
"485 101 LINE SMOOTH",
"489 90 OFFCURVE",
"492 80 OFFCURVE",
"492 71 CURVE SMOOTH",
"492 51 OFFCURVE",
"477 34 OFFCURVE",
"423 26 CURVE SMOOTH",
"405 23 LINE",
"396 -2 LINE",
"562 0 LINE",
"673 -3 LINE"
);
},
{
closed = 1;
nodes = (
"658 599 LINE SMOOTH",
"722 650 OFFCURVE",
"769 681 OFFCURVE",
"799 685 CURVE SMOOTH",
"821 688 LINE",
"830 713 LINE",
"716 709 LINE",
"593 713 LINE",
"584 688 LINE",
"598 687 LINE SMOOTH",
"634 684 OFFCURVE",
"651 672 OFFCURVE",
"651 653 CURVE SMOOTH",
"651 635 OFFCURVE",
"635 612 OFFCURVE",
"605 587 CURVE SMOOTH",
"232 286 LINE",
"228 250 LINE"
);
}
);
};
layerId = "9372F035-DA38-4B54-966C-CEBA9B53DD02";
paths = (
{
closed = 1;
nodes = (
"658 600 LINE SMOOTH",
"722 652 OFFCURVE",
"769 682 OFFCURVE",
"799 686 CURVE SMOOTH",
"821 689 LINE",
"830 714 LINE",
"716 710 LINE",
"593 714 LINE",
"584 689 LINE",
"598 688 LINE SMOOTH",
"634 685 OFFCURVE",
"651 673 OFFCURVE",
"651 654 CURVE SMOOTH",
"651 636 OFFCURVE",
"635 613 OFFCURVE",
"605 588 CURVE SMOOTH",
"232 287 LINE",
"228 251 LINE"
);
},
{
closed = 1;
nodes = (
"119 0 LINE",
"268 -3 LINE",
"276 22 LINE",
"257 24 LINE SMOOTH",
"191 31 OFFCURVE",
"170 33 OFFCURVE",
"191 96 CURVE SMOOTH",
"347 573 LINE SMOOTH",
"376 661 OFFCURVE",
"400 679 OFFCURVE",
"473 686 CURVE SMOOTH",
"494 688 LINE",
"502 713 LINE",
"353 710 LINE",
"204 713 LINE",
"196 688 LINE",
"215 686 LINE SMOOTH",
"278 679 OFFCURVE",
"299 671 OFFCURVE",
"284 624 CURVE SMOOTH",
"124 136 LINE SMOOTH",
"96 51 OFFCURVE",
"72 31 OFFCURVE",
"-1 24 CURVE SMOOTH",
"-22 22 LINE",
"-30 -3 LINE"
);
},
{
closed = 1;
nodes = (
"562 1 LINE",
"673 -2 LINE",
"682 23 LINE",
"617 34 OFFCURVE",
"585 64 OFFCURVE",
"554 140 CURVE SMOOTH",
"434 435 LINE",
"374 373 LINE",
"485 102 LINE SMOOTH",
"489 91 OFFCURVE",
"492 81 OFFCURVE",
"492 72 CURVE SMOOTH",
"492 52 OFFCURVE",
"477 36 OFFCURVE",
"423 27 CURVE SMOOTH",
"405 24 LINE",
"396 -1 LINE"
);
}
);
width = 724;
},
{
anchors = (
{
name = bottom;
position = "{339, 0}";
},
{
name = top;
position = "{544, 710}";
}
);
layerId = m002;
paths = (
{
closed = 1;
nodes = (
"686 592 LINE SMOOTH",
"740 636 OFFCURVE",
"779 662 OFFCURVE",
"820 670 CURVE SMOOTH",
"840 674 LINE",
"852 713 LINE",
"733 710 LINE",
"588 713 LINE",
"576 673 LINE",
"595 671 LINE SMOOTH",
"621 668 OFFCURVE",
"633 658 OFFCURVE",
"633 642 CURVE SMOOTH",
"633 622 OFFCURVE",
"613 594 OFFCURVE",
"576 564 CURVE SMOOTH",
"266 310 LINE",
"240 229 LINE"
);
},
{
closed = 1;
nodes = (
"124 0 LINE",
"286 -3 LINE",
"299 38 LINE",
"280 40 LINE SMOOTH",
"231 45 OFFCURVE",
"219 56 OFFCURVE",
"244 133 CURVE SMOOTH",
"388 577 LINE SMOOTH",
"412 651 OFFCURVE",
"430 666 OFFCURVE",
"485 671 CURVE SMOOTH",
"506 673 LINE",
"519 713 LINE",
"355 710 LINE",
"192 713 LINE",
"179 673 LINE",
"198 671 LINE SMOOTH",
"247 666 OFFCURVE",
"258 654 OFFCURVE",
"233 577 CURVE SMOOTH",
"89 133 LINE SMOOTH",
"65 59 OFFCURVE",
"48 45 OFFCURVE",
"-7 40 CURVE SMOOTH",
"-28 38 LINE",
"-41 -3 LINE"
);
},
{
closed = 1;
nodes = (
"571 0 LINE",
"699 -3 LINE",
"712 38 LINE",
"677 38 OFFCURVE",
"656 67 OFFCURVE",
"617 171 CURVE SMOOTH",
"503 472 LINE",
"377 370 LINE",
"470 123 LINE SMOOTH",
"475 110 OFFCURVE",
"477 98 OFFCURVE",
"477 87 CURVE SMOOTH",
"477 61 OFFCURVE",
"462 42 OFFCURVE",
"424 39 CURVE SMOOTH",
"409 38 LINE",
"396 -3 LINE"
);
}
);
width = 760;
}
);
leftKerningGroup = I;
leftMetricsKey = I;
rightKerningGroup = K;
unicode = 004B;
},
{
color = 6;
glyphname = L;
layers = (
{
anchors = (
{
name = bottom;
position = "{241, 0}";
},
{
name = center;
position = "{237, 355}";
},
{
name = top;
position = "{353, 710}";
},
{
name = topright;
position = "{531, 710}";
}
);
background = {
anchors = (
{
name = bottom;
position = "{241, 0}";
},
{
name = center;
position = "{236, 355}";
},
{
name = top;
position = "{353, 710}";
},
{
name = topright;
position = "{531, 710}";
}
);
paths = (
{
closed = 1;
nodes = (
"110 0 LINE",
"545 -3 LINE",
"623 210 LINE",
"597 210 LINE",
"550 88 OFFCURVE",
"481 23 OFFCURVE",
"366 23 CURVE SMOOTH",
"291 23 LINE SMOOTH",
"218 23 OFFCURVE",
"192 38 OFFCURVE",
"192 77 CURVE SMOOTH",
"192 97 OFFCURVE",
"200 125 OFFCURVE",
"212 161 CURVE SMOOTH",
"347 574 LINE SMOOTH",
"375 660 OFFCURVE",
"400 679 OFFCURVE",
"473 686 CURVE SMOOTH",
"494 688 LINE",
"502 713 LINE",
"353 710 LINE",
"204 713 LINE",
"196 688 LINE",
"215 686 LINE SMOOTH",
"269 680 OFFCURVE",
"290 675 OFFCURVE",
"290 651 CURVE SMOOTH",
"290 644 OFFCURVE",
"288 635 OFFCURVE",
"284 624 CURVE SMOOTH",
"105 80 LINE SMOOTH",
"91 39 OFFCURVE",
"71 31 OFFCURVE",
"-1 24 CURVE SMOOTH",
"-22 22 LINE",
"-30 -3 LINE"
);
}
);
};
layerId = "9372F035-DA38-4B54-966C-CEBA9B53DD02";
paths = (
{
closed = 1;
nodes = (
"110 0 LINE",
"545 -3 LINE",
"623 210 LINE",
"597 210 LINE",
"550 88 OFFCURVE",
"481 23 OFFCURVE",
"366 23 CURVE SMOOTH",
"291 23 LINE SMOOTH",
"176 23 OFFCURVE",
"179 61 OFFCURVE",
"212 161 CURVE SMOOTH",
"347 574 LINE SMOOTH",
"375 660 OFFCURVE",
"400 679 OFFCURVE",
"473 686 CURVE SMOOTH",
"494 688 LINE",
"502 713 LINE",
"353 710 LINE",
"204 713 LINE",
"196 688 LINE",
"215 686 LINE SMOOTH",
"277 679 OFFCURVE",
"301 676 OFFCURVE",
"284 624 CURVE SMOOTH",
"105 80 LINE SMOOTH",
"91 39 OFFCURVE",
"71 31 OFFCURVE",
"-1 24 CURVE SMOOTH",
"-22 22 LINE",
"-30 -3 LINE"
);
}
);
width = 639;
},
{
anchors = (
{
name = bottom;
position = "{299, 0}";
},
{
name = center;
position = "{235, 355}";
},
{
name = top;
position = "{355, 710}";
},
{
name = topright;
position = "{552, 710}";
}
);
layerId = m002;
paths = (
{
closed = 1;
nodes = (
"120 0 LINE",
"544 0 LINE",
"630 230 LINE",
"590 230 LINE",
"518 89 OFFCURVE",
"442 44 OFFCURVE",
"326 44 CURVE SMOOTH",
"312 44 LINE SMOOTH",
"237 44 OFFCURVE",
"222 60 OFFCURVE",
"240 117 CURVE SMOOTH",
"385 577 LINE SMOOTH",
"412 661 OFFCURVE",
"425 666 OFFCURVE",
"478 671 CURVE SMOOTH",
"499 673 LINE",
"511 713 LINE",
"356 710 LINE",
"191 713 LINE",
"178 673 LINE",
"197 671 LINE SMOOTH",
"245 666 OFFCURVE",
"255 653 OFFCURVE",
"231 577 CURVE SMOOTH",
"90 133 LINE SMOOTH",
"66 57 OFFCURVE",
"48 45 OFFCURVE",
"-3 40 CURVE SMOOTH",
"-23 38 LINE",
"-36 -3 LINE"
);
}
);
width = 649;
}
);
leftKerningGroup = I;
leftMetricsKey = I;
rightKerningGroup = L;
unicode = 004C;
},
{
color = 6;
glyphname = M;
layers = (
{
anchors = (
{
name = bottom;
position = "{399, 0}";
},
{
name = top;
position = "{633, 710}";
}
);
background = {
anchors = (
{
name = bottom;
position = "{399, 0}";
},
{
name = top;
position = "{633, 710}";
}
);
paths = (
{
closed = 1;
nodes = (
"686 0 LINE",
"835 -3 LINE",
"843 22 LINE",
"824 24 LINE SMOOTH",
"769 29 OFFCURVE",
"751 36 OFFCURVE",
"751 60 CURVE SMOOTH",
"751 69 OFFCURVE",
"754 81 OFFCURVE",
"758 96 CURVE SMOOTH",
"874 615 LINE SMOOTH",
"887 675 OFFCURVE",
"925 681 OFFCURVE",
"973 686 CURVE SMOOTH",
"994 688 LINE",
"1002 713 LINE",
"857 710 LINE",
"810 710 LINE",
"413 85 LINE",
"436 89 LINE",
"373 710 LINE",
"317 710 LINE",
"199 713 LINE",
"191 688 LINE",
"229 683 LINE SMOOTH",
"262 679 OFFCURVE",
"278 666 OFFCURVE",
"301 635 CURVE",
"365 7 LINE",
"395 7 LINE",
"829 687 LINE",
"816 693 LINE",
"691 137 LINE SMOOTH",
"668 49 OFFCURVE",
"639 31 OFFCURVE",
"566 24 CURVE SMOOTH",
"545 22 LINE",
"537 -3 LINE"
);
},
{
closed = 1;
nodes = (
"97 0 LINE",
"215 -3 LINE",
"223 22 LINE",
"204 24 LINE SMOOTH",
"152 29 OFFCURVE",
"131 33 OFFCURVE",
"131 60 CURVE SMOOTH",
"131 68 OFFCURVE",
"133 78 OFFCURVE",
"136 90 CURVE SMOOTH",
"319 661 LINE",
"290 661 LINE",
"112 116 LINE SMOOTH",
"89 36 OFFCURVE",
"71 31 OFFCURVE",
"3 24 CURVE SMOOTH",
"-18 22 LINE",
"-26 -3 LINE"
);
}
);
};
guideLines = (
{
angle = 70;
position = "{806, 452}";
},
{
position = "{564, 616}";
}
);
layerId = "9372F035-DA38-4B54-966C-CEBA9B53DD02";
paths = (
{
closed = 1;
nodes = (
"97 0 LINE",
"215 -3 LINE",
"223 22 LINE",
"204 24 LINE SMOOTH",
"132 32 OFFCURVE",
"119 38 OFFCURVE",
"136 90 CURVE SMOOTH",
"313 642 LINE",
"300 643 LINE",
"365 7 LINE",
"397 7 LINE",
"826 679 LINE",
"810 683 LINE",
"687 137 LINE SMOOTH",
"667 48 OFFCURVE",
"635 31 OFFCURVE",
"562 24 CURVE SMOOTH",
"541 22 LINE",
"533 -3 LINE",
"682 0 LINE",
"831 -3 LINE",
"839 22 LINE",
"820 24 LINE SMOOTH",
"754 31 OFFCURVE",
"739 31 OFFCURVE",
"754 96 CURVE SMOOTH",
"870 615 LINE SMOOTH",
"883 675 OFFCURVE",
"921 681 OFFCURVE",
"969 686 CURVE SMOOTH",
"990 688 LINE",
"998 713 LINE",
"857 710 LINE",
"810 710 LINE",
"416 90 LINE",
"436 86 LINE",
"373 710 LINE",
"317 710 LINE",
"199 713 LINE",
"191 688 LINE",
"229 683 LINE SMOOTH",
"255 680 OFFCURVE",
"270 671 OFFCURVE",
"287 652 CURVE",
"112 116 LINE SMOOTH",
"86 37 OFFCURVE",
"71 30 OFFCURVE",
"3 24 CURVE SMOOTH",
"-18 22 LINE",
"-26 -3 LINE"
);
}
);
width = 916;
},
{
anchors = (
{
name = bottom;
position = "{450, 0}";
},
{
name = top;
position = "{729, 710}";
}
);
guideLines = (
{
position = "{554, 642}";
}
);
layerId = m002;
paths = (
{
closed = 1;
nodes = (
"90 -1 LINE",
"216 -3 LINE",
"229 37 LINE",
"200 39 LINE SMOOTH",
"141 43 OFFCURVE",
"133 61 OFFCURVE",
"156 133 CURVE SMOOTH",
"329 679 LINE",
"289 679 LINE",
"358 0 LINE",
"401 0 LINE",
"837 682 LINE",
"804 682 LINE",
"678 133 LINE SMOOTH",
"661 57 OFFCURVE",
"637 45 OFFCURVE",
"586 40 CURVE SMOOTH",
"566 38 LINE",
"553 -3 LINE",
"713 0 LINE",
"883 -3 LINE",
"896 38 LINE",
"877 40 LINE SMOOTH",
"814 47 OFFCURVE",
"817 58 OFFCURVE",
"833 133 CURVE SMOOTH",
"929 577 LINE SMOOTH",
"945 653 OFFCURVE",
"966 666 OFFCURVE",
"1013 671 CURVE SMOOTH",
"1033 673 LINE",
"1046 713 LINE",
"895 710 LINE",
"796 710 LINE",
"407 101 LINE",
"492 174 LINE",
"441 710 LINE",
"354 710 LINE",
"189 713 LINE",
"177 673 LINE",
"194 671 LINE SMOOTH",
"231 667 OFFCURVE",
"251 656 OFFCURVE",
"265 644 CURVE",
"103 133 LINE SMOOTH",
"79 58 OFFCURVE",
"60 43 OFFCURVE",
"0 39 CURVE SMOOTH",
"-30 37 LINE",
"-43 -3 LINE"
);
}
);
width = 966;
}
);
leftKerningGroup = M;
rightKerningGroup = I;
unicode = 004D;
},
{
color = 6;
glyphname = N;
layers = (
{
anchors = (
{
name = bottom;
position = "{392, 0}";
},
{
name = top;
position = "{546, 710}";
}
);
background = {
anchors = (
{
name = bottom;
position = "{392, 0}";
},
{
name = top;
position = "{546, 710}";
}
);
paths = (
{
closed = 1;
nodes = (
"614 94 LINE",
"336 710 LINE",
"308 655 LINE",
"318 710 LINE",
"201 713 LINE",
"192 688 LINE",
"223 685 LINE SMOOTH",
"254 682 OFFCURVE",
"268 660 OFFCURVE",
"287 615 CURVE SMOOTH",
"564 0 LINE"
);
},
{
closed = 1;
nodes = (
"100 0 LINE",
"217 -3 LINE",
"226 22 LINE",
"207 24 LINE SMOOTH",
"156 29 OFFCURVE",
"137 34 OFFCURVE",
"136 57 CURVE SMOOTH",
"136 64 OFFCURVE",
"137 71 OFFCURVE",
"140 81 CURVE SMOOTH",
"336 710 LINE",
"304 710 LINE",
"114 103 LINE SMOOTH",
"94 40 OFFCURVE",
"69 30 OFFCURVE",
"7 24 CURVE SMOOTH",
"-14 22 LINE",
"-23 -3 LINE"
);
},
{
closed = 1;
nodes = (
"594 0 LINE",
"784 607 LINE SMOOTH",
"804 673 OFFCURVE",
"829 680 OFFCURVE",
"891 686 CURVE SMOOTH",
"912 688 LINE",
"921 713 LINE",
"798 710 LINE",
"681 713 LINE",
"672 688 LINE",
"691 686 LINE SMOOTH",
"742 681 OFFCURVE",
"761 676 OFFCURVE",
"762 653 CURVE SMOOTH",
"762 645 OFFCURVE",
"761 636 OFFCURVE",
"757 624 CURVE SMOOTH",
"564 0 LINE"
);
}
);
};
layerId = "9372F035-DA38-4B54-966C-CEBA9B53DD02";
paths = (
{
closed = 1;
nodes = (
"100 0 LINE",
"217 -3 LINE",
"226 22 LINE",
"207 24 LINE SMOOTH",
"148 30 OFFCURVE",
"126 35 OFFCURVE",
"140 81 CURVE SMOOTH",
"307 620 LINE",
"285 619 LINE",
"564 0 LINE",
"594 0 LINE",
"784 607 LINE SMOOTH",
"804 673 OFFCURVE",
"829 680 OFFCURVE",
"891 686 CURVE SMOOTH",
"912 688 LINE",
"921 713 LINE",
"798 710 LINE",
"681 713 LINE",
"672 688 LINE",
"691 686 LINE SMOOTH",
"755 680 OFFCURVE",
"773 672 OFFCURVE",
"757 624 CURVE SMOOTH",
"593 92 LINE",
"615 93 LINE",
"336 710 LINE",
"318 710 LINE",
"201 713 LINE",
"192 688 LINE",
"223 685 LINE SMOOTH",
"250 682 OFFCURVE",
"264 666 OFFCURVE",
"280 632 CURVE",
"114 103 LINE SMOOTH",
"94 40 OFFCURVE",
"69 30 OFFCURVE",
"7 24 CURVE SMOOTH",
"-14 22 LINE",
"-23 -3 LINE"
);
}
);
width = 783;
},
{
anchors = (
{
name = bottom;
position = "{377, 0}";
},
{
name = top;
position = "{570, 710}";
}
);
layerId = m002;
paths = (
{
closed = 1;
nodes = (
"104 -1 LINE",
"235 -3 LINE",
"248 37 LINE",
"218 39 LINE SMOOTH",
"153 43 OFFCURVE",
"147 61 OFFCURVE",
"170 133 CURVE SMOOTH",
"333 644 LINE",
"297 558 LINE",
"545 0 LINE",
"584 0 LINE",
"768 577 LINE SMOOTH",
"791 649 OFFCURVE",
"807 667 OFFCURVE",
"865 671 CURVE SMOOTH",
"895 673 LINE",
"908 713 LINE",
"785 711 LINE",
"653 713 LINE",
"641 673 LINE",
"670 671 LINE SMOOTH",
"728 667 OFFCURVE",
"739 653 OFFCURVE",
"715 577 CURVE SMOOTH",
"584 165 LINE",
"611 236 LINE",
"399 710 LINE",
"355 710 LINE",
"189 713 LINE",
"176 673 LINE",
"190 673 LINE SMOOTH",
"219 673 OFFCURVE",
"242 660 OFFCURVE",
"268 606 CURVE",
"117 133 LINE SMOOTH",
"93 59 OFFCURVE",
"77 43 OFFCURVE",
"21 39 CURVE SMOOTH",
"-9 37 LINE",
"-22 -3 LINE"
);
}
);
width = 769;
}
);
leftKerningGroup = I;
rightKerningGroup = N;
unicode = 004E;
},
{
color = 6;
glyphname = Eng;
layers = (
{
background = {
anchors = (
{
name = bottom;
position = "{392, 0}";
},
{
name = top;
position = "{546, 710}";
}
);
paths = (
{
closed = 1;
nodes = (
"474 -294 OFFCURVE",
"503 -247 OFFCURVE",
"544 -136 CURVE SMOOTH",
"594 0 LINE",
"784 607 LINE SMOOTH",
"804 673 OFFCURVE",
"829 680 OFFCURVE",
"891 686 CURVE SMOOTH",
"912 688 LINE",
"921 713 LINE",
"798 710 LINE",
"681 713 LINE",
"672 688 LINE",
"691 686 LINE SMOOTH",
"742 681 OFFCURVE",
"761 676 OFFCURVE",
"762 653 CURVE",
"762 645 OFFCURVE",
"761 636 OFFCURVE",
"757 624 CURVE SMOOTH",
"564 0 LINE",
"516 -131 LINE SMOOTH",
"477 -237 OFFCURVE",
"446 -262 OFFCURVE",
"419 -262 CURVE SMOOTH",
"375 -262 OFFCURVE",
"398 -174 OFFCURVE",
"339 -174 CURVE SMOOTH",
"311 -174 OFFCURVE",
"290 -194 OFFCURVE",
"290 -221 CURVE SMOOTH",
"290 -257 OFFCURVE",
"319 -294 OFFCURVE",
"401 -294 CURVE SMOOTH"
);
},
{
closed = 1;
nodes = (
"100 0 LINE",
"217 -3 LINE",
"226 22 LINE",
"207 24 LINE SMOOTH",
"156 29 OFFCURVE",
"137 34 OFFCURVE",
"136 57 CURVE SMOOTH",
"136 64 OFFCURVE",
"137 71 OFFCURVE",
"140 81 CURVE SMOOTH",
"336 710 LINE",
"304 710 LINE",
"114 103 LINE SMOOTH",
"94 40 OFFCURVE",
"69 30 OFFCURVE",
"7 24 CURVE SMOOTH",
"-14 22 LINE",
"-23 -3 LINE"
);
},
{
closed = 1;
nodes = (
"614 94 LINE",
"336 710 LINE",
"308 655 LINE",
"318 710 LINE",
"201 713 LINE",
"192 688 LINE",
"223 685 LINE SMOOTH",
"254 682 OFFCURVE",
"268 660 OFFCURVE",
"287 615 CURVE SMOOTH",
"564 0 LINE"
);
}
);
};
layerId = "9372F035-DA38-4B54-966C-CEBA9B53DD02";
paths = (
{
closed = 1;
nodes = (
"484 -294 OFFCURVE",
"519 -249 OFFCURVE",
"554 -136 CURVE SMOOTH",
"783 607 LINE SMOOTH",
"803 673 OFFCURVE",
"828 680 OFFCURVE",
"890 686 CURVE SMOOTH",
"911 688 LINE",
"920 713 LINE",
"798 710 LINE",
"681 713 LINE",
"672 688 LINE",
"691 686 LINE SMOOTH",
"755 679 OFFCURVE",
"772 672 OFFCURVE",
"757 624 CURVE SMOOTH",
"602 122 LINE",
"336 710 LINE",
"318 710 LINE",
"201 713 LINE",
"192 688 LINE",
"223 685 LINE SMOOTH",
"250 682 OFFCURVE",
"264 666 OFFCURVE",
"280 632 CURVE",
"114 103 LINE SMOOTH",
"94 40 OFFCURVE",
"69 30 OFFCURVE",
"7 24 CURVE SMOOTH",
"-14 22 LINE",
"-23 -3 LINE",
"100 0 LINE",
"217 -3 LINE",
"226 22 LINE",
"207 24 LINE SMOOTH",
"148 30 OFFCURVE",
"126 35 OFFCURVE",
"140 81 CURVE SMOOTH",
"298 590 LINE",
"564 0 LINE",
"524 -131 LINE SMOOTH",
"493 -239 OFFCURVE",
"455 -262 OFFCURVE",
"429 -262 CURVE SMOOTH",
"385 -262 OFFCURVE",
"408 -174 OFFCURVE",
"349 -174 CURVE SMOOTH",
"321 -174 OFFCURVE",
"300 -194 OFFCURVE",
"300 -221 CURVE SMOOTH",
"300 -257 OFFCURVE",
"329 -294 OFFCURVE",
"411 -294 CURVE SMOOTH"
);
}
);
width = 782;
},
{
background = {
anchors = (
{
name = bottom;
position = "{401, 0}";
},
{
name = top;
position = "{555, 710}";
}
);
paths = (
{
closed = 1;
nodes = (
"483 -294 OFFCURVE",
"512 -247 OFFCURVE",
"553 -136 CURVE SMOOTH",
"603 0 LINE",
"793 607 LINE SMOOTH",
"813 673 OFFCURVE",
"838 680 OFFCURVE",
"900 686 CURVE SMOOTH",
"921 688 LINE",
"930 713 LINE",
"807 710 LINE",
"690 713 LINE",
"681 688 LINE",
"700 686 LINE SMOOTH",
"751 681 OFFCURVE",
"770 676 OFFCURVE",
"771 653 CURVE",
"771 645 OFFCURVE",
"770 636 OFFCURVE",
"766 624 CURVE SMOOTH",
"573 0 LINE",
"525 -131 LINE SMOOTH",
"486 -237 OFFCURVE",
"455 -262 OFFCURVE",
"428 -262 CURVE SMOOTH",
"384 -262 OFFCURVE",
"407 -174 OFFCURVE",
"348 -174 CURVE SMOOTH",
"320 -174 OFFCURVE",
"299 -194 OFFCURVE",
"299 -221 CURVE SMOOTH",
"299 -257 OFFCURVE",
"328 -294 OFFCURVE",
"410 -294 CURVE SMOOTH"
);
},
{
closed = 1;
nodes = (
"109 0 LINE",
"226 -3 LINE",
"235 22 LINE",
"216 24 LINE SMOOTH",
"165 29 OFFCURVE",
"146 34 OFFCURVE",
"145 57 CURVE SMOOTH",
"145 64 OFFCURVE",
"146 71 OFFCURVE",
"149 81 CURVE SMOOTH",
"345 710 LINE",
"313 710 LINE",
"123 103 LINE SMOOTH",
"103 40 OFFCURVE",
"78 30 OFFCURVE",
"16 24 CURVE SMOOTH",
"-5 22 LINE",
"-14 -3 LINE"
);
},
{
closed = 1;
nodes = (
"623 94 LINE",
"345 710 LINE",
"317 655 LINE",
"327 710 LINE",
"210 713 LINE",
"201 688 LINE",
"232 685 LINE SMOOTH",
"263 682 OFFCURVE",
"277 660 OFFCURVE",
"296 615 CURVE SMOOTH",
"573 0 LINE"
);
}
);
};
layerId = m002;
paths = (
{
closed = 1;
nodes = (
"456 -294 OFFCURVE",
"504 -247 OFFCURVE",
"546 -117 CURVE SMOOTH",
"768 577 LINE SMOOTH",
"791 649 OFFCURVE",
"807 667 OFFCURVE",
"865 671 CURVE SMOOTH",
"895 673 LINE",
"908 713 LINE",
"785 711 LINE",
"653 713 LINE",
"641 673 LINE",
"670 671 LINE SMOOTH",
"728 667 OFFCURVE",
"739 653 OFFCURVE",
"715 577 CURVE SMOOTH",
"608 242 LINE",
"399 710 LINE",
"355 710 LINE",
"189 713 LINE",
"176 673 LINE",
"190 673 LINE SMOOTH",
"219 673 OFFCURVE",
"242 660 OFFCURVE",
"268 606 CURVE",
"117 133 LINE SMOOTH",
"93 59 OFFCURVE",
"77 43 OFFCURVE",
"21 39 CURVE SMOOTH",
"-9 37 LINE",
"-22 -3 LINE",
"104 -1 LINE",
"235 -3 LINE",
"248 37 LINE",
"218 39 LINE SMOOTH",
"153 43 OFFCURVE",
"147 61 OFFCURVE",
"170 133 CURVE SMOOTH",
"302 547 LINE",
"538 20 LINE",
"498 -103 LINE SMOOTH",
"469 -191 OFFCURVE",
"438 -258 OFFCURVE",
"394 -258 CURVE SMOOTH",
"338 -258 OFFCURVE",
"417 -130 OFFCURVE",
"309 -130 CURVE SMOOTH",
"255 -130 OFFCURVE",
"225 -162 OFFCURVE",
"225 -201 CURVE SMOOTH",
"225 -254 OFFCURVE",
"274 -294 OFFCURVE",
"369 -294 CURVE SMOOTH"
);
}
);
width = 769;
}
);
leftKerningGroup = I;
leftMetricsKey = N;
rightKerningGroup = N;
rightMetricsKey = N;
unicode = 014A;
},
{
color = 6;
glyphname = O;
layers = (
{
anchors = (
{
name = bottom;
position = "{352, 0}";
},
{
name = center;
position = "{429, 355}";
},
{
name = ogonek;
position = "{447, 10}";
},
{
name = top;
position = "{556, 710}";
},
{
name = topleft;
position = "{180, 710}";
}
);
background = {
anchors = (
{
name = bottom;
position = "{352, 0}";
},
{
name = center;
position = "{429, 355}";
},
{
name = ogonek;
position = "{447, 10}";
},
{
name = top;
position = "{556, 710}";
},
{
name = topleft;
position = "{180, 710}";
},
{
name = topright;
position = "{911, 710}";
}
);
paths = (
{
closed = 1;
nodes = (
"589 -14 OFFCURVE",
"787 237 OFFCURVE",
"787 469 CURVE SMOOTH",
"787 631 OFFCURVE",
"679 724 OFFCURVE",
"537 724 CURVE SMOOTH",
"280 724 OFFCURVE",
"83 471 OFFCURVE",
"83 241 CURVE SMOOTH",
"83 73 OFFCURVE",
"198 -14 OFFCURVE",
"339 -14 CURVE SMOOTH"
);
},
{
closed = 1;
nodes = (
"236 16 OFFCURVE",
"174 93 OFFCURVE",
"174 225 CURVE SMOOTH",
"174 457 OFFCURVE",
"350 695 OFFCURVE",
"533 695 CURVE SMOOTH",
"637 695 OFFCURVE",
"697 616 OFFCURVE",
"697 481 CURVE SMOOTH",
"697 251 OFFCURVE",
"524 16 OFFCURVE",
"342 16 CURVE SMOOTH"
);
}
);
};
layerId = "9372F035-DA38-4B54-966C-CEBA9B53DD02";
paths = (
{
closed = 1;
nodes = (
"585 -14 OFFCURVE",
"783 237 OFFCURVE",
"783 469 CURVE SMOOTH",
"783 631 OFFCURVE",
"675 724 OFFCURVE",
"533 724 CURVE SMOOTH",
"276 724 OFFCURVE",
"79 471 OFFCURVE",
"79 241 CURVE SMOOTH",
"79 73 OFFCURVE",
"194 -14 OFFCURVE",
"335 -14 CURVE SMOOTH"
);
},
{
closed = 1;
nodes = (
"232 16 OFFCURVE",
"170 93 OFFCURVE",
"170 225 CURVE SMOOTH",
"170 457 OFFCURVE",
"346 695 OFFCURVE",
"529 695 CURVE SMOOTH",
"633 695 OFFCURVE",
"693 616 OFFCURVE",
"693 481 CURVE SMOOTH",
"693 251 OFFCURVE",
"520 16 OFFCURVE",
"338 16 CURVE SMOOTH"
);
}
);
width = 775;
},
{
anchors = (
{
name = bottom;
position = "{361, 0}";
},
{
name = center;
position = "{445, 355}";
},
{
name = ogonek;
position = "{428, 0}";
},
{
name = top;
position = "{523, 710}";
},
{
name = topleft;
position = "{157, 710}";
}
);
background = {
paths = (
{
closed = 1;
nodes = (
"558 -11 OFFCURVE",
"808 193 OFFCURVE",
"808 462 CURVE SMOOTH",
"808 620 OFFCURVE",
"700 724 OFFCURVE",
"529 724 CURVE SMOOTH",
"327 724 OFFCURVE",
"79 519 OFFCURVE",
"79 250 CURVE SMOOTH",
"79 93 OFFCURVE",
"186 -11 OFFCURVE",
"357 -11 CURVE SMOOTH"
);
},
{
closed = 1;
nodes = (
"281 39 OFFCURVE",
"242 93 OFFCURVE",
"242 190 CURVE SMOOTH",
"242 247 OFFCURVE",
"302 674 OFFCURVE",
"517 674 CURVE SMOOTH",
"606 674 OFFCURVE",
"645 619 OFFCURVE",
"645 523 CURVE SMOOTH",
"645 464 OFFCURVE",
"584 39 OFFCURVE",
"370 39 CURVE SMOOTH"
);
}
);
};
layerId = m002;
paths = (
{
closed = 1;
nodes = (
"594 -14 OFFCURVE",
"814 206 OFFCURVE",
"814 452 CURVE SMOOTH",
"814 619 OFFCURVE",
"708 724 OFFCURVE",
"538 724 CURVE SMOOTH",
"292 724 OFFCURVE",
"73 504 OFFCURVE",
"73 258 CURVE SMOOTH",
"73 91 OFFCURVE",
"179 -14 OFFCURVE",
"348 -14 CURVE SMOOTH"
);
},
{
closed = 1;
nodes = (
"281 36 OFFCURVE",
"239 108 OFFCURVE",
"239 212 CURVE SMOOTH",
"239 397 OFFCURVE",
"374 674 OFFCURVE",
"527 674 CURVE SMOOTH",
"606 674 OFFCURVE",
"649 600 OFFCURVE",
"649 496 CURVE SMOOTH",
"649 312 OFFCURVE",
"514 36 OFFCURVE",
"360 36 CURVE SMOOTH"
);
}
);
width = 800;
}
);
leftKerningGroup = O;
rightKerningGroup = O;
unicode = 004F;
},
{
color = 6;
glyphname = OE;
layers = (
{
background = {
paths = (
{
closed = 1;
nodes = (
"946 0 LINE",
"970 74 LINE",
"1020 210 LINE",
"994 210 LINE",
"942 90 OFFCURVE",
"893 26 OFFCURVE",
"777 25 CURVE SMOOTH",
"639 24 LINE SMOOTH",
"582 23 OFFCURVE",
"555 40 OFFCURVE",
"555 81 CURVE SMOOTH",
"555 104 OFFCURVE",
"563 134 OFFCURVE",
"578 173 CURVE",
"413 0 LINE"
);
},
{
closed = 1;
nodes = (
"835 226 LINE",
"884 371 LINE",
"935 508 LINE",
"909 508 LINE",
"866 399 OFFCURVE",
"839 388 OFFCURVE",
"796 388 CURVE SMOOTH",
"623 388 LINE",
"614 362 LINE",
"787 362 LINE SMOOTH",
"813 361 OFFCURVE",
"830 348 OFFCURVE",
"830 315 CURVE SMOOTH",
"830 294 OFFCURVE",
"823 265 OFFCURVE",
"809 226 CURVE"
);
},
{
closed = 1;
nodes = (
"1065 527 LINE",
"1066 650 LINE",
"1068 710 LINE",
"614 710 LINE",
"644 685 LINE",
"915 686 LINE SMOOTH",
"1011 686 OFFCURVE",
"1039 616 OFFCURVE",
"1039 527 CURVE"
);
},
{
closed = 1;
nodes = (
"515 0 LINE",
"773 710 LINE",
"693 710 LINE",
"435 0 LINE"
);
}
);
};
layerId = "9372F035-DA38-4B54-966C-CEBA9B53DD02";
paths = (
{
closed = 1;
nodes = (
"348 -14 OFFCURVE",
"381 -9 OFFCURVE",
"414 0 CURVE",
"950 0 LINE",
"972 74 LINE",
"1017 210 LINE",
"991 210 LINE",
"943 90 OFFCURVE",
"896 26 OFFCURVE",
"781 25 CURVE SMOOTH",
"643 24 LINE SMOOTH",
"546 23 OFFCURVE",
"538 73 OFFCURVE",
"568 165 CURVE SMOOTH",
"739 685 LINE",
"890 685 LINE SMOOTH",
"986 685 OFFCURVE",
"1017 616 OFFCURVE",
"1020 527 CURVE",
"1046 527 LINE",
"1043 710 LINE",
"638 710 LINE",
"593 717 OFFCURVE",
"567 720 OFFCURVE",
"539 720 CURVE SMOOTH",
"276 720 OFFCURVE",
"73 459 OFFCURVE",
"73 215 CURVE SMOOTH",
"73 60 OFFCURVE",
"181 -14 OFFCURVE",
"315 -14 CURVE SMOOTH"
);
},
{
closed = 1;
nodes = (
"217 16 OFFCURVE",
"158 87 OFFCURVE",
"158 210 CURVE SMOOTH",
"158 445 OFFCURVE",
"347 691 OFFCURVE",
"543 691 CURVE SMOOTH",
"613 691 OFFCURVE",
"655 674 OFFCURVE",
"636 617 CURVE SMOOTH",
"465 90 LINE SMOOTH",
"445 29 OFFCURVE",
"373 16 OFFCURVE",
"319 16 CURVE SMOOTH"
);
},
{
closed = 1;
nodes = (
"827 226 LINE",
"868 371 LINE",
"917 508 LINE",
"891 508 LINE",
"851 399 OFFCURVE",
"825 388 OFFCURVE",
"782 388 CURVE SMOOTH",
"609 388 LINE",
"601 362 LINE",
"774 362 LINE SMOOTH",
"839 362 OFFCURVE",
"818 278 OFFCURVE",
"801 226 CURVE"
);
}
);
width = 1043;
},
{
background = {
paths = (
{
closed = 1;
nodes = (
"583 -14 OFFCURVE",
"803 206 OFFCURVE",
"803 452 CURVE SMOOTH",
"803 619 OFFCURVE",
"697 724 OFFCURVE",
"527 724 CURVE SMOOTH",
"281 724 OFFCURVE",
"62 504 OFFCURVE",
"62 258 CURVE SMOOTH",
"62 91 OFFCURVE",
"168 -14 OFFCURVE",
"337 -14 CURVE SMOOTH"
);
},
{
closed = 1;
nodes = (
"270 36 OFFCURVE",
"228 108 OFFCURVE",
"228 212 CURVE SMOOTH",
"228 397 OFFCURVE",
"363 674 OFFCURVE",
"516 674 CURVE SMOOTH",
"595 674 OFFCURVE",
"638 600 OFFCURVE",
"638 496 CURVE SMOOTH",
"638 312 OFFCURVE",
"503 36 OFFCURVE",
"349 36 CURVE SMOOTH"
);
}
);
};
layerId = m002;
paths = (
{
closed = 1;
nodes = (
"383 -14 OFFCURVE",
"417 -10 OFFCURVE",
"451 -1 CURVE",
"999 0 LINE",
"1025 85 LINE",
"1072 230 LINE",
"1032 230 LINE",
"973 89 OFFCURVE",
"901 44 OFFCURVE",
"784 44 CURVE SMOOTH",
"726 44 LINE SMOOTH",
"649 44 OFFCURVE",
"625 60 OFFCURVE",
"648 133 CURVE SMOOTH",
"818 666 LINE",
"890 666 LINE SMOOTH",
"1006 666 OFFCURVE",
"1061 615 OFFCURVE",
"1061 508 CURVE",
"1105 508 LINE",
"1105 710 LINE",
"661 710 LINE",
"603 720 OFFCURVE",
"572 724 OFFCURVE",
"538 724 CURVE SMOOTH",
"292 724 OFFCURVE",
"73 504 OFFCURVE",
"73 258 CURVE SMOOTH",
"73 91 OFFCURVE",
"179 -14 OFFCURVE",
"348 -14 CURVE SMOOTH"
);
},
{
closed = 1;
nodes = (
"281 36 OFFCURVE",
"239 108 OFFCURVE",
"239 212 CURVE SMOOTH",
"239 397 OFFCURVE",
"374 674 OFFCURVE",
"527 674 CURVE SMOOTH",
"610 674 OFFCURVE",
"652 630 OFFCURVE",
"623 539 CURVE SMOOTH",
"501 153 LINE SMOOTH",
"473 63 OFFCURVE",
"421 36 OFFCURVE",
"360 36 CURVE SMOOTH"
);
},
{
closed = 1;
nodes = (
"875 226 LINE",
"918 374 LINE",
"966 508 LINE",
"927 508 LINE",
"888 416 OFFCURVE",
"842 396 OFFCURVE",
"775 396 CURVE SMOOTH",
"687 396 LINE",
"673 352 LINE",
"761 352 LINE SMOOTH",
"835 352 OFFCURVE",
"862 317 OFFCURVE",
"835 226 CURVE"
);
}
);
width = 1101;
}
);
leftKerningGroup = O;
leftMetricsKey = O;
rightKerningGroup = E;
rightMetricsKey = E;
unicode = 0152;
},
{
color = 6;
glyphname = P;
layers = (
{
anchors = (
{
name = bottom;
position = "{266, 0}";
},
{
name = top;
position = "{441, 710}";
}
);
background = {
anchors = (
{
name = bottom;
position = "{266, 0}";
},
{
name = top;
position = "{441, 710}";
}
);
paths = (
{
closed = 1;
nodes = (
"119 0 LINE",
"276 -3 LINE",
"285 21 LINE",
"266 23 LINE SMOOTH",
"204 30 OFFCURVE",
"184 36 OFFCURVE",
"184 60 CURVE SMOOTH",
"184 69 OFFCURVE",
"186 82 OFFCURVE",
"191 96 CURVE SMOOTH",
"384 683 LINE",
"467 683 LINE SMOOTH",
"567 683 OFFCURVE",
"637 632 OFFCURVE",
"637 539 CURVE SMOOTH",
"637 447 OFFCURVE",
"574 333 OFFCURVE",
"369 333 CURVE SMOOTH",
"357 333 OFFCURVE",
"330 334 OFFCURVE",
"263 337 CURVE",
"254 310 LINE",
"323 304 OFFCURVE",
"353 302 OFFCURVE",
"383 302 CURVE SMOOTH",
"605 302 OFFCURVE",
"723 399 OFFCURVE",
"723 534 CURVE SMOOTH",
"723 642 OFFCURVE",
"638 713 OFFCURVE",
"461 711 CURVE SMOOTH",
"364 710 LINE",
"353 710 LINE",
"206 713 LINE",
"197 688 LINE",
"216 686 LINE SMOOTH",
"271 680 OFFCURVE",
"290 673 OFFCURVE",
"290 650 CURVE SMOOTH",
"290 644 OFFCURVE",
"289 638 OFFCURVE",
"287 630 CURVE",
"120 125 LINE SMOOTH",
"96 53 OFFCURVE",
"68 31 OFFCURVE",
"1 24 CURVE SMOOTH",
"-21 22 LINE",
"-30 -3 LINE"
);
}
);
};
layerId = "9372F035-DA38-4B54-966C-CEBA9B53DD02";
paths = (
{
closed = 1;
nodes = (
"119 0 LINE",
"276 -3 LINE",
"285 21 LINE",
"266 23 LINE SMOOTH",
"186 32 OFFCURVE",
"172 42 OFFCURVE",
"191 96 CURVE SMOOTH",
"384 683 LINE",
"467 683 LINE SMOOTH",
"567 683 OFFCURVE",
"637 632 OFFCURVE",
"637 539 CURVE SMOOTH",
"637 447 OFFCURVE",
"574 333 OFFCURVE",
"369 333 CURVE SMOOTH",
"357 333 OFFCURVE",
"330 334 OFFCURVE",
"263 337 CURVE",
"254 310 LINE",
"323 304 OFFCURVE",
"353 302 OFFCURVE",
"383 302 CURVE SMOOTH",
"605 302 OFFCURVE",
"723 399 OFFCURVE",
"723 534 CURVE SMOOTH",
"723 642 OFFCURVE",
"638 713 OFFCURVE",
"461 711 CURVE SMOOTH",
"364 710 LINE",
"353 710 LINE",
"206 713 LINE",
"197 688 LINE",
"216 686 LINE SMOOTH",
"266 681 OFFCURVE",
"299 679 OFFCURVE",
"287 630 CURVE",
"120 125 LINE SMOOTH",
"96 53 OFFCURVE",
"68 31 OFFCURVE",
"1 24 CURVE SMOOTH",
"-21 22 LINE",
"-30 -3 LINE"
);
}
);
width = 652;
},
{
anchors = (
{
name = bottom;
position = "{107, 0}";
},
{
name = top;
position = "{448, 710}";
}
);
layerId = m002;
paths = (
{
closed = 1;
nodes = (
"124 0 LINE",
"286 -3 LINE",
"299 38 LINE",
"280 40 LINE SMOOTH",
"231 45 OFFCURVE",
"219 56 OFFCURVE",
"244 133 CURVE SMOOTH",
"415 660 LINE",
"475 660 LINE SMOOTH",
"549 660 OFFCURVE",
"582 610 OFFCURVE",
"582 550 CURVE SMOOTH",
"582 454 OFFCURVE",
"513 343 OFFCURVE",
"385 343 CURVE SMOOTH",
"359 343 OFFCURVE",
"324 344 OFFCURVE",
"290 348 CURVE",
"274 299 LINE",
"315 294 OFFCURVE",
"356 293 OFFCURVE",
"387 293 CURVE SMOOTH",
"607 293 OFFCURVE",
"751 387 OFFCURVE",
"751 530 CURVE SMOOTH",
"751 627 OFFCURVE",
"675 710 OFFCURVE",
"505 710 CURVE SMOOTH",
"367 710 LINE",
"349 710 LINE",
"192 713 LINE",
"179 673 LINE",
"198 671 LINE SMOOTH",
"247 666 OFFCURVE",
"258 654 OFFCURVE",
"233 577 CURVE SMOOTH",
"89 133 LINE SMOOTH",
"65 59 OFFCURVE",
"48 45 OFFCURVE",
"-7 40 CURVE SMOOTH",
"-28 38 LINE",
"-41 -3 LINE"
);
}
);
width = 672;
}
);
leftKerningGroup = I;
leftMetricsKey = I;
rightKerningGroup = D;
unicode = 0050;
},
{
color = 6;
glyphname = Thorn;
layers = (
{
background = {
paths = (
{
closed = 1;
nodes = (
"336 543 LINE",
"419 543 LINE SMOOTH",
"519 543 OFFCURVE",
"589 492 OFFCURVE",
"589 399 CURVE SMOOTH",
"589 307 OFFCURVE",
"526 193 OFFCURVE",
"321 193 CURVE SMOOTH",
"309 193 OFFCURVE",
"282 194 OFFCURVE",
"215 197 CURVE",
"206 170 LINE",
"275 164 OFFCURVE",
"305 162 OFFCURVE",
"335 162 CURVE SMOOTH",
"557 162 OFFCURVE",
"675 259 OFFCURVE",
"675 394 CURVE SMOOTH",
"675 502 OFFCURVE",
"590 573 OFFCURVE",
"413 571 CURVE SMOOTH",
"316 570 LINE"
);
}
);
};
layerId = "9372F035-DA38-4B54-966C-CEBA9B53DD02";
paths = (
{
closed = 1;
nodes = (
"119 0 LINE",
"268 -3 LINE",
"276 22 LINE",
"257 24 LINE SMOOTH",
"191 31 OFFCURVE",
"170 33 OFFCURVE",
"191 96 CURVE SMOOTH",
"347 573 LINE SMOOTH",
"376 661 OFFCURVE",
"400 679 OFFCURVE",
"473 686 CURVE SMOOTH",
"494 688 LINE",
"502 713 LINE",
"353 710 LINE",
"204 713 LINE",
"196 688 LINE",
"215 686 LINE SMOOTH",
"278 679 OFFCURVE",
"299 671 OFFCURVE",
"284 624 CURVE SMOOTH",
"124 136 LINE SMOOTH",
"96 51 OFFCURVE",
"72 31 OFFCURVE",
"-1 24 CURVE SMOOTH",
"-22 22 LINE",
"-30 -3 LINE"
);
},
{
closed = 1;
nodes = (
"534 158 OFFCURVE",
"657 255 OFFCURVE",
"664 390 CURVE SMOOTH",
"670 498 OFFCURVE",
"589 569 OFFCURVE",
"412 567 CURVE SMOOTH",
"315 566 LINE",
"333 539 LINE",
"416 539 LINE SMOOTH",
"516 539 OFFCURVE",
"584 488 OFFCURVE",
"579 395 CURVE SMOOTH",
"574 303 OFFCURVE",
"505 189 OFFCURVE",
"300 189 CURVE SMOOTH",
"288 189 OFFCURVE",
"261 190 OFFCURVE",
"194 193 CURVE",
"184 166 LINE",
"252 160 OFFCURVE",
"282 158 OFFCURVE",
"312 158 CURVE SMOOTH"
);
}
);
width = 637;
},
{
background = {
paths = (
{
closed = 1;
nodes = (
"126 0 LINE",
"283 -3 LINE",
"292 21 LINE",
"273 23 LINE SMOOTH",
"213 29 OFFCURVE",
"193 36 OFFCURVE",
"193 59 CURVE SMOOTH",
"193 68 OFFCURVE",
"196 80 OFFCURVE",
"201 96 CURVE SMOOTH",
"375 576 LINE SMOOTH",
"404 655 OFFCURVE",
"431 679 OFFCURVE",
"502 686 CURVE SMOOTH",
"524 688 LINE",
"533 713 LINE",
"384 710 LINE",
"227 713 LINE",
"218 689 LINE",
"237 687 LINE SMOOTH",
"297 681 OFFCURVE",
"317 674 OFFCURVE",
"317 651 CURVE SMOOTH",
"317 642 OFFCURVE",
"314 630 OFFCURVE",
"309 614 CURVE SMOOTH",
"135 134 LINE SMOOTH",
"106 53 OFFCURVE",
"79 31 OFFCURVE",
"8 24 CURVE SMOOTH",
"-14 22 LINE",
"-23 -3 LINE"
);
},
{
closed = 1;
nodes = (
"578 162 OFFCURVE",
"699 251 OFFCURVE",
"699 403 CURVE SMOOTH",
"699 506 OFFCURVE",
"614 573 OFFCURVE",
"442 571 CURVE SMOOTH",
"345 570 LINE",
"356 543 LINE",
"447 543 LINE SMOOTH",
"544 543 OFFCURVE",
"613 495 OFFCURVE",
"613 407 CURVE SMOOTH",
"613 314 OFFCURVE",
"549 193 OFFCURVE",
"336 193 CURVE SMOOTH",
"325 193 OFFCURVE",
"314 193 OFFCURVE",
"303 194 CURVE SMOOTH",
"208 199 LINE",
"195 171 LINE",
"278 165 LINE SMOOTH",
"303 163 OFFCURVE",
"327 162 OFFCURVE",
"350 162 CURVE SMOOTH"
);
}
);
};
layerId = m002;
paths = (
{
closed = 1;
nodes = (
"124 0 LINE",
"286 -3 LINE",
"299 38 LINE",
"280 40 LINE SMOOTH",
"231 45 OFFCURVE",
"219 56 OFFCURVE",
"244 133 CURVE SMOOTH",
"388 577 LINE SMOOTH",
"412 651 OFFCURVE",
"430 666 OFFCURVE",
"485 671 CURVE SMOOTH",
"506 673 LINE",
"519 713 LINE",
"355 710 LINE",
"192 713 LINE",
"179 673 LINE",
"198 671 LINE SMOOTH",
"247 666 OFFCURVE",
"258 654 OFFCURVE",
"233 577 CURVE SMOOTH",
"89 133 LINE SMOOTH",
"65 59 OFFCURVE",
"48 45 OFFCURVE",
"-7 40 CURVE SMOOTH",
"-28 38 LINE",
"-41 -3 LINE"
);
},
{
closed = 1;
nodes = (
"566 153 OFFCURVE",
"713 247 OFFCURVE",
"718 390 CURVE SMOOTH",
"721 487 OFFCURVE",
"648 570 OFFCURVE",
"478 570 CURVE SMOOTH",
"340 570 LINE",
"357 520 LINE",
"447 520 LINE SMOOTH",
"521 520 OFFCURVE",
"552 470 OFFCURVE",
"550 410 CURVE SMOOTH",
"546 314 OFFCURVE",
"473 203 OFFCURVE",
"345 203 CURVE SMOOTH",
"319 203 OFFCURVE",
"285 204 OFFCURVE",
"251 208 CURVE",
"233 159 LINE",
"274 154 OFFCURVE",
"315 153 OFFCURVE",
"346 153 CURVE SMOOTH"
);
}
);
width = 682;
}
);
leftKerningGroup = I;
leftMetricsKey = I;
rightMetricsKey = P;
unicode = 00DE;
},
{
color = 3;
glyphname = Q;
layers = (
{
anchors = (
{
name = bottom;
position = "{311, 0}";
},
{
name = top;
position = "{544, 710}";
}
);
background = {
anchors = (
{
name = bottom;
position = "{311, 0}";
},
{
name = center;
position = "{435, 355}";
},
{
name = ogonek;
position = "{465, 10}";
},
{
name = top;
position = "{544, 710}";
},
{
name = topleft;
position = "{173, 710}";
},
{
name = topright;
position = "{904, 710}";
}
);
components = (
{
name = O;
}
);
paths = (
{
closed = 1;
nodes = (
"612 -294 OFFCURVE",
"652 -239 OFFCURVE",
"670 -138 CURVE",
"650 -136 LINE",
"635 -206 OFFCURVE",
"588 -232 OFFCURVE",
"547 -232 CURVE SMOOTH",
"491 -232 OFFCURVE",
"442 -187 OFFCURVE",
"411 -154 CURVE SMOOTH",
"353 -96 OFFCURVE",
"273 -54 OFFCURVE",
"172 -59 CURVE",
"176 -68 LINE",
"194 -58 OFFCURVE",
"211 -54 OFFCURVE",
"229 -48 CURVE SMOOTH",
"374 0 LINE",
"326 3 LINE",
"109 -68 LINE",
"161 -61 LINE",
"138 -57 OFFCURVE",
"113 -55 OFFCURVE",
"93 -55 CURVE SMOOTH",
"26 -55 OFFCURVE",
"-21 -76 OFFCURVE",
"-21 -117 CURVE SMOOTH",
"-21 -140 OFFCURVE",
"-7 -150 OFFCURVE",
"13 -150 CURVE SMOOTH",
"33 -150 OFFCURVE",
"52 -139 OFFCURVE",
"71 -124 CURVE SMOOTH",
"90 -107 OFFCURVE",
"111 -95 OFFCURVE",
"137 -83 CURVE",
"101 -96 LINE",
"112 -92 OFFCURVE",
"132 -92 OFFCURVE",
"151 -92 CURVE SMOOTH",
"206 -92 OFFCURVE",
"274 -118 OFFCURVE",
"330 -174 CURVE SMOOTH",
"390 -237 OFFCURVE",
"440 -294 OFFCURVE",
"537 -294 CURVE SMOOTH"
);
}
);
};
components = (
{
name = O;
}
);
layerId = "9372F035-DA38-4B54-966C-CEBA9B53DD02";
paths = (
{
closed = 1;
nodes = (
"612 -294 OFFCURVE",
"650 -245 OFFCURVE",
"670 -138 CURVE",
"650 -136 LINE",
"635 -206 OFFCURVE",
"589 -232 OFFCURVE",
"546 -232 CURVE SMOOTH",
"444 -232 OFFCURVE",
"384 -69 OFFCURVE",
"190 -69 CURVE",
"173 -80 LINE",
"194 -70 OFFCURVE",
"308 -17 OFFCURVE",
"383 -11 CURVE",
"316 3 LINE",
"99 -78 LINE",
"157 -66 LINE",
"71 -66 OFFCURVE",
"-21 -69 OFFCURVE",
"-21 -131 CURVE SMOOTH",
"-21 -155 OFFCURVE",
"-6 -165 OFFCURVE",
"13 -165 CURVE SMOOTH",
"36 -165 OFFCURVE",
"56 -151 OFFCURVE",
"72 -138 CURVE SMOOTH",
"92 -122 OFFCURVE",
"109 -106 OFFCURVE",
"147 -93 CURVE",
"105 -104 LINE",
"129 -100 OFFCURVE",
"134 -99 OFFCURVE",
"148 -99 CURVE SMOOTH",
"332 -99 OFFCURVE",
"379 -294 OFFCURVE",
"532 -294 CURVE SMOOTH"
);
}
);
width = 775;
},
{
anchors = (
{
name = bottom;
position = "{330, 0}";
},
{
name = top;
position = "{790, 710}";
}
);
background = {
paths = (
{
closed = 1;
nodes = (
"590 -294 OFFCURVE",
"660 -233 OFFCURVE",
"690 -104 CURVE",
"650 -104 LINE",
"640 -148 OFFCURVE",
"601 -161 OFFCURVE",
"571 -161 CURVE SMOOTH",
"499 -161 OFFCURVE",
"454 -138 OFFCURVE",
"405 -111 CURVE SMOOTH",
"360 -86 OFFCURVE",
"284 -66 OFFCURVE",
"214 -68 CURVE",
"208 -79 LINE",
"235 -68 OFFCURVE",
"246 -64 OFFCURVE",
"283 -49 CURVE SMOOTH",
"424 8 LINE",
"335 6 LINE",
"93 -90 LINE",
"181 -68 LINE",
"39 -68 OFFCURVE",
"-55 -107 OFFCURVE",
"-55 -172 CURVE SMOOTH",
"-55 -189 OFFCURVE",
"-44 -199 OFFCURVE",
"-20 -199 CURVE SMOOTH",
"9 -199 OFFCURVE",
"40 -179 OFFCURVE",
"80 -153 CURVE SMOOTH",
"115 -130 OFFCURVE",
"154 -105 OFFCURVE",
"197 -88 CURVE",
"114 -101 LINE",
"194 -92 OFFCURVE",
"240 -137 OFFCURVE",
"290 -187 CURVE SMOOTH",
"342 -239 OFFCURVE",
"392 -294 OFFCURVE",
"486 -294 CURVE SMOOTH"
);
}
);
};
components = (
{
name = O;
}
);
layerId = m002;
paths = (
{
closed = 1;
nodes = (
"594 -294 OFFCURVE",
"661 -233 OFFCURVE",
"690 -104 CURVE",
"650 -104 LINE",
"638 -151 OFFCURVE",
"601 -161 OFFCURVE",
"565 -161 CURVE SMOOTH",
"454 -161 OFFCURVE",
"406 -68 OFFCURVE",
"222 -68 CURVE",
"208 -79 LINE",
"284 -48 OFFCURVE",
"324 -29 OFFCURVE",
"433 -5 CURVE",
"335 6 LINE",
"93 -90 LINE",
"181 -68 LINE",
"39 -68 OFFCURVE",
"-55 -108 OFFCURVE",
"-55 -168 CURVE SMOOTH",
"-55 -189 OFFCURVE",
"-44 -199 OFFCURVE",
"-21 -199 CURVE SMOOTH",
"8 -199 OFFCURVE",
"34 -183 OFFCURVE",
"80 -153 CURVE SMOOTH",
"115 -130 OFFCURVE",
"154 -105 OFFCURVE",
"197 -88 CURVE",
"114 -101 LINE",
"122 -100 OFFCURVE",
"129 -100 OFFCURVE",
"136 -100 CURVE SMOOTH",
"276 -100 OFFCURVE",
"326 -294 OFFCURVE",
"498 -294 CURVE SMOOTH"
);
}
);
width = 800;
}
);
leftKerningGroup = O;
leftMetricsKey = O;
widthMetricsKey = O;
rightKerningGroup = O;
unicode = 0051;
},
{
color = 6;
glyphname = R;
layers = (
{
anchors = (
{
name = bottom;
position = "{385, 0}";
},
{
name = top;
position = "{443, 710}";
}
);
background = {
paths = (
{
closed = 1;
nodes = (
"625 -14 OFFCURVE",
"664 -1 OFFCURVE",
"695 36 CURVE",
"676 53 LINE",
"663 38 OFFCURVE",
"645 22 OFFCURVE",
"617 22 CURVE SMOOTH",
"573 22 OFFCURVE",
"564 55 OFFCURVE",
"559 127 CURVE SMOOTH",
"554 205 LINE SMOOTH",
"547 307 OFFCURVE",
"476 362 OFFCURVE",
"358 362 CURVE",
"346 359 LINE",
"422 360 LINE SMOOTH",
"566 360 OFFCURVE",
"680 412 OFFCURVE",
"680 550 CURVE SMOOTH",
"680 650 OFFCURVE",
"603 713 OFFCURVE",
"437 711 CURVE SMOOTH",
"360 710 LINE",
"349 710 LINE",
"202 713 LINE",
"194 688 LINE",
"213 686 LINE SMOOTH",
"261 681 OFFCURVE",
"297 676 OFFCURVE",
"283 632 CURVE SMOOTH",
"115 120 LINE SMOOTH",
"87 36 OFFCURVE",
"68 30 OFFCURVE",
"0 24 CURVE SMOOTH",
"-21 22 LINE",
"-29 -3 LINE",
"116 0 LINE",
"253 -3 LINE",
"261 22 LINE",
"242 24 LINE SMOOTH",
"173 31 OFFCURVE",
"170 42 OFFCURVE",
"185 87 CURVE SMOOTH",
"380 683 LINE",
"437 683 LINE SMOOTH",
"560 683 OFFCURVE",
"594 619 OFFCURVE",
"594 558 CURVE SMOOTH",
"594 454 OFFCURVE",
"521 381 OFFCURVE",
"399 382 CURVE SMOOTH",
"262 383 LINE",
"255 360 LINE",
"384 360 OFFCURVE",
"460 299 OFFCURVE",
"462 205 CURVE SMOOTH",
"463 154 LINE SMOOTH",
"465 48 OFFCURVE",
"518 -14 OFFCURVE",
"587 -14 CURVE SMOOTH"
);
}
);
};
layerId = "9372F035-DA38-4B54-966C-CEBA9B53DD02";
paths = (
{
closed = 1;
nodes = (
"625 -14 OFFCURVE",
"664 -1 OFFCURVE",
"695 36 CURVE",
"676 53 LINE",
"663 38 OFFCURVE",
"645 22 OFFCURVE",
"617 22 CURVE SMOOTH",
"573 22 OFFCURVE",
"564 55 OFFCURVE",
"559 127 CURVE SMOOTH",
"554 205 LINE SMOOTH",
"547 307 OFFCURVE",
"476 362 OFFCURVE",
"358 362 CURVE",
"346 359 LINE",
"422 360 LINE SMOOTH",
"566 362 OFFCURVE",
"680 412 OFFCURVE",
"680 550 CURVE SMOOTH",
"680 650 OFFCURVE",
"603 713 OFFCURVE",
"437 711 CURVE SMOOTH",
"360 710 LINE",
"349 710 LINE",
"202 713 LINE",
"194 688 LINE",
"213 686 LINE SMOOTH",
"261 681 OFFCURVE",
"297 676 OFFCURVE",
"283 632 CURVE SMOOTH",
"115 120 LINE SMOOTH",
"87 36 OFFCURVE",
"68 30 OFFCURVE",
"0 24 CURVE SMOOTH",
"-21 22 LINE",
"-29 -3 LINE",
"116 0 LINE",
"253 -3 LINE",
"261 22 LINE",
"242 24 LINE SMOOTH",
"173 31 OFFCURVE",
"170 42 OFFCURVE",
"185 87 CURVE SMOOTH",
"380 683 LINE",
"437 683 LINE SMOOTH",
"560 683 OFFCURVE",
"594 619 OFFCURVE",
"594 558 CURVE SMOOTH",
"594 454 OFFCURVE",
"521 381 OFFCURVE",
"399 382 CURVE SMOOTH",
"262 383 LINE",
"255 360 LINE",
"261 360 LINE SMOOTH",
"386 360 OFFCURVE",
"460 296 OFFCURVE",
"462 205 CURVE SMOOTH",
"463 154 LINE SMOOTH",
"465 48 OFFCURVE",
"518 -14 OFFCURVE",
"587 -14 CURVE SMOOTH"
);
}
);
width = 730;
},
{
anchors = (
{
name = bottom;
position = "{361, 0}";
},
{
name = top;
position = "{504, 710}";
}
);
background = {
paths = (
{
closed = 0;
nodes = (
"185 336 LINE",
"234 336 LINE SMOOTH",
"386 336 OFFCURVE",
"410 221 OFFCURVE",
"423 119 CURVE SMOOTH",
"433 45 OFFCURVE",
"482 -11 OFFCURVE",
"587 -11 CURVE SMOOTH",
"624 -11 OFFCURVE",
"664 1 OFFCURVE",
"685 12 CURVE",
"678 37 LINE",
"667 31 OFFCURVE",
"653 25 OFFCURVE",
"638 25 CURVE SMOOTH",
"612 25 OFFCURVE",
"590 59 OFFCURVE",
"572 179 CURVE SMOOTH",
"553 303 OFFCURVE",
"464 364 OFFCURVE",
"334 364 CURVE"
);
}
);
};
layerId = m002;
paths = (
{
closed = 1;
nodes = (
"624 -13 OFFCURVE",
"677 12 OFFCURVE",
"708 43 CURVE",
"689 71 LINE",
"678 63 OFFCURVE",
"667 59 OFFCURVE",
"659 59 CURVE SMOOTH",
"635 59 OFFCURVE",
"621 90 OFFCURVE",
"621 159 CURVE SMOOTH",
"621 180 LINE SMOOTH",
"621 309 OFFCURVE",
"562 370 OFFCURVE",
"374 370 CURVE",
"405 357 LINE",
"422 357 LINE SMOOTH",
"611 357 OFFCURVE",
"745 432 OFFCURVE",
"745 550 CURVE SMOOTH",
"745 634 OFFCURVE",
"676 710 OFFCURVE",
"505 710 CURVE SMOOTH",
"373 710 LINE",
"349 710 LINE",
"192 713 LINE",
"179 673 LINE",
"198 671 LINE SMOOTH",
"247 666 OFFCURVE",
"258 654 OFFCURVE",
"233 577 CURVE SMOOTH",
"89 133 LINE SMOOTH",
"65 59 OFFCURVE",
"48 45 OFFCURVE",
"-7 40 CURVE SMOOTH",
"-28 38 LINE",
"-41 -3 LINE",
"124 0 LINE",
"286 -3 LINE",
"299 38 LINE",
"280 40 LINE SMOOTH",
"231 45 OFFCURVE",
"219 56 OFFCURVE",
"244 133 CURVE SMOOTH",
"417 660 LINE",
"485 660 LINE SMOOTH",
"552 660 OFFCURVE",
"576 622 OFFCURVE",
"576 564 CURVE SMOOTH",
"576 485 OFFCURVE",
"511 393 OFFCURVE",
"403 393 CURVE SMOOTH",
"297 393 LINE",
"283 343 LINE",
"302 343 LINE SMOOTH",
"402 343 OFFCURVE",
"451 295 OFFCURVE",
"451 172 CURVE SMOOTH",
"451 154 LINE SMOOTH",
"451 29 OFFCURVE",
"510 -13 OFFCURVE",
"575 -13 CURVE SMOOTH"
);
}
);
width = 739;
}
);
leftKerningGroup = I;
leftMetricsKey = I;
rightKerningGroup = R;
unicode = 0052;
},
{
color = 6;
glyphname = S;
layers = (
{
anchors = (
{
name = bottom;
position = "{295, 0}";
},
{
name = top;
position = "{408, 710}";
}
);
background = {
paths = (
{
closed = 1;
nodes = (
"421 -11 OFFCURVE",
"509 77 OFFCURVE",
"509 187 CURVE SMOOTH",
"509 249 OFFCURVE",
"470 306 OFFCURVE",
"402 373 CURVE SMOOTH",
"357 417 LINE SMOOTH",
"309 464 OFFCURVE",
"265 499 OFFCURVE",
"265 567 CURVE SMOOTH",
"265 643 OFFCURVE",
"326 692 OFFCURVE",
"395 692 CURVE SMOOTH",
"507 692 OFFCURVE",
"544 598 OFFCURVE",
"544 501 CURVE SMOOTH",
"544 471 LINE",
"570 470 LINE",
"587 581 LINE",
"614 693 LINE",
"587 694 LINE",
"579 664 OFFCURVE",
"570 653 OFFCURVE",
"560 653 CURVE SMOOTH",
"536 653 OFFCURVE",
"490 720 OFFCURVE",
"384 720 CURVE SMOOTH",
"264 720 OFFCURVE",
"181 650 OFFCURVE",
"181 549 CURVE SMOOTH",
"181 466 OFFCURVE",
"246 414 OFFCURVE",
"294 369 CURVE SMOOTH",
"340 325 LINE SMOOTH",
"398 270 OFFCURVE",
"426 228 OFFCURVE",
"426 154 CURVE SMOOTH",
"426 78 OFFCURVE",
"369 17 OFFCURVE",
"281 17 CURVE SMOOTH",
"137 17 OFFCURVE",
"110 155 OFFCURVE",
"124 269 CURVE",
"97 271 LINE",
"66 149 LINE",
"22 19 LINE",
"48 4 LINE",
"59 28 OFFCURVE",
"72 56 OFFCURVE",
"92 56 CURVE SMOOTH",
"126 56 OFFCURVE",
"169 -11 OFFCURVE",
"293 -11 CURVE SMOOTH"
);
}
);
};
layerId = "9372F035-DA38-4B54-966C-CEBA9B53DD02";
paths = (
{
closed = 1;
nodes = (
"427 -11 OFFCURVE",
"509 82 OFFCURVE",
"509 183 CURVE SMOOTH",
"509 270 OFFCURVE",
"447 331 OFFCURVE",
"386 388 CURVE SMOOTH",
"355 417 LINE SMOOTH",
"306 463 OFFCURVE",
"265 509 OFFCURVE",
"265 568 CURVE SMOOTH",
"265 635 OFFCURVE",
"317 692 OFFCURVE",
"399 692 CURVE SMOOTH",
"504 692 OFFCURVE",
"544 599 OFFCURVE",
"544 501 CURVE SMOOTH",
"544 471 LINE",
"570 470 LINE",
"587 581 LINE",
"614 694 LINE",
"587 694 LINE",
"579 664 OFFCURVE",
"570 653 OFFCURVE",
"560 653 CURVE SMOOTH",
"535 653 OFFCURVE",
"493 720 OFFCURVE",
"381 720 CURVE SMOOTH",
"266 720 OFFCURVE",
"181 649 OFFCURVE",
"181 553 CURVE SMOOTH",
"181 473 OFFCURVE",
"242 419 OFFCURVE",
"301 363 CURVE SMOOTH",
"333 333 LINE SMOOTH",
"384 285 OFFCURVE",
"426 232 OFFCURVE",
"426 159 CURVE SMOOTH",
"426 75 OFFCURVE",
"369 17 OFFCURVE",
"278 17 CURVE SMOOTH",
"137 17 OFFCURVE",
"110 158 OFFCURVE",
"124 269 CURVE",
"98 269 LINE",
"66 149 LINE",
"19 0 LINE",
"46 0 LINE",
"60 35 OFFCURVE",
"72 54 OFFCURVE",
"91 54 CURVE SMOOTH",
"126 54 OFFCURVE",
"173 -11 OFFCURVE",
"289 -11 CURVE SMOOTH"
);
}
);
width = 594;
},
{
anchors = (
{
name = bottom;
position = "{295, 0}";
},
{
name = top;
position = "{443, 710}";
}
);
background = {
paths = (
{
closed = 1;
nodes = (
"440 -11 OFFCURVE",
"537 79 OFFCURVE",
"537 207 CURVE SMOOTH",
"537 311 OFFCURVE",
"472 366 OFFCURVE",
"413 418 CURVE SMOOTH",
"373 453 LINE SMOOTH",
"337 484 OFFCURVE",
"311 519 OFFCURVE",
"311 566 CURVE SMOOTH",
"311 628 OFFCURVE",
"359 668 OFFCURVE",
"421 668 CURVE SMOOTH",
"502 668 OFFCURVE",
"544 598 OFFCURVE",
"544 501 CURVE SMOOTH",
"544 471 LINE",
"580 470 LINE",
"605 581 LINE",
"644 710 LINE",
"605 710 LINE",
"596 685 OFFCURVE",
"584 676 OFFCURVE",
"571 676 CURVE SMOOTH",
"543 676 OFFCURVE",
"496 720 OFFCURVE",
"392 720 CURVE SMOOTH",
"257 720 OFFCURVE",
"168 630 OFFCURVE",
"168 528 CURVE SMOOTH",
"168 473 OFFCURVE",
"193 416 OFFCURVE",
"250 366 CURVE SMOOTH",
"295 326 LINE SMOOTH",
"345 281 OFFCURVE",
"394 240 OFFCURVE",
"394 165 CURVE SMOOTH",
"394 90 OFFCURVE",
"347 39 OFFCURVE",
"266 39 CURVE SMOOTH",
"157 39 OFFCURVE",
"121 154 OFFCURVE",
"131 269 CURVE",
"94 269 LINE",
"65 149 LINE",
"12 0 LINE",
"52 0 LINE",
"65 26 OFFCURVE",
"83 39 OFFCURVE",
"103 39 CURVE SMOOTH",
"141 39 OFFCURVE",
"180 -11 OFFCURVE",
"292 -11 CURVE SMOOTH"
);
}
);
};
guideLines = (
{
angle = 90;
position = "{323, 121}";
}
);
layerId = m002;
paths = (
{
closed = 1;
nodes = (
"420 -11 OFFCURVE",
"514 49 OFFCURVE",
"544 141 CURVE SMOOTH",
"576 241 OFFCURVE",
"539 322 OFFCURVE",
"443 405 CURVE SMOOTH",
"384 456 LINE SMOOTH",
"343 491 OFFCURVE",
"310 522 OFFCURVE",
"310 568 CURVE SMOOTH",
"310 628 OFFCURVE",
"361 668 OFFCURVE",
"429 668 CURVE SMOOTH",
"518 668 OFFCURVE",
"563 597 OFFCURVE",
"563 501 CURVE SMOOTH",
"563 471 LINE",
"600 470 LINE",
"625 581 LINE",
"665 710 LINE",
"626 710 LINE",
"617 686 OFFCURVE",
"605 676 OFFCURVE",
"591 676 CURVE SMOOTH",
"563 676 OFFCURVE",
"506 720 OFFCURVE",
"405 720 CURVE SMOOTH",
"285 720 OFFCURVE",
"200 658 OFFCURVE",
"175 580 CURVE SMOOTH",
"151 507 OFFCURVE",
"179 425 OFFCURVE",
"259 358 CURVE SMOOTH",
"301 323 LINE SMOOTH",
"349 283 OFFCURVE",
"411 241 OFFCURVE",
"411 163 CURVE SMOOTH",
"411 89 OFFCURVE",
"357 37 OFFCURVE",
"285 37 CURVE SMOOTH",
"204 37 OFFCURVE",
"125 102 OFFCURVE",
"125 269 CURVE",
"87 269 LINE",
"56 149 LINE",
"1 0 LINE",
"42 0 LINE",
"55 25 OFFCURVE",
"73 39 OFFCURVE",
"95 39 CURVE SMOOTH",
"137 39 OFFCURVE",
"181 -11 OFFCURVE",
"295 -11 CURVE SMOOTH"
);
}
);
width = 614;
}
);
leftKerningGroup = S;
rightKerningGroup = S;
unicode = 0053;
},
{
color = 1;
glyphname = Germandbls;
layers = (
{
background = {
paths = (
{
closed = 0;
nodes = (
"413 553 LINE SMOOTH",
"413 473 OFFCURVE",
"474 419 OFFCURVE",
"533 363 CURVE SMOOTH",
"565 333 LINE SMOOTH",
"616 285 OFFCURVE",
"658 232 OFFCURVE",
"658 159 CURVE SMOOTH",
"658 75 OFFCURVE",
"601 17 OFFCURVE",
"510 17 CURVE SMOOTH",
"369 17 OFFCURVE",
"342 158 OFFCURVE",
"356 269 CURVE",
"330 269 LINE",
"298 149 LINE",
"251 0 LINE",
"278 0 LINE",
"292 35 OFFCURVE",
"304 54 OFFCURVE",
"323 54 CURVE SMOOTH",
"358 54 OFFCURVE",
"405 -11 OFFCURVE",
"521 -11 CURVE SMOOTH",
"659 -11 OFFCURVE",
"741 82 OFFCURVE",
"741 183 CURVE SMOOTH",
"741 270 OFFCURVE",
"679 331 OFFCURVE",
"618 388 CURVE SMOOTH",
"587 417 LINE SMOOTH",
"538 463 OFFCURVE",
"497 509 OFFCURVE",
"497 568 CURVE SMOOTH"
);
}
);
};
layerId = "9372F035-DA38-4B54-966C-CEBA9B53DD02";
paths = (
{
closed = 1;
nodes = (
"766 677 LINE",
"710 705 OFFCURVE",
"649 721 OFFCURVE",
"561 721 CURVE SMOOTH",
"380 721 OFFCURVE",
"267 654 OFFCURVE",
"213 487 CURVE SMOOTH",
"98 133 LINE SMOOTH",
"69 44 OFFCURVE",
"56 32 OFFCURVE",
"-24 24 CURVE SMOOTH",
"-44 22 LINE",
"-52 -3 LINE",
"97 0 LINE",
"98 0 LINE",
"149 -1 LINE",
"183 133 LINE",
"298 487 LINE SMOOTH",
"345 631 OFFCURVE",
"435 692 OFFCURVE",
"554 692 CURVE SMOOTH",
"618 692 OFFCURVE",
"661 674 OFFCURVE",
"680 634 CURVE",
"713 661 LINE",
"597 632 OFFCURVE",
"489 552 OFFCURVE",
"489 453 CURVE SMOOTH",
"489 411 OFFCURVE",
"508 365 OFFCURVE",
"547 321 CURVE SMOOTH",
"578 286 LINE SMOOTH",
"617 242 OFFCURVE",
"636 195 OFFCURVE",
"636 153 CURVE SMOOTH",
"636 81 OFFCURVE",
"579 18 OFFCURVE",
"469 18 CURVE SMOOTH",
"363 18 OFFCURVE",
"329 76 OFFCURVE",
"332 150 CURVE SMOOTH",
"334 197 LINE",
"313 197 LINE",
"258 26 LINE",
"312 3 OFFCURVE",
"389 -11 OFFCURVE",
"455 -11 CURVE SMOOTH",
"612 -11 OFFCURVE",
"711 74 OFFCURVE",
"711 180 CURVE SMOOTH",
"711 226 OFFCURVE",
"693 275 OFFCURVE",
"654 323 CURVE SMOOTH",
"616 370 LINE SMOOTH",
"582 412 OFFCURVE",
"564 448 OFFCURVE",
"564 483 CURVE SMOOTH",
"564 557 OFFCURVE",
"638 617 OFFCURVE",
"759 653 CURVE"
);
}
);
width = 795;
},
{
background = {
paths = (
{
closed = 1;
nodes = (
"670 -11 OFFCURVE",
"764 49 OFFCURVE",
"794 141 CURVE SMOOTH",
"826 241 OFFCURVE",
"789 322 OFFCURVE",
"693 405 CURVE SMOOTH",
"634 456 LINE SMOOTH",
"593 491 OFFCURVE",
"560 522 OFFCURVE",
"560 568 CURVE SMOOTH",
"560 628 OFFCURVE",
"611 668 OFFCURVE",
"679 668 CURVE SMOOTH",
"768 668 OFFCURVE",
"813 597 OFFCURVE",
"813 501 CURVE SMOOTH",
"813 471 LINE",
"850 470 LINE",
"875 581 LINE",
"915 710 LINE",
"876 710 LINE",
"867 686 OFFCURVE",
"855 676 OFFCURVE",
"841 676 CURVE SMOOTH",
"813 676 OFFCURVE",
"756 720 OFFCURVE",
"655 720 CURVE SMOOTH",
"535 720 OFFCURVE",
"450 658 OFFCURVE",
"425 580 CURVE SMOOTH",
"401 507 OFFCURVE",
"429 425 OFFCURVE",
"509 358 CURVE SMOOTH",
"551 323 LINE SMOOTH",
"599 283 OFFCURVE",
"661 241 OFFCURVE",
"661 163 CURVE SMOOTH",
"661 89 OFFCURVE",
"607 37 OFFCURVE",
"535 37 CURVE SMOOTH",
"454 37 OFFCURVE",
"375 102 OFFCURVE",
"375 269 CURVE",
"337 269 LINE",
"306 149 LINE",
"251 0 LINE",
"292 0 LINE",
"305 25 OFFCURVE",
"323 39 OFFCURVE",
"345 39 CURVE SMOOTH",
"387 39 OFFCURVE",
"431 -11 OFFCURVE",
"545 -11 CURVE SMOOTH"
);
}
);
};
layerId = m002;
paths = (
{
closed = 1;
nodes = (
"782 688 LINE",
"721 705 OFFCURVE",
"652 721 OFFCURVE",
"556 721 CURVE SMOOTH",
"357 721 OFFCURVE",
"240 652 OFFCURVE",
"180 467 CURVE SMOOTH",
"72 133 LINE SMOOTH",
"49 61 OFFCURVE",
"31 45 OFFCURVE",
"-25 39 CURVE SMOOTH",
"-45 37 LINE",
"-58 -3 LINE",
"106 0 LINE",
"107 0 LINE",
"193 -3 LINE",
"225 128 LINE",
"339 477 LINE SMOOTH",
"383 612 OFFCURVE",
"443 671 OFFCURVE",
"555 671 CURVE SMOOTH",
"609 671 OFFCURVE",
"648 657 OFFCURVE",
"669 629 CURVE",
"677 643 LINE",
"565 628 OFFCURVE",
"464 533 OFFCURVE",
"464 432 CURVE SMOOTH",
"464 389 OFFCURVE",
"484 345 OFFCURVE",
"533 307 CURVE SMOOTH",
"602 253 LINE SMOOTH",
"641 223 OFFCURVE",
"657 186 OFFCURVE",
"657 152 CURVE SMOOTH",
"657 91 OFFCURVE",
"597 37 OFFCURVE",
"522 37 CURVE SMOOTH",
"450 37 OFFCURVE",
"382 90 OFFCURVE",
"377 208 CURVE SMOOTH",
"375 257 LINE",
"336 257 LINE",
"270 54 LINE",
"330 6 OFFCURVE",
"426 -11 OFFCURVE",
"502 -11 CURVE SMOOTH",
"699 -11 OFFCURVE",
"795 98 OFFCURVE",
"795 204 CURVE SMOOTH",
"795 260 OFFCURVE",
"771 315 OFFCURVE",
"724 353 CURVE SMOOTH",
"658 406 LINE SMOOTH",
"621 436 OFFCURVE",
"602 470 OFFCURVE",
"602 503 CURVE SMOOTH",
"602 564 OFFCURVE",
"657 622 OFFCURVE",
"770 647 CURVE"
);
}
);
width = 853;
}
);
leftKerningGroup = Germandbls;
rightKerningGroup = Germandbls;
rightMetricsKey = S;
unicode = 1E9E;
},
{
color = 6;
glyphname = T;
layers = (
{
anchors = (
{
name = bottom;
position = "{310, 0}";
},
{
name = center;
position = "{421, 349}";
},
{
name = top;
position = "{549, 710}";
}
);
background = {
anchors = (
{
name = bottom;
position = "{315, 0}";
},
{
name = center;
position = "{432, 355}";
},
{
name = top;
position = "{549, 710}";
}
);
paths = (
{
closed = 1;
nodes = (
"303 0 LINE",
"314 0 LINE",
"496 -3 LINE",
"504 20 LINE",
"468 23 LINE SMOOTH",
"414 27 OFFCURVE",
"381 43 OFFCURVE",
"381 82 CURVE SMOOTH",
"381 91 OFFCURVE",
"382 100 OFFCURVE",
"386 112 CURVE SMOOTH",
"582 710 LINE",
"502 710 LINE",
"302 100 LINE SMOOTH",
"283 43 OFFCURVE",
"231 31 OFFCURVE",
"164 22 CURVE SMOOTH",
"148 20 LINE",
"139 -3 LINE"
);
},
{
closed = 1;
nodes = (
"842 510 LINE",
"838 632 LINE",
"840 713 LINE",
"534 710 LINE",
"207 713 LINE",
"135 523 LINE",
"161 522 LINE",
"228 644 OFFCURVE",
"254 683 OFFCURVE",
"366 685 CURVE SMOOTH",
"494 687 LINE",
"571 688 LINE",
"697 685 LINE SMOOTH",
"776 683 OFFCURVE",
"813 606 OFFCURVE",
"817 510 CURVE"
);
}
);
};
layerId = "9372F035-DA38-4B54-966C-CEBA9B53DD02";
paths = (
{
closed = 1;
nodes = (
"309 0 LINE",
"491 -3 LINE",
"499 20 LINE",
"463 23 LINE SMOOTH",
"387 29 OFFCURVE",
"364 61 OFFCURVE",
"381 112 CURVE SMOOTH",
"574 700 LINE",
"494 700 LINE",
"297 100 LINE SMOOTH",
"278 43 OFFCURVE",
"226 30 OFFCURVE",
"159 22 CURVE SMOOTH",
"143 20 LINE",
"134 -3 LINE"
);
},
{
closed = 1;
nodes = (
"842 510 LINE",
"838 632 LINE",
"840 713 LINE",
"534 710 LINE",
"207 713 LINE",
"135 523 LINE",
"161 522 LINE",
"228 644 OFFCURVE",
"254 683 OFFCURVE",
"366 685 CURVE SMOOTH",
"496 687 LINE",
"573 688 LINE",
"699 685 LINE SMOOTH",
"778 683 OFFCURVE",
"813 606 OFFCURVE",
"817 510 CURVE"
);
}
);
width = 741;
},
{
anchors = (
{
name = bottom;
position = "{306, 0}";
},
{
name = center;
position = "{421, 349}";
},
{
name = top;
position = "{536, 710}";
}
);
layerId = m002;
paths = (
{
closed = 1;
nodes = (
"311 0 LINE",
"498 -3 LINE",
"511 38 LINE",
"472 40 LINE SMOOTH",
"422 43 OFFCURVE",
"407 60 OFFCURVE",
"430 133 CURVE SMOOTH",
"609 701 LINE",
"454 701 LINE",
"275 133 LINE SMOOTH",
"252 60 OFFCURVE",
"237 43 OFFCURVE",
"185 40 CURVE SMOOTH",
"144 38 LINE",
"131 -3 LINE"
);
},
{
closed = 1;
nodes = (
"841 490 LINE",
"838 633 LINE",
"840 713 LINE",
"542 710 LINE",
"198 713 LINE",
"112 490 LINE",
"147 485 LINE",
"230 595 OFFCURVE",
"283 661 OFFCURVE",
"383 661 CURVE SMOOTH",
"454 661 LINE",
"588 661 LINE",
"635 661 LINE SMOOTH",
"742 661 OFFCURVE",
"769 602 OFFCURVE",
"803 485 CURVE"
);
}
);
width = 741;
}
);
leftKerningGroup = T;
rightKerningGroup = T;
unicode = 0054;
},
{
color = 6;
glyphname = U;
layers = (
{
anchors = (
{
name = bottom;
position = "{346, 0}";
},
{
name = ogonek;
position = "{473, 0}";
},
{
name = top;
position = "{575, 710}";
},
{
name = topright;
position = "{888, 710}";
}
);
background = {
anchors = (
{
name = bottom;
position = "{311, 0}";
},
{
name = ogonek;
position = "{473, 0}";
},
{
name = top;
position = "{575, 710}";
},
{
name = topright;
position = "{888, 710}";
}
);
paths = (
{
closed = 1;
nodes = (
"538 -14 OFFCURVE",
"602 91 OFFCURVE",
"672 308 CURVE SMOOTH",
"769 612 LINE SMOOTH",
"789 675 OFFCURVE",
"814 680 OFFCURVE",
"878 686 CURVE SMOOTH",
"899 688 LINE",
"907 713 LINE",
"784 710 LINE",
"666 713 LINE",
"658 688 LINE",
"677 686 LINE SMOOTH",
"726 681 OFFCURVE",
"747 677 OFFCURVE",
"747 652 CURVE SMOOTH",
"747 645 OFFCURVE",
"745 636 OFFCURVE",
"742 625 CURVE SMOOTH",
"629 274 LINE SMOOTH",
"567 81 OFFCURVE",
"489 18 OFFCURVE",
"377 18 CURVE SMOOTH",
"270 18 OFFCURVE",
"221 78 OFFCURVE",
"221 168 CURVE SMOOTH",
"221 200 OFFCURVE",
"228 236 OFFCURVE",
"240 275 CURVE SMOOTH",
"335 574 LINE SMOOTH",
"363 663 OFFCURVE",
"387 679 OFFCURVE",
"460 686 CURVE SMOOTH",
"481 688 LINE",
"489 713 LINE",
"340 710 LINE",
"191 713 LINE",
"183 688 LINE",
"202 686 LINE SMOOTH",
"257 681 OFFCURVE",
"275 674 OFFCURVE",
"275 650 CURVE SMOOTH",
"275 641 OFFCURVE",
"272 629 OFFCURVE",
"268 614 CURVE SMOOTH",
"159 275 LINE SMOOTH",
"145 231 OFFCURVE",
"137 191 OFFCURVE",
"137 156 CURVE SMOOTH",
"137 51 OFFCURVE",
"202 -14 OFFCURVE",
"366 -14 CURVE SMOOTH"
);
}
);
};
layerId = "9372F035-DA38-4B54-966C-CEBA9B53DD02";
paths = (
{
closed = 1;
nodes = (
"538 -14 OFFCURVE",
"603 91 OFFCURVE",
"672 308 CURVE SMOOTH",
"769 612 LINE SMOOTH",
"789 675 OFFCURVE",
"814 680 OFFCURVE",
"878 686 CURVE SMOOTH",
"899 688 LINE",
"907 713 LINE",
"784 710 LINE",
"666 713 LINE",
"658 688 LINE",
"677 686 LINE SMOOTH",
"744 679 OFFCURVE",
"757 672 OFFCURVE",
"742 625 CURVE SMOOTH",
"629 274 LINE SMOOTH",
"567 81 OFFCURVE",
"489 18 OFFCURVE",
"377 18 CURVE SMOOTH",
"220 18 OFFCURVE",
"197 141 OFFCURVE",
"240 275 CURVE SMOOTH",
"335 574 LINE SMOOTH",
"363 663 OFFCURVE",
"387 679 OFFCURVE",
"460 686 CURVE SMOOTH",
"481 688 LINE",
"489 713 LINE",
"340 710 LINE",
"191 713 LINE",
"183 688 LINE",
"202 686 LINE SMOOTH",
"268 679 OFFCURVE",
"288 677 OFFCURVE",
"268 614 CURVE SMOOTH",
"159 275 LINE SMOOTH",
"100 91 OFFCURVE",
"157 -14 OFFCURVE",
"366 -14 CURVE SMOOTH"
);
}
);
width = 758;
},
{
anchors = (
{
name = bottom;
position = "{346, 0}";
},
{
name = ogonek;
position = "{451, 0}";
},
{
name = top;
position = "{566, 710}";
},
{
name = topright;
position = "{893, 710}";
}
);
layerId = m002;
paths = (
{
closed = 1;
nodes = (
"528 -11 OFFCURVE",
"597 78 OFFCURVE",
"661 276 CURVE SMOOTH",
"758 577 LINE SMOOTH",
"781 649 OFFCURVE",
"800 667 OFFCURVE",
"862 671 CURVE SMOOTH",
"893 673 LINE",
"906 713 LINE",
"775 711 LINE",
"642 713 LINE",
"629 673 LINE",
"658 671 LINE SMOOTH",
"716 667 OFFCURVE",
"727 652 OFFCURVE",
"703 577 CURVE SMOOTH",
"600 256 LINE SMOOTH",
"561 134 OFFCURVE",
"501 52 OFFCURVE",
"381 52 CURVE SMOOTH",
"270 52 OFFCURVE",
"232 125 OFFCURVE",
"269 241 CURVE SMOOTH",
"376 577 LINE SMOOTH",
"400 653 OFFCURVE",
"420 666 OFFCURVE",
"471 671 CURVE SMOOTH",
"491 673 LINE",
"504 713 LINE",
"342 710 LINE",
"181 713 LINE",
"168 673 LINE",
"187 671 LINE SMOOTH",
"236 666 OFFCURVE",
"245 653 OFFCURVE",
"221 577 CURVE SMOOTH",
"131 294 LINE SMOOTH",
"68 95 OFFCURVE",
"142 -11 OFFCURVE",
"343 -11 CURVE SMOOTH"
);
}
);
width = 755;
}
);
leftKerningGroup = U;
rightKerningGroup = U;
unicode = 0055;
},
{
color = 10;
glyphname = Uogonek;
layers = (
{
anchors = (
{
name = bottom;
position = "{346, 0}";
},
{
name = top;
position = "{575, 710}";
},
{
name = topright;
position = "{888, 710}";
}
);
background = {
paths = (
{
closed = 1;
nodes = (
"538 -14 OFFCURVE",
"603 91 OFFCURVE",
"672 308 CURVE SMOOTH",
"769 612 LINE SMOOTH",
"789 675 OFFCURVE",
"814 680 OFFCURVE",
"878 686 CURVE SMOOTH",
"899 688 LINE",
"907 713 LINE",
"784 710 LINE",
"666 713 LINE",
"658 688 LINE",
"677 686 LINE SMOOTH",
"744 679 OFFCURVE",
"757 672 OFFCURVE",
"742 625 CURVE SMOOTH",
"629 274 LINE SMOOTH",
"567 81 OFFCURVE",
"489 18 OFFCURVE",
"377 18 CURVE SMOOTH",
"220 18 OFFCURVE",
"197 141 OFFCURVE",
"240 275 CURVE SMOOTH",
"335 574 LINE SMOOTH",
"363 663 OFFCURVE",
"387 679 OFFCURVE",
"460 686 CURVE SMOOTH",
"481 688 LINE",
"489 713 LINE",
"340 710 LINE",
"191 713 LINE",
"183 688 LINE",
"202 686 LINE SMOOTH",
"268 679 OFFCURVE",
"288 677 OFFCURVE",
"268 614 CURVE SMOOTH",
"159 275 LINE SMOOTH",
"100 91 OFFCURVE",
"157 -14 OFFCURVE",
"366 -14 CURVE SMOOTH"
);
}
);
};
layerId = "9372F035-DA38-4B54-966C-CEBA9B53DD02";
paths = (
{
closed = 1;
nodes = (
"380 -14 LINE",
"303 -54 OFFCURVE",
"217 -137 OFFCURVE",
"217 -212 CURVE SMOOTH",
"217 -262 OFFCURVE",
"254 -294 OFFCURVE",
"311 -294 CURVE SMOOTH",
"393 -294 OFFCURVE",
"456 -229 OFFCURVE",
"473 -178 CURVE",
"454 -170 LINE",
"428 -206 OFFCURVE",
"392 -229 OFFCURVE",
"352 -229 CURVE SMOOTH",
"318 -229 OFFCURVE",
"294 -214 OFFCURVE",
"294 -175 CURVE SMOOTH",
"294 -105 OFFCURVE",
"385 -26 OFFCURVE",
"460 0 CURVE SMOOTH",
"588 43 OFFCURVE",
"632 181 OFFCURVE",
"672 308 CURVE SMOOTH",
"769 612 LINE SMOOTH",
"789 675 OFFCURVE",
"814 680 OFFCURVE",
"878 686 CURVE SMOOTH",
"899 688 LINE",
"907 713 LINE",
"784 710 LINE",
"666 713 LINE",
"658 688 LINE",
"677 686 LINE SMOOTH",
"744 679 OFFCURVE",
"757 672 OFFCURVE",
"742 625 CURVE SMOOTH",
"629 274 LINE SMOOTH",
"567 81 OFFCURVE",
"489 18 OFFCURVE",
"377 18 CURVE SMOOTH",
"220 18 OFFCURVE",
"197 141 OFFCURVE",
"240 275 CURVE SMOOTH",
"335 574 LINE SMOOTH",
"363 663 OFFCURVE",
"387 679 OFFCURVE",
"460 686 CURVE SMOOTH",
"481 688 LINE",
"489 713 LINE",
"340 710 LINE",
"191 713 LINE",
"183 688 LINE",
"202 686 LINE SMOOTH",
"268 679 OFFCURVE",
"288 677 OFFCURVE",
"268 614 CURVE SMOOTH",
"159 275 LINE SMOOTH",
"100 91 OFFCURVE",
"157 -14 OFFCURVE",
"366 -14 CURVE SMOOTH"
);
}
);
width = 758;
},
{
anchors = (
{
name = bottom;
position = "{346, 0}";
},
{
name = top;
position = "{566, 710}";
},
{
name = topright;
position = "{893, 710}";
}
);
layerId = m002;
paths = (
{
closed = 1;
nodes = (
"353 -11 LINE",
"281 -51 OFFCURVE",
"195 -128 OFFCURVE",
"195 -212 CURVE SMOOTH",
"195 -262 OFFCURVE",
"232 -294 OFFCURVE",
"289 -294 CURVE SMOOTH",
"371 -294 OFFCURVE",
"434 -229 OFFCURVE",
"451 -178 CURVE",
"432 -170 LINE",
"411 -197 OFFCURVE",
"373 -216 OFFCURVE",
"343 -216 CURVE SMOOTH",
"319 -216 OFFCURVE",
"300 -198 OFFCURVE",
"300 -169 CURVE SMOOTH",
"300 -88 OFFCURVE",
"379 -15 OFFCURVE",
"435 0 CURVE SMOOTH",
"554 32 OFFCURVE",
"616 137 OFFCURVE",
"661 276 CURVE SMOOTH",
"758 577 LINE SMOOTH",
"781 649 OFFCURVE",
"800 667 OFFCURVE",
"862 671 CURVE SMOOTH",
"893 673 LINE",
"906 713 LINE",
"775 711 LINE",
"642 713 LINE",
"629 673 LINE",
"658 671 LINE SMOOTH",
"716 667 OFFCURVE",
"727 652 OFFCURVE",
"703 577 CURVE SMOOTH",
"600 256 LINE SMOOTH",
"561 134 OFFCURVE",
"501 52 OFFCURVE",
"381 52 CURVE SMOOTH",
"270 52 OFFCURVE",
"232 125 OFFCURVE",
"269 241 CURVE SMOOTH",
"376 577 LINE SMOOTH",
"400 653 OFFCURVE",
"420 666 OFFCURVE",
"471 671 CURVE SMOOTH",
"491 673 LINE",
"504 713 LINE",
"342 710 LINE",
"181 713 LINE",
"168 673 LINE",
"187 671 LINE SMOOTH",
"236 666 OFFCURVE",
"245 653 OFFCURVE",
"221 577 CURVE SMOOTH",
"131 294 LINE SMOOTH",
"68 95 OFFCURVE",
"142 -11 OFFCURVE",
"343 -11 CURVE SMOOTH"
);
}
);
width = 755;
}
);
leftKerningGroup = U;
rightKerningGroup = U;
unicode = 0172;
},
{
color = 6;
glyphname = V;
layers = (
{
anchors = (
{
name = bottom;
position = "{311, 0}";
},
{
name = top;
position = "{539, 710}";
}
);
background = {
anchors = (
{
name = bottom;
position = "{311, 0}";
},
{
name = top;
position = "{539, 710}";
}
);
paths = (
{
closed = 1;
nodes = (
"313 -8 LINE",
"721 598 LINE SMOOTH",
"756 651 OFFCURVE",
"768 679 OFFCURVE",
"839 686 CURVE SMOOTH",
"860 688 LINE",
"868 713 LINE",
"746 710 LINE",
"627 713 LINE",
"619 688 LINE",
"638 686 LINE SMOOTH",
"685 681 OFFCURVE",
"709 670 OFFCURVE",
"709 648 CURVE SMOOTH",
"709 639 OFFCURVE",
"704 627 OFFCURVE",
"695 613 CURVE SMOOTH",
"328 67 LINE",
"356 74 LINE",
"314 611 LINE SMOOTH",
"310 669 OFFCURVE",
"354 680 OFFCURVE",
"409 686 CURVE SMOOTH",
"430 688 LINE",
"438 713 LINE",
"292 710 LINE",
"149 713 LINE",
"141 688 LINE",
"160 686 LINE SMOOTH",
"236 678 OFFCURVE",
"231 651 OFFCURVE",
"237 593 CURVE SMOOTH",
"287 -8 LINE"
);
}
);
};
layerId = "9372F035-DA38-4B54-966C-CEBA9B53DD02";
paths = (
{
closed = 1;
nodes = (
"313 -8 LINE",
"721 598 LINE SMOOTH",
"756 651 OFFCURVE",
"768 679 OFFCURVE",
"839 686 CURVE SMOOTH",
"860 688 LINE",
"868 713 LINE",
"746 710 LINE",
"627 713 LINE",
"619 688 LINE",
"638 686 LINE SMOOTH",
"685 681 OFFCURVE",
"709 670 OFFCURVE",
"709 648 CURVE SMOOTH",
"709 639 OFFCURVE",
"704 627 OFFCURVE",
"695 613 CURVE SMOOTH",
"328 67 LINE",
"356 74 LINE",
"314 611 LINE SMOOTH",
"310 669 OFFCURVE",
"354 680 OFFCURVE",
"409 686 CURVE SMOOTH",
"430 688 LINE",
"438 713 LINE",
"292 710 LINE",
"149 713 LINE",
"141 688 LINE",
"160 686 LINE SMOOTH",
"236 678 OFFCURVE",
"231 651 OFFCURVE",
"237 593 CURVE SMOOTH",
"287 -8 LINE"
);
}
);
width = 686;
},
{
anchors = (
{
name = bottom;
position = "{349, 0}";
},
{
name = top;
position = "{603, 710}";
}
);
layerId = m002;
paths = (
{
closed = 1;
nodes = (
"364 0 LINE",
"731 557 LINE SMOOTH",
"789 645 OFFCURVE",
"806 667 OFFCURVE",
"859 672 CURVE SMOOTH",
"869 673 LINE",
"882 713 LINE",
"761 711 LINE",
"640 713 LINE",
"627 673 LINE",
"658 671 LINE SMOOTH",
"687 669 OFFCURVE",
"701 655 OFFCURVE",
"701 632 CURVE SMOOTH",
"701 608 OFFCURVE",
"684 575 OFFCURVE",
"667 550 CURVE SMOOTH",
"352 75 LINE",
"404 75 LINE",
"370 587 LINE SMOOTH",
"368 622 OFFCURVE",
"377 666 OFFCURVE",
"431 671 CURVE SMOOTH",
"453 673 LINE",
"466 713 LINE",
"297 710 LINE",
"159 713 LINE",
"146 673 LINE",
"167 671 LINE SMOOTH",
"204 667 OFFCURVE",
"214 652 OFFCURVE",
"217 607 CURVE SMOOTH",
"260 0 LINE"
);
}
);
width = 713;
}
);
leftKerningGroup = V;
rightKerningGroup = V;
unicode = 0056;
},
{
color = 6;
glyphname = W;
layers = (
{
anchors = (
{
name = bottom;
position = "{521, 0}";
},
{
name = top;
position = "{647, 710}";
}
);
background = {
anchors = (
{
name = bottom;
position = "{521, 0}";
},
{
name = top;
position = "{647, 710}";
}
);
paths = (
{
closed = 1;
nodes = (
"313 -8 LINE",
"661 598 LINE SMOOTH",
"692 651 OFFCURVE",
"708 679 OFFCURVE",
"779 686 CURVE SMOOTH",
"800 688 LINE",
"808 713 LINE",
"686 710 LINE",
"567 713 LINE",
"559 688 LINE",
"578 686 LINE SMOOTH",
"625 681 OFFCURVE",
"649 670 OFFCURVE",
"649 648 CURVE SMOOTH",
"649 639 OFFCURVE",
"643 627 OFFCURVE",
"635 613 CURVE SMOOTH",
"328 67 LINE",
"356 74 LINE",
"314 611 LINE SMOOTH",
"309 669 OFFCURVE",
"354 681 OFFCURVE",
"409 686 CURVE SMOOTH",
"430 688 LINE",
"438 713 LINE",
"292 710 LINE",
"149 713 LINE",
"141 688 LINE",
"160 686 LINE SMOOTH",
"236 678 OFFCURVE",
"232 651 OFFCURVE",
"237 593 CURVE SMOOTH",
"287 -8 LINE"
);
}
);
};
guideLines = (
{
position = "{499, 713}";
}
);
layerId = "9372F035-DA38-4B54-966C-CEBA9B53DD02";
paths = (
{
closed = 1;
nodes = (
"318 -8 LINE",
"617 517 LINE",
"597 521 LINE",
"664 -8 LINE",
"690 -8 LINE",
"1030 598 LINE SMOOTH",
"1061 653 OFFCURVE",
"1077 679 OFFCURVE",
"1148 686 CURVE SMOOTH",
"1169 688 LINE",
"1177 713 LINE",
"1055 710 LINE",
"918 713 LINE",
"910 688 LINE",
"947 686 LINE SMOOTH",
"994 683 OFFCURVE",
"1016 673 OFFCURVE",
"1016 650 CURVE SMOOTH",
"1016 640 OFFCURVE",
"1012 628 OFFCURVE",
"1004 613 CURVE SMOOTH",
"711 91 LINE",
"730 87 LINE",
"665 587 LINE SMOOTH",
"657 649 OFFCURVE",
"683 678 OFFCURVE",
"745 683 CURVE SMOOTH",
"785 687 LINE",
"786 713 LINE",
"759 711 LINE SMOOTH",
"710 707 OFFCURVE",
"670 701 OFFCURVE",
"637 663 CURVE",
"661 667 LINE",
"651 688 OFFCURVE",
"626 704 OFFCURVE",
"574 710 CURVE SMOOTH",
"547 713 LINE",
"543 687 LINE",
"581 681 LINE SMOOTH",
"619 676 OFFCURVE",
"632 658 OFFCURVE",
"632 635 CURVE SMOOTH",
"632 613 OFFCURVE",
"619 586 OFFCURVE",
"606 562 CURVE SMOOTH",
"341 97 LINE",
"360 93 LINE",
"314 613 LINE SMOOTH",
"309 668 OFFCURVE",
"352 679 OFFCURVE",
"395 686 CURVE SMOOTH",
"407 688 LINE",
"415 713 LINE",
"288 710 LINE",
"149 713 LINE",
"141 688 LINE",
"160 686 LINE SMOOTH",
"236 678 OFFCURVE",
"231 651 OFFCURVE",
"237 593 CURVE SMOOTH",
"292 -8 LINE"
);
}
);
width = 1019;
},
{
anchors = (
{
name = bottom;
position = "{554, 0}";
},
{
name = top;
position = "{755, 710}";
}
);
background = {
paths = (
{
closed = 1;
nodes = (
"844 0 LINE",
"1043 557 LINE SMOOTH",
"1075 646 OFFCURVE",
"1087 667 OFFCURVE",
"1142 672 CURVE SMOOTH",
"1152 673 LINE",
"1152 713 LINE",
"1040 711 LINE",
"905 713 LINE",
"905 673 LINE",
"935 671 LINE SMOOTH",
"971 669 OFFCURVE",
"995 650 OFFCURVE",
"995 610 CURVE SMOOTH",
"995 594 OFFCURVE",
"989 574 OFFCURVE",
"981 550 CURVE SMOOTH",
"816 75 LINE",
"864 75 LINE",
"701 587 LINE SMOOTH",
"697 600 OFFCURVE",
"694 613 OFFCURVE",
"694 625 CURVE SMOOTH",
"694 649 OFFCURVE",
"706 668 OFFCURVE",
"742 671 CURVE SMOOTH",
"764 673 LINE",
"764 713 LINE",
"699 711 LINE SMOOTH",
"579 706 OFFCURVE",
"519 650 OFFCURVE",
"567 502 CURVE SMOOTH",
"732 0 LINE"
);
},
{
closed = 1;
nodes = (
"390 0 LINE",
"589 557 LINE SMOOTH",
"615 629 OFFCURVE",
"603 700 OFFCURVE",
"509 708 CURVE SMOOTH",
"451 713 LINE",
"446 673 LINE",
"481 670 LINE SMOOTH",
"517 667 OFFCURVE",
"541 650 OFFCURVE",
"541 619 CURVE SMOOTH",
"541 594 OFFCURVE",
"535 574 OFFCURVE",
"527 550 CURVE SMOOTH",
"362 75 LINE",
"410 75 LINE",
"247 587 LINE SMOOTH",
"243 600 OFFCURVE",
"240 613 OFFCURVE",
"240 625 CURVE SMOOTH",
"240 649 OFFCURVE",
"252 668 OFFCURVE",
"288 671 CURVE SMOOTH",
"310 673 LINE",
"310 713 LINE",
"150 710 LINE",
"-13 713 LINE",
"-13 673 LINE",
"7 671 LINE SMOOTH",
"50 667 OFFCURVE",
"65 650 OFFCURVE",
"79 607 CURVE SMOOTH",
"278 0 LINE"
);
}
);
};
guideLines = (
{
position = "{296, 687}";
}
);
layerId = m002;
paths = (
{
closed = 1;
nodes = (
"388 0 LINE",
"675 529 LINE",
"643 529 LINE",
"714 0 LINE",
"823 -1 LINE",
"1121 556 LINE SMOOTH",
"1168 643 OFFCURVE",
"1185 664 OFFCURVE",
"1239 671 CURVE SMOOTH",
"1247 672 LINE",
"1260 712 LINE",
"1149 710 LINE",
"1024 712 LINE",
"1011 672 LINE",
"1043 670 LINE SMOOTH",
"1070 668 OFFCURVE",
"1089 655 OFFCURVE",
"1089 627 CURVE SMOOTH",
"1089 603 OFFCURVE",
"1076 579 OFFCURVE",
"1060 549 CURVE SMOOTH",
"829 116 LINE",
"848 116 LINE",
"787 586 LINE SMOOTH",
"781 629 OFFCURVE",
"792 666 OFFCURVE",
"842 670 CURVE SMOOTH",
"867 672 LINE",
"867 713 LINE",
"804 710 LINE SMOOTH",
"733 707 OFFCURVE",
"684 679 OFFCURVE",
"684 632 CURVE",
"714 630 LINE",
"715 676 OFFCURVE",
"687 701 OFFCURVE",
"640 707 CURVE SMOOTH",
"589 713 LINE",
"582 673 LINE",
"612 670 LINE SMOOTH",
"642 667 OFFCURVE",
"659 653 OFFCURVE",
"659 630 CURVE SMOOTH",
"659 610 OFFCURVE",
"644 576 OFFCURVE",
"630 550 CURVE SMOOTH",
"397 117 LINE",
"417 117 LINE",
"371 587 LINE SMOOTH",
"367 630 OFFCURVE",
"373 666 OFFCURVE",
"425 671 CURVE SMOOTH",
"447 673 LINE",
"460 713 LINE",
"309 710 LINE",
"159 713 LINE",
"146 673 LINE",
"165 671 LINE SMOOTH",
"203 667 OFFCURVE",
"214 648 OFFCURVE",
"218 607 CURVE SMOOTH",
"279 0 LINE"
);
}
);
width = 1106;
}
);
leftKerningGroup = V;
leftMetricsKey = V;
rightKerningGroup = V;
unicode = 0057;
},
{
color = 6;
glyphname = X;
layers = (
{
anchors = (
{
name = bottom;
position = "{299, 0}";
},
{
name = top;
position = "{533, 710}";
}
);
background = {
anchors = (
{
name = bottom;
position = "{299, 0}";
},
{
name = top;
position = "{533, 710}";
}
);
paths = (
{
closed = 1;
nodes = (
"567 0 LINE",
"693 -2 LINE",
"702 23 LINE",
"683 25 LINE SMOOTH",
"630 30 OFFCURVE",
"608 61 OFFCURVE",
"571 146 CURVE SMOOTH",
"380 581 LINE SMOOTH",
"372 601 OFFCURVE",
"370 617 OFFCURVE",
"370 631 CURVE SMOOTH",
"370 665 OFFCURVE",
"394 682 OFFCURVE",
"435 686 CURVE SMOOTH",
"456 688 LINE",
"465 713 LINE",
"316 710 LINE",
"187 713 LINE",
"178 688 LINE",
"197 686 LINE SMOOTH",
"248 681 OFFCURVE",
"270 648 OFFCURVE",
"294 593 CURVE SMOOTH",
"507 104 LINE SMOOTH",
"511 94 OFFCURVE",
"513 85 OFFCURVE",
"513 76 CURVE SMOOTH",
"513 48 OFFCURVE",
"489 30 OFFCURVE",
"445 25 CURVE SMOOTH",
"424 23 LINE",
"415 -2 LINE"
);
},
{
closed = 1;
nodes = (
"86 1 LINE",
"207 -2 LINE",
"216 23 LINE",
"197 25 LINE SMOOTH",
"153 29 OFFCURVE",
"126 41 OFFCURVE",
"125 61 CURVE SMOOTH",
"125 72 OFFCURVE",
"132 87 OFFCURVE",
"152 104 CURVE SMOOTH",
"433 364 LINE",
"412 386 LINE",
"107 102 LINE SMOOTH",
"58 58 OFFCURVE",
"19 31 OFFCURVE",
"-17 26 CURVE SMOOTH",
"-38 23 LINE",
"-47 -2 LINE"
);
},
{
closed = 1;
nodes = (
"718 609 LINE SMOOTH",
"767 653 OFFCURVE",
"807 680 OFFCURVE",
"842 685 CURVE SMOOTH",
"863 688 LINE",
"872 713 LINE",
"746 710 LINE",
"618 713 LINE",
"609 688 LINE",
"628 686 LINE SMOOTH",
"677 681 OFFCURVE",
"704 672 OFFCURVE",
"705 654 CURVE SMOOTH",
"705 642 OFFCURVE",
"695 628 OFFCURVE",
"675 609 CURVE SMOOTH",
"427 382 LINE",
"448 360 LINE"
);
}
);
};
layerId = "9372F035-DA38-4B54-966C-CEBA9B53DD02";
paths = (
{
closed = 1;
nodes = (
"567 0 LINE",
"693 -2 LINE",
"702 23 LINE",
"683 25 LINE SMOOTH",
"630 30 OFFCURVE",
"608 61 OFFCURVE",
"571 146 CURVE SMOOTH",
"380 581 LINE SMOOTH",
"372 601 OFFCURVE",
"370 617 OFFCURVE",
"370 631 CURVE SMOOTH",
"370 665 OFFCURVE",
"394 682 OFFCURVE",
"435 686 CURVE SMOOTH",
"456 688 LINE",
"465 713 LINE",
"316 710 LINE",
"187 713 LINE",
"178 688 LINE",
"197 686 LINE SMOOTH",
"248 681 OFFCURVE",
"270 648 OFFCURVE",
"294 593 CURVE SMOOTH",
"507 104 LINE SMOOTH",
"511 94 OFFCURVE",
"513 85 OFFCURVE",
"513 76 CURVE SMOOTH",
"513 48 OFFCURVE",
"489 30 OFFCURVE",
"445 25 CURVE SMOOTH",
"424 23 LINE",
"415 -2 LINE"
);
},
{
closed = 1;
nodes = (
"86 1 LINE",
"207 -2 LINE",
"216 23 LINE",
"197 25 LINE SMOOTH",
"153 29 OFFCURVE",
"126 41 OFFCURVE",
"125 61 CURVE SMOOTH",
"125 72 OFFCURVE",
"132 87 OFFCURVE",
"152 104 CURVE SMOOTH",
"433 364 LINE",
"412 386 LINE",
"107 102 LINE SMOOTH",
"58 58 OFFCURVE",
"19 31 OFFCURVE",
"-17 26 CURVE SMOOTH",
"-38 23 LINE",
"-47 -2 LINE"
);
},
{
closed = 1;
nodes = (
"718 609 LINE SMOOTH",
"767 653 OFFCURVE",
"807 680 OFFCURVE",
"842 685 CURVE SMOOTH",
"863 688 LINE",
"872 713 LINE",
"746 710 LINE",
"618 713 LINE",
"609 688 LINE",
"628 686 LINE SMOOTH",
"677 681 OFFCURVE",
"704 672 OFFCURVE",
"705 654 CURVE SMOOTH",
"705 642 OFFCURVE",
"695 628 OFFCURVE",
"675 609 CURVE SMOOTH",
"427 382 LINE",
"448 360 LINE"
);
}
);
width = 744;
},
{
anchors = (
{
name = bottom;
position = "{302, 0}";
},
{
name = top;
position = "{568, 710}";
}
);
guideLines = (
{
angle = 90;
position = "{-38, 553}";
},
{
angle = 90;
position = "{677, 556}";
}
);
layerId = m002;
paths = (
{
closed = 1;
nodes = (
"537 0 LINE",
"687 -3 LINE",
"700 37 LINE",
"682 39 LINE SMOOTH",
"644 43 OFFCURVE",
"632 59 OFFCURVE",
"614 103 CURVE SMOOTH",
"426 558 LINE SMOOTH",
"418 578 OFFCURVE",
"414 596 OFFCURVE",
"415 611 CURVE SMOOTH",
"416 651 OFFCURVE",
"450 670 OFFCURVE",
"496 672 CURVE SMOOTH",
"516 673 LINE",
"529 713 LINE",
"343 710 LINE",
"175 713 LINE",
"162 673 LINE",
"181 671 LINE SMOOTH",
"217 667 OFFCURVE",
"227 642 OFFCURVE",
"243 603 CURVE SMOOTH",
"430 152 LINE SMOOTH",
"438 132 OFFCURVE",
"443 115 OFFCURVE",
"442 100 CURVE SMOOTH",
"441 58 OFFCURVE",
"403 42 OFFCURVE",
"364 39 CURVE SMOOTH",
"341 37 LINE",
"328 -3 LINE"
);
},
{
closed = 1;
nodes = (
"92 -1 LINE",
"209 -3 LINE",
"222 37 LINE",
"191 39 LINE SMOOTH",
"162 41 OFFCURVE",
"147 53 OFFCURVE",
"147 72 CURVE SMOOTH",
"147 98 OFFCURVE",
"181 130 OFFCURVE",
"214 160 CURVE SMOOTH",
"396 326 LINE",
"360 361 LINE",
"111 137 LINE SMOOTH",
"26 61 OFFCURVE",
"-3 42 OFFCURVE",
"-30 39 CURVE SMOOTH",
"-50 37 LINE",
"-63 -3 LINE"
);
},
{
closed = 1;
nodes = (
"702 573 LINE SMOOTH",
"791 654 OFFCURVE",
"823 669 OFFCURVE",
"847 671 CURVE SMOOTH",
"868 673 LINE",
"881 713 LINE",
"737 711 LINE",
"616 713 LINE",
"603 673 LINE",
"629 671 LINE SMOOTH",
"653 669 OFFCURVE",
"666 657 OFFCURVE",
"666 640 CURVE SMOOTH",
"666 621 OFFCURVE",
"650 594 OFFCURVE",
"616 563 CURVE SMOOTH",
"435 402 LINE",
"471 365 LINE"
);
}
);
width = 760;
}
);
rightKerningGroup = X;
unicode = 0058;
},
{
color = 6;
glyphname = Y;
layers = (
{
anchors = (
{
name = bottom;
position = "{287, 0}";
},
{
name = top;
position = "{521, 710}";
},
{
name = topleft;
position = "{221, 710}";
}
);
background = {
anchors = (
{
name = bottom;
position = "{287, 0}";
},
{
name = top;
position = "{521, 710}";
},
{
name = topleft;
position = "{221, 710}";
}
);
paths = (
{
closed = 1;
nodes = (
"670 601 LINE SMOOTH",
"713 654 OFFCURVE",
"754 680 OFFCURVE",
"790 685 CURVE SMOOTH",
"811 688 LINE",
"820 713 LINE",
"694 710 LINE",
"566 713 LINE",
"557 688 LINE",
"576 686 LINE SMOOTH",
"626 681 OFFCURVE",
"654 672 OFFCURVE",
"654 648 CURVE SMOOTH",
"654 635 OFFCURVE",
"646 618 OFFCURVE",
"628 595 CURVE SMOOTH",
"393 299 LINE",
"414 280 LINE"
);
},
{
closed = 1;
nodes = (
"295 0 LINE",
"468 -3 LINE",
"477 22 LINE",
"458 24 LINE SMOOTH",
"399 30 OFFCURVE",
"361 35 OFFCURVE",
"361 70 CURVE SMOOTH",
"361 76 OFFCURVE",
"362 82 OFFCURVE",
"364 89 CURVE SMOOTH",
"421 292 LINE",
"341 292 LINE",
"288 102 LINE SMOOTH",
"265 33 OFFCURVE",
"241 31 OFFCURVE",
"180 24 CURVE SMOOTH",
"159 22 LINE",
"150 -3 LINE"
);
},
{
closed = 1;
nodes = (
"416 279 LINE",
"338 581 LINE SMOOTH",
"334 598 OFFCURVE",
"331 613 OFFCURVE",
"331 626 CURVE SMOOTH",
"331 664 OFFCURVE",
"352 682 OFFCURVE",
"397 686 CURVE SMOOTH",
"418 688 LINE",
"427 713 LINE",
"281 710 LINE",
"150 713 LINE",
"141 688 LINE",
"160 686 LINE SMOOTH",
"236 678 OFFCURVE",
"243 650 OFFCURVE",
"257 593 CURVE SMOOTH",
"340 259 LINE"
);
}
);
};
layerId = "9372F035-DA38-4B54-966C-CEBA9B53DD02";
paths = (
{
closed = 1;
nodes = (
"295 0 LINE",
"468 -3 LINE",
"477 22 LINE",
"458 24 LINE SMOOTH",
"401 30 OFFCURVE",
"348 33 OFFCURVE",
"364 89 CURVE SMOOTH",
"420 287 LINE",
"670 601 LINE SMOOTH",
"713 654 OFFCURVE",
"754 680 OFFCURVE",
"790 685 CURVE SMOOTH",
"811 688 LINE",
"820 713 LINE",
"694 710 LINE",
"566 713 LINE",
"557 688 LINE",
"576 686 LINE SMOOTH",
"626 681 OFFCURVE",
"654 672 OFFCURVE",
"654 648 CURVE SMOOTH",
"654 635 OFFCURVE",
"646 618 OFFCURVE",
"628 595 CURVE SMOOTH",
"386 291 LINE",
"414 285 LINE",
"338 581 LINE SMOOTH",
"334 598 OFFCURVE",
"331 613 OFFCURVE",
"331 626 CURVE SMOOTH",
"331 664 OFFCURVE",
"352 682 OFFCURVE",
"397 686 CURVE SMOOTH",
"418 688 LINE",
"427 713 LINE",
"281 710 LINE",
"150 713 LINE",
"141 688 LINE",
"160 686 LINE SMOOTH",
"236 678 OFFCURVE",
"243 650 OFFCURVE",
"257 593 CURVE SMOOTH",
"336 275 LINE",
"288 102 LINE SMOOTH",
"269 32 OFFCURVE",
"241 31 OFFCURVE",
"180 24 CURVE SMOOTH",
"159 22 LINE",
"150 -3 LINE"
);
}
);
width = 663;
},
{
anchors = (
{
name = bottom;
position = "{269, 0}";
},
{
name = top;
position = "{529, 710}";
},
{
name = topleft;
position = "{178, 710}";
}
);
layerId = m002;
paths = (
{
closed = 1;
nodes = (
"282 0 LINE",
"441 -3 LINE",
"454 38 LINE",
"435 40 LINE SMOOTH",
"381 46 OFFCURVE",
"373 56 OFFCURVE",
"398 133 CURVE SMOOTH",
"448 288 LINE",
"666 557 LINE SMOOTH",
"736 643 OFFCURVE",
"762 666 OFFCURVE",
"818 672 CURVE SMOOTH",
"828 673 LINE",
"841 713 LINE",
"732 711 LINE",
"602 713 LINE",
"589 673 LINE",
"622 671 LINE SMOOTH",
"641 670 OFFCURVE",
"652 662 OFFCURVE",
"652 646 CURVE SMOOTH",
"652 629 OFFCURVE",
"640 604 OFFCURVE",
"613 570 CURVE SMOOTH",
"384 285 LINE",
"438 323 LINE",
"385 550 LINE SMOOTH",
"380 572 OFFCURVE",
"376 592 OFFCURVE",
"376 610 CURVE SMOOTH",
"376 643 OFFCURVE",
"388 667 OFFCURVE",
"429 671 CURVE SMOOTH",
"451 673 LINE",
"463 713 LINE",
"312 710 LINE",
"154 713 LINE",
"141 673 LINE",
"160 671 LINE SMOOTH",
"194 667 OFFCURVE",
"204 657 OFFCURVE",
"216 607 CURVE SMOOTH",
"293 294 LINE",
"241 133 LINE SMOOTH",
"217 58 OFFCURVE",
"205 45 OFFCURVE",
"157 40 CURVE SMOOTH",
"137 38 LINE",
"124 -3 LINE"
);
}
);
width = 682;
}
);
leftKerningGroup = Y;
rightKerningGroup = Y;
unicode = 0059;
},
{
color = 6;
glyphname = Z;
layers = (
{
anchors = (
{
name = bottom;
position = "{244, 0}";
},
{
name = top;
position = "{478, 710}";
}
);
background = {
anchors = (
{
name = bottom;
position = "{244, 0}";
},
{
name = top;
position = "{478, 710}";
}
);
paths = (
{
closed = 1;
nodes = (
"586 1 LINE",
"607 107 LINE",
"644 260 LINE",
"618 260 LINE",
"556 99 OFFCURVE",
"513 29 OFFCURVE",
"327 29 CURVE SMOOTH",
"78 29 LINE",
"85 9 LINE",
"762 703 LINE",
"759 710 LINE",
"236 710 LINE",
"159 506 LINE",
"185 506 LINE",
"237 613 OFFCURVE",
"262 685 OFFCURVE",
"415 685 CURVE SMOOTH",
"710 685 LINE",
"661 703 LINE",
"-16 9 LINE",
"-9 0 LINE"
);
}
);
};
layerId = "9372F035-DA38-4B54-966C-CEBA9B53DD02";
paths = (
{
closed = 1;
nodes = (
"586 1 LINE",
"607 107 LINE",
"644 260 LINE",
"618 260 LINE",
"556 99 OFFCURVE",
"513 29 OFFCURVE",
"327 29 CURVE SMOOTH",
"78 29 LINE",
"85 9 LINE",
"762 703 LINE",
"758 713 LINE",
"666 710 LINE",
"236 710 LINE",
"159 506 LINE",
"185 506 LINE",
"237 613 OFFCURVE",
"262 685 OFFCURVE",
"415 685 CURVE SMOOTH",
"710 685 LINE",
"661 703 LINE",
"-16 9 LINE",
"-9 0 LINE"
);
}
);
width = 675;
},
{
anchors = (
{
name = bottom;
position = "{339, 0}";
},
{
name = top;
position = "{570, 710}";
}
);
layerId = m002;
paths = (
{
closed = 1;
nodes = (
"605 0 LINE",
"620 72 LINE",
"673 264 LINE",
"633 264 LINE",
"567 95 OFFCURVE",
"459 44 OFFCURVE",
"296 44 CURVE SMOOTH",
"81 44 LINE",
"181 33 LINE",
"807 673 LINE",
"799 713 LINE",
"636 710 LINE",
"234 710 LINE",
"161 506 LINE",
"202 506 LINE",
"261 629 OFFCURVE",
"344 666 OFFCURVE",
"486 666 CURVE SMOOTH",
"688 666 LINE",
"630 700 LINE",
"-18 37 LINE",
"-30 0 LINE"
);
}
);
width = 691;
}
);
leftKerningGroup = I;
rightKerningGroup = I;
unicode = 005A;
},
{
color = 6;
glyphname = J.ss01;
layers = (
{
anchors = (
{
name = bottom;
position = "{257, 0}";
},
{
name = top;
position = "{487, 710}";
}
);
background = {
anchors = (
{
name = bottom;
position = "{343, 0}";
},
{
name = top;
position = "{576, 710}";
}
);
paths = (
{
closed = 1;
nodes = (
"427 -14 OFFCURVE",
"446 60 OFFCURVE",
"474 147 CURVE SMOOTH",
"613 574 LINE SMOOTH",
"642 664 OFFCURVE",
"670 679 OFFCURVE",
"739 686 CURVE SMOOTH",
"760 688 LINE",
"768 713 LINE",
"619 710 LINE",
"470 713 LINE",
"462 688 LINE",
"481 686 LINE SMOOTH",
"536 680 OFFCURVE",
"554 674 OFFCURVE",
"554 650 CURVE SMOOTH",
"554 641 OFFCURVE",
"552 629 OFFCURVE",
"547 614 CURVE SMOOTH",
"417 217 LINE SMOOTH",
"377 94 OFFCURVE",
"355 9 OFFCURVE",
"300 9 CURVE SMOOTH",
"263 9 OFFCURVE",
"260 33 OFFCURVE",
"252 63 CURVE SMOOTH",
"245 93 OFFCURVE",
"234 120 OFFCURVE",
"199 120 CURVE SMOOTH",
"172 120 OFFCURVE",
"154 101 OFFCURVE",
"154 75 CURVE SMOOTH",
"154 15 OFFCURVE",
"223 -14 OFFCURVE",
"297 -14 CURVE SMOOTH"
);
}
);
};
layerId = "9372F035-DA38-4B54-966C-CEBA9B53DD02";
paths = (
{
closed = 1;
nodes = (
"239 -224 OFFCURVE",
"339 53 OFFCURVE",
"451 386 CURVE SMOOTH",
"482 479 OFFCURVE",
"507 543 OFFCURVE",
"556 634 CURVE",
"524 612 LINE",
"588 612 OFFCURVE",
"695 645 OFFCURVE",
"693 700 CURVE SMOOTH",
"693 712 OFFCURVE",
"681 724 OFFCURVE",
"655 724 CURVE SMOOTH",
"622 724 OFFCURVE",
"581 696 OFFCURVE",
"543 657 CURVE SMOOTH",
"529 641 OFFCURVE",
"517 634 OFFCURVE",
"504 637 CURVE SMOOTH",
"444 654 OFFCURVE",
"393 724 OFFCURVE",
"323 724 CURVE SMOOTH",
"222 724 OFFCURVE",
"156 648 OFFCURVE",
"124 557 CURVE",
"146 557 LINE",
"174 622 OFFCURVE",
"222 655 OFFCURVE",
"279 655 CURVE SMOOTH",
"353 655 OFFCURVE",
"455 610 OFFCURVE",
"525 615 CURVE",
"522 631 LINE",
"455 549 OFFCURVE",
"414 492 OFFCURVE",
"365 355 CURVE SMOOTH",
"342 292 OFFCURVE",
"315 211 OFFCURVE",
"277 109 CURVE SMOOTH",
"251 39 OFFCURVE",
"227 -54 OFFCURVE",
"188 -120 CURVE SMOOTH",
"160 -168 OFFCURVE",
"124 -201 OFFCURVE",
"75 -201 CURVE SMOOTH",
"58 -201 OFFCURVE",
"49 -196 OFFCURVE",
"42 -188 CURVE SMOOTH",
"34 -178 OFFCURVE",
"31 -164 OFFCURVE",
"27 -147 CURVE SMOOTH",
"20 -117 OFFCURVE",
"9 -90 OFFCURVE",
"-26 -90 CURVE SMOOTH",
"-53 -90 OFFCURVE",
"-71 -109 OFFCURVE",
"-71 -135 CURVE SMOOTH",
"-71 -195 OFFCURVE",
"-2 -224 OFFCURVE",
"72 -224 CURVE SMOOTH"
);
},
{
closed = 1;
nodes = (
"382 377 LINE",
"391 401 LINE",
"201 401 LINE",
"193 377 LINE"
);
},
{
closed = 1;
nodes = (
"533 377 LINE",
"541 401 LINE",
"416 401 LINE",
"410 377 LINE"
);
}
);
width = 555;
},
{
anchors = (
{
name = bottom;
position = "{254, 0}";
},
{
name = top;
position = "{484, 710}";
}
);
background = {
paths = (
{
closed = 1;
nodes = (
"530 -14 OFFCURVE",
"602 50 OFFCURVE",
"602 203 CURVE SMOOTH",
"603 577 LINE SMOOTH",
"603 651 OFFCURVE",
"616 666 OFFCURVE",
"669 671 CURVE SMOOTH",
"689 673 LINE",
"689 713 LINE",
"526 710 LINE",
"362 713 LINE",
"362 673 LINE",
"382 671 LINE SMOOTH",
"435 666 OFFCURVE",
"448 651 OFFCURVE",
"448 577 CURVE SMOOTH",
"448 181 LINE SMOOTH",
"448 98 OFFCURVE",
"442 30 OFFCURVE",
"397 30 CURVE SMOOTH",
"375 30 OFFCURVE",
"362 38 OFFCURVE",
"362 56 CURVE SMOOTH",
"362 77 OFFCURVE",
"374 94 OFFCURVE",
"374 114 CURVE SMOOTH",
"374 148 OFFCURVE",
"347 173 OFFCURVE",
"298 173 CURVE SMOOTH",
"251 173 OFFCURVE",
"224 145 OFFCURVE",
"224 103 CURVE SMOOTH",
"224 29 OFFCURVE",
"289 -14 OFFCURVE",
"391 -14 CURVE SMOOTH"
);
}
);
};
layerId = m002;
paths = (
{
closed = 1;
nodes = (
"245 -224 OFFCURVE",
"359 0 OFFCURVE",
"453 290 CURVE SMOOTH",
"503 445 OFFCURVE",
"538 545 OFFCURVE",
"571 623 CURVE",
"484 576 LINE",
"614 562 OFFCURVE",
"683 612 OFFCURVE",
"699 660 CURVE SMOOTH",
"710 694 OFFCURVE",
"692 724 OFFCURVE",
"656 724 CURVE SMOOTH",
"608 724 OFFCURVE",
"558 697 OFFCURVE",
"512 651 CURVE SMOOTH",
"483 621 OFFCURVE",
"472 622 OFFCURVE",
"453 641 CURVE SMOOTH",
"416 680 OFFCURVE",
"371 724 OFFCURVE",
"302 724 CURVE SMOOTH",
"196 724 OFFCURVE",
"134 626 OFFCURVE",
"118 527 CURVE",
"150 527 LINE",
"162 569 OFFCURVE",
"200 585 OFFCURVE",
"297 585 CURVE SMOOTH",
"356 585 OFFCURVE",
"424 578 OFFCURVE",
"485 576 CURVE",
"477 597 LINE",
"421 566 OFFCURVE",
"358 469 OFFCURVE",
"330 376 CURVE SMOOTH",
"322 350 OFFCURVE",
"294 265 OFFCURVE",
"280 223 CURVE SMOOTH",
"256 152 OFFCURVE",
"198 -68 OFFCURVE",
"138 -153 CURVE SMOOTH",
"123 -175 OFFCURVE",
"108 -188 OFFCURVE",
"93 -188 CURVE SMOOTH",
"79 -188 OFFCURVE",
"68 -181 OFFCURVE",
"68 -166 CURVE SMOOTH",
"68 -147 OFFCURVE",
"78 -128 OFFCURVE",
"78 -95 CURVE SMOOTH",
"78 -59 OFFCURVE",
"47 -40 OFFCURVE",
"12 -40 CURVE SMOOTH",
"-30 -40 OFFCURVE",
"-77 -68 OFFCURVE",
"-77 -128 CURVE SMOOTH",
"-77 -176 OFFCURVE",
"-40 -224 OFFCURVE",
"77 -224 CURVE SMOOTH"
);
},
{
closed = 1;
nodes = (
"392 361 LINE",
"406 401 LINE",
"176 401 LINE",
"163 361 LINE"
);
},
{
closed = 1;
nodes = (
"583 361 LINE",
"596 401 LINE",
"431 401 LINE",
"420 361 LINE"
);
}
);
width = 572;
}
);
leftKerningGroup = J;
rightKerningGroup = U;
},
{
color = 6;
glyphname = Y.ss01;
layers = (
{
anchors = (
{
name = bottom;
position = "{271, 0}";
},
{
name = top;
position = "{490, 710}";
},
{
name = topleft;
position = "{203, 710}";
}
);
background = {
anchors = (
{
name = bottom;
position = "{269, 0}";
},
{
name = top;
position = "{503, 710}";
},
{
name = topleft;
position = "{203, 710}";
}
);
paths = (
{
closed = 1;
nodes = (
"652 601 LINE SMOOTH",
"695 654 OFFCURVE",
"736 680 OFFCURVE",
"772 685 CURVE SMOOTH",
"793 688 LINE",
"802 713 LINE",
"676 710 LINE",
"548 713 LINE",
"539 688 LINE",
"558 686 LINE SMOOTH",
"608 681 OFFCURVE",
"636 672 OFFCURVE",
"636 648 CURVE SMOOTH",
"636 635 OFFCURVE",
"628 618 OFFCURVE",
"610 595 CURVE SMOOTH",
"375 299 LINE",
"396 280 LINE"
);
},
{
closed = 1;
nodes = (
"277 0 LINE",
"450 -3 LINE",
"459 22 LINE",
"440 24 LINE SMOOTH",
"381 30 OFFCURVE",
"343 35 OFFCURVE",
"343 70 CURVE SMOOTH",
"343 76 OFFCURVE",
"344 82 OFFCURVE",
"346 89 CURVE SMOOTH",
"403 292 LINE",
"323 292 LINE",
"270 102 LINE SMOOTH",
"247 33 OFFCURVE",
"223 31 OFFCURVE",
"162 24 CURVE SMOOTH",
"141 22 LINE",
"132 -3 LINE"
);
},
{
closed = 1;
nodes = (
"398 279 LINE",
"320 581 LINE SMOOTH",
"316 598 OFFCURVE",
"313 613 OFFCURVE",
"313 626 CURVE SMOOTH",
"313 664 OFFCURVE",
"334 682 OFFCURVE",
"379 686 CURVE SMOOTH",
"400 688 LINE",
"409 713 LINE",
"263 710 LINE",
"132 713 LINE",
"123 688 LINE",
"142 686 LINE SMOOTH",
"218 678 OFFCURVE",
"225 650 OFFCURVE",
"239 593 CURVE SMOOTH",
"322 259 LINE"
);
}
);
};
layerId = "9372F035-DA38-4B54-966C-CEBA9B53DD02";
paths = (
{
closed = 1;
nodes = (
"272 0 LINE",
"445 -3 LINE",
"454 22 LINE",
"435 24 LINE SMOOTH",
"378 30 OFFCURVE",
"322 33 OFFCURVE",
"341 89 CURVE SMOOTH",
"442 393 LINE SMOOTH",
"525 643 OFFCURVE",
"587 685 OFFCURVE",
"655 685 CURVE SMOOTH",
"706 685 OFFCURVE",
"734 647 OFFCURVE",
"734 579 CURVE",
"758 579 LINE",
"758 608 LINE SMOOTH",
"758 679 OFFCURVE",
"716 724 OFFCURVE",
"647 724 CURVE SMOOTH",
"534 724 OFFCURVE",
"434 641 OFFCURVE",
"352 283 CURVE",
"378 297 LINE",
"525 642 OFFCURVE",
"407 722 OFFCURVE",
"310 722 CURVE SMOOTH",
"240 722 OFFCURVE",
"171 678 OFFCURVE",
"154 598 CURVE SMOOTH",
"150 579 LINE",
"174 579 LINE",
"186 645 OFFCURVE",
"231 685 OFFCURVE",
"289 685 CURVE SMOOTH",
"387 685 OFFCURVE",
"417 570 OFFCURVE",
"353 373 CURVE SMOOTH",
"265 102 LINE SMOOTH",
"243 33 OFFCURVE",
"218 30 OFFCURVE",
"157 24 CURVE SMOOTH",
"136 22 LINE",
"127 -3 LINE"
);
}
);
width = 671;
},
{
anchors = (
{
name = bottom;
position = "{279, 0}";
},
{
name = top;
position = "{487, 710}";
},
{
name = topleft;
position = "{178, 710}";
}
);
layerId = m002;
paths = (
{
closed = 1;
nodes = (
"274 0 LINE",
"433 -3 LINE",
"446 38 LINE",
"427 40 LINE SMOOTH",
"367 46 OFFCURVE",
"360 55 OFFCURVE",
"385 133 CURVE SMOOTH",
"453 343 LINE SMOOTH",
"540 612 OFFCURVE",
"592 665 OFFCURVE",
"654 665 CURVE SMOOTH",
"707 665 OFFCURVE",
"724 627 OFFCURVE",
"724 579 CURVE",
"765 579 LINE",
"765 598 LINE SMOOTH",
"765 671 OFFCURVE",
"731 724 OFFCURVE",
"644 724 CURVE SMOOTH",
"490 724 OFFCURVE",
"409 581 OFFCURVE",
"321 243 CURVE",
"383 247 LINE",
"504 621 OFFCURVE",
"411 722 OFFCURVE",
"294 722 CURVE SMOOTH",
"216 722 OFFCURVE",
"150 677 OFFCURVE",
"129 598 CURVE SMOOTH",
"124 579 LINE",
"162 579 LINE",
"171 629 OFFCURVE",
"214 665 OFFCURVE",
"262 665 CURVE SMOOTH",
"349 665 OFFCURVE",
"366 543 OFFCURVE",
"301 343 CURVE SMOOTH",
"233 133 LINE SMOOTH",
"209 58 OFFCURVE",
"198 45 OFFCURVE",
"149 40 CURVE SMOOTH",
"129 38 LINE",
"116 -3 LINE"
);
}
);
width = 682;
}
);
leftKerningGroup = Y;
rightKerningGroup = Y;
},
{
color = 6;
glyphname = a;
layers = (
{
anchors = (
{
name = bottom;
position = "{190, 0}";
},
{
name = ogonek;
position = "{439, 0}";
},
{
name = top;
position = "{326, 440}";
}
);
background = {
paths = (
{
closed = 1;
nodes = (
"221 -14 OFFCURVE",
"275 23 OFFCURVE",
"319 84 CURVE",
"315 69 OFFCURVE",
"313 54 OFFCURVE",
"313 41 CURVE SMOOTH",
"313 8 OFFCURVE",
"328 -14 OFFCURVE",
"369 -14 CURVE SMOOTH",
"426 -14 OFFCURVE",
"466 33 OFFCURVE",
"491 75 CURVE",
"473 87 LINE",
"456 57 OFFCURVE",
"425 19 OFFCURVE",
"396 19 CURVE SMOOTH",
"385 19 OFFCURVE",
"380 26 OFFCURVE",
"380 39 CURVE SMOOTH",
"380 50 OFFCURVE",
"383 65 OFFCURVE",
"390 85 CURVE SMOOTH",
"515 440 LINE",
"449 440 LINE",
"415 348 LINE",
"410 410 OFFCURVE",
"380 454 OFFCURVE",
"318 454 CURVE SMOOTH",
"211 454 OFFCURVE",
"83 348 OFFCURVE",
"41 216 CURVE SMOOTH",
"4 104 OFFCURVE",
"34 -14 OFFCURVE",
"161 -14 CURVE SMOOTH"
);
},
{
closed = 1;
nodes = (
"85 12 OFFCURVE",
"93 130 OFFCURVE",
"118 206 CURVE SMOOTH",
"155 318 OFFCURVE",
"243 428 OFFCURVE",
"324 428 CURVE SMOOTH",
"409 428 OFFCURVE",
"404 312 OFFCURVE",
"364 209 CURVE SMOOTH",
"318 91 OFFCURVE",
"247 12 OFFCURVE",
"171 12 CURVE SMOOTH"
);
}
);
};
layerId = "9372F035-DA38-4B54-966C-CEBA9B53DD02";
paths = (
{
closed = 1;
nodes = (
"228 -14 OFFCURVE",
"287 31 OFFCURVE",
"333 105 CURVE",
"326 105 LINE",
"306 57 OFFCURVE",
"299 -14 OFFCURVE",
"369 -14 CURVE SMOOTH",
"426 -14 OFFCURVE",
"466 33 OFFCURVE",
"491 75 CURVE",
"473 87 LINE",
"456 57 OFFCURVE",
"425 19 OFFCURVE",
"396 19 CURVE SMOOTH",
"369 19 OFFCURVE",
"382 63 OFFCURVE",
"390 85 CURVE SMOOTH",
"515 440 LINE",
"449 440 LINE",
"404 318 LINE",
"416 323 LINE",
"417 398 OFFCURVE",
"388 454 OFFCURVE",
"318 454 CURVE SMOOTH",
"188 454 OFFCURVE",
"81 333 OFFCURVE",
"42 214 CURVE SMOOTH",
"5 99 OFFCURVE",
"31 -14 OFFCURVE",
"161 -14 CURVE SMOOTH"
);
},
{
closed = 1;
nodes = (
"92 12 OFFCURVE",
"86 105 OFFCURVE",
"118 203 CURVE SMOOTH",
"153 312 OFFCURVE",
"237 428 OFFCURVE",
"324 428 CURVE SMOOTH",
"409 428 OFFCURVE",
"404 312 OFFCURVE",
"364 209 CURVE SMOOTH",
"318 91 OFFCURVE",
"247 12 OFFCURVE",
"171 12 CURVE SMOOTH"
);
}
);
width = 534;
},
{
anchors = (
{
name = bottom;
position = "{183, 0}";
},
{
name = ogonek;
position = "{480, 0}";
},
{
name = top;
position = "{327, 446}";
}
);
background = {
paths = (
{
closed = 1;
nodes = (
"250 -14 OFFCURVE",
"304 23 OFFCURVE",
"348 84 CURVE",
"344 69 OFFCURVE",
"342 54 OFFCURVE",
"342 41 CURVE SMOOTH",
"342 8 OFFCURVE",
"357 -14 OFFCURVE",
"398 -14 CURVE SMOOTH",
"455 -14 OFFCURVE",
"495 33 OFFCURVE",
"520 75 CURVE",
"502 87 LINE",
"485 57 OFFCURVE",
"454 19 OFFCURVE",
"425 19 CURVE SMOOTH",
"414 19 OFFCURVE",
"409 26 OFFCURVE",
"409 39 CURVE SMOOTH",
"409 50 OFFCURVE",
"413 65 OFFCURVE",
"419 85 CURVE SMOOTH",
"544 440 LINE",
"478 440 LINE",
"444 348 LINE",
"439 410 OFFCURVE",
"409 454 OFFCURVE",
"347 454 CURVE SMOOTH",
"240 454 OFFCURVE",
"112 348 OFFCURVE",
"70 216 CURVE SMOOTH",
"33 104 OFFCURVE",
"63 -14 OFFCURVE",
"190 -14 CURVE SMOOTH"
);
},
{
closed = 1;
nodes = (
"184 318 OFFCURVE",
"272 428 OFFCURVE",
"353 428 CURVE SMOOTH",
"400 428 OFFCURVE",
"422 390 OFFCURVE",
"422 336 CURVE SMOOTH",
"422 309 OFFCURVE",
"416 276 OFFCURVE",
"405 244 CURVE SMOOTH",
"393 209 LINE SMOOTH",
"346 92 OFFCURVE",
"276 12 OFFCURVE",
"200 12 CURVE SMOOTH",
"114 12 OFFCURVE",
"122 130 OFFCURVE",
"147 206 CURVE SMOOTH"
);
}
);
};
layerId = m002;
paths = (
{
closed = 1;
nodes = (
"218 -14 OFFCURVE",
"303 35 OFFCURVE",
"353 131 CURVE",
"339 150 LINE",
"314 76 OFFCURVE",
"304 -14 OFFCURVE",
"399 -14 CURVE SMOOTH",
"467 -14 OFFCURVE",
"520 22 OFFCURVE",
"552 93 CURVE",
"524 111 LINE",
"500 64 OFFCURVE",
"480 45 OFFCURVE",
"466 45 CURVE SMOOTH",
"449 45 OFFCURVE",
"447 65 OFFCURVE",
"460 104 CURVE SMOOTH",
"571 446 LINE",
"429 446 LINE",
"379 294 LINE",
"397 294 LINE",
"428 390 OFFCURVE",
"385 460 OFFCURVE",
"298 460 CURVE SMOOTH",
"177 460 OFFCURVE",
"77 344 OFFCURVE",
"37 227 CURVE SMOOTH",
"-4 107 OFFCURVE",
"17 -14 OFFCURVE",
"142 -14 CURVE SMOOTH"
);
},
{
closed = 1;
nodes = (
"164 52 OFFCURVE",
"154 111 OFFCURVE",
"188 214 CURVE SMOOTH",
"221 313 OFFCURVE",
"274 393 OFFCURVE",
"330 393 CURVE SMOOTH",
"380 393 OFFCURVE",
"394 328 OFFCURVE",
"356 218 CURVE SMOOTH",
"321 116 OFFCURVE",
"267 52 OFFCURVE",
"214 52 CURVE SMOOTH"
);
}
);
width = 582;
}
);
leftKerningGroup = a;
rightKerningGroup = u;
unicode = 0061;
},
{
color = 3;
glyphname = ae;
layers = (
{
anchors = (
{
name = bottom;
position = "{249, 0}";
},
{
name = top;
position = "{391, 440}";
}
);
layerId = "9372F035-DA38-4B54-966C-CEBA9B53DD02";
paths = (
{
closed = 1;
nodes = (
"493 -14 OFFCURVE",
"541 33 OFFCURVE",
"572 76 CURVE",
"555 90 LINE",
"529 54 OFFCURVE",
"484 12 OFFCURVE",
"432 12 CURVE SMOOTH",
"333 12 OFFCURVE",
"330 145 OFFCURVE",
"361 239 CURVE SMOOTH",
"394 343 OFFCURVE",
"471 432 OFFCURVE",
"538 432 CURVE SMOOTH",
"584 432 OFFCURVE",
"588 387 OFFCURVE",
"577 352 CURVE SMOOTH",
"565 315 OFFCURVE",
"527 266 OFFCURVE",
"418 251 CURVE SMOOTH",
"353 242 LINE",
"350 221 LINE",
"439 230 LINE SMOOTH",
"545 241 OFFCURVE",
"616 275 OFFCURVE",
"636 335 CURVE SMOOTH",
"654 390 OFFCURVE",
"625 452 OFFCURVE",
"539 452 CURVE SMOOTH",
"436 452 OFFCURVE",
"322 364 OFFCURVE",
"282 243 CURVE SMOOTH",
"244 126 OFFCURVE",
"279 -14 OFFCURVE",
"419 -14 CURVE SMOOTH"
);
},
{
closed = 1;
nodes = (
"180 -14 OFFCURVE",
"249 29 OFFCURVE",
"287 93 CURVE",
"281 130 LINE",
"260 77 OFFCURVE",
"194 22 OFFCURVE",
"147 22 CURVE SMOOTH",
"116 22 OFFCURVE",
"92 43 OFFCURVE",
"92 75 CURVE SMOOTH",
"92 165 OFFCURVE",
"227 222 OFFCURVE",
"310 247 CURVE",
"313 270 LINE",
"217 244 OFFCURVE",
"17 174 OFFCURVE",
"17 62 CURVE SMOOTH",
"17 12 OFFCURVE",
"61 -14 OFFCURVE",
"118 -14 CURVE SMOOTH"
);
},
{
closed = 1;
nodes = (
"362 247 OFFCURVE",
"374 301 OFFCURVE",
"375 353 CURVE SMOOTH",
"378 418 OFFCURVE",
"339 454 OFFCURVE",
"255 454 CURVE SMOOTH",
"140 454 OFFCURVE",
"92 394 OFFCURVE",
"90 354 CURVE SMOOTH",
"90 330 OFFCURVE",
"101 311 OFFCURVE",
"129 311 CURVE SMOOTH",
"158 311 OFFCURVE",
"175 332 OFFCURVE",
"175 356 CURVE SMOOTH",
"175 389 OFFCURVE",
"202 432 OFFCURVE",
"258 432 CURVE SMOOTH",
"301 432 OFFCURVE",
"316 404 OFFCURVE",
"315 367 CURVE SMOOTH",
"314 336 OFFCURVE",
"304 306 OFFCURVE",
"288 260 CURVE",
"324 118 LINE"
);
}
);
width = 649;
},
{
anchors = (
{
name = bottom;
position = "{288, 0}";
},
{
name = top;
position = "{442, 446}";
}
);
layerId = m002;
paths = (
{
closed = 1;
nodes = (
"574 -14 OFFCURVE",
"638 40 OFFCURVE",
"673 105 CURVE",
"643 123 LINE",
"597 50 OFFCURVE",
"547 25 OFFCURVE",
"501 25 CURVE SMOOTH",
"415 25 OFFCURVE",
"400 113 OFFCURVE",
"440 239 CURVE SMOOTH",
"480 366 OFFCURVE",
"540 424 OFFCURVE",
"579 424 CURVE SMOOTH",
"615 424 OFFCURVE",
"615 372 OFFCURVE",
"603 339 CURVE SMOOTH",
"592 308 OFFCURVE",
"558 265 OFFCURVE",
"458 251 CURVE SMOOTH",
"393 242 LINE",
"390 211 LINE",
"479 218 LINE SMOOTH",
"617 229 OFFCURVE",
"712 267 OFFCURVE",
"736 335 CURVE SMOOTH",
"757 396 OFFCURVE",
"713 460 OFFCURVE",
"595 460 CURVE SMOOTH",
"433 460 OFFCURVE",
"324 339 OFFCURVE",
"290 238 CURVE SMOOTH",
"253 127 OFFCURVE",
"293 -14 OFFCURVE",
"467 -14 CURVE SMOOTH"
);
},
{
closed = 1;
nodes = (
"185 -14 OFFCURVE",
"267 45 OFFCURVE",
"302 102 CURVE",
"289 143 LINE",
"248 75 OFFCURVE",
"202 47 OFFCURVE",
"170 47 CURVE SMOOTH",
"143 47 OFFCURVE",
"131 66 OFFCURVE",
"133 90 CURVE SMOOTH",
"138 139 OFFCURVE",
"201 214 OFFCURVE",
"341 238 CURVE",
"349 271 LINE",
"255 263 OFFCURVE",
"0 187 OFFCURVE",
"-11 71 CURVE SMOOTH",
"-15 29 OFFCURVE",
"12 -14 OFFCURVE",
"92 -14 CURVE SMOOTH"
);
},
{
closed = 1;
nodes = (
"428 257 OFFCURVE",
"441 293 OFFCURVE",
"445 336 CURVE SMOOTH",
"452 420 OFFCURVE",
"405 460 OFFCURVE",
"305 460 CURVE SMOOTH",
"197 460 OFFCURVE",
"94 414 OFFCURVE",
"77 335 CURVE SMOOTH",
"70 304 OFFCURVE",
"80 278 OFFCURVE",
"129 278 CURVE SMOOTH",
"189 278 OFFCURVE",
"200 316 OFFCURVE",
"205 341 CURVE SMOOTH",
"212 377 OFFCURVE",
"215 424 OFFCURVE",
"280 424 CURVE SMOOTH",
"316 424 OFFCURVE",
"342 409 OFFCURVE",
"322 342 CURVE SMOOTH",
"311 305 OFFCURVE",
"300 268 OFFCURVE",
"293 245 CURVE",
"420 219 LINE"
);
}
);
width = 733;
}
);
leftKerningGroup = a;
leftMetricsKey = a;
rightKerningGroup = e;
rightMetricsKey = e;
unicode = 00E6;
},
{
color = 6;
glyphname = b;
layers = (
{
anchors = (
{
name = bottom;
position = "{157, 0}";
},
{
name = top;
position = "{317, 440}";
}
);
background = {
paths = (
{
closed = 1;
nodes = (
"292 -14 OFFCURVE",
"404 77 OFFCURVE",
"444 201 CURVE SMOOTH",
"480 311 OFFCURVE",
"458 454 OFFCURVE",
"333 454 CURVE SMOOTH",
"297 454 OFFCURVE",
"261 438 OFFCURVE",
"231 414 CURVE SMOOTH",
"209 398 OFFCURVE",
"193 379 OFFCURVE",
"177 354 CURVE",
"179 343 LINE",
"296 713 LINE",
"134 710 LINE",
"127 686 LINE",
"147 686 LINE SMOOTH",
"186 686 OFFCURVE",
"201 677 OFFCURVE",
"201 652 CURVE SMOOTH",
"201 643 OFFCURVE",
"199 630 OFFCURVE",
"194 615 CURVE SMOOTH",
"71 233 LINE SMOOTH",
"55 184 OFFCURVE",
"46 142 OFFCURVE",
"46 108 CURVE SMOOTH",
"46 26 OFFCURVE",
"94 -14 OFFCURVE",
"179 -14 CURVE SMOOTH"
);
},
{
closed = 1;
nodes = (
"140 8 OFFCURVE",
"113 38 OFFCURVE",
"113 91 CURVE SMOOTH",
"113 125 OFFCURVE",
"118 169 OFFCURVE",
"137 221 CURVE SMOOTH",
"156 274 LINE SMOOTH",
"184 353 OFFCURVE",
"258 426 OFFCURVE",
"312 426 CURVE SMOOTH",
"400 426 OFFCURVE",
"393 293 OFFCURVE",
"365 208 CURVE SMOOTH",
"331 104 OFFCURVE",
"256 8 OFFCURVE",
"179 8 CURVE SMOOTH"
);
}
);
};
layerId = "9372F035-DA38-4B54-966C-CEBA9B53DD02";
paths = (
{
closed = 1;
nodes = (
"292 -14 OFFCURVE",
"404 77 OFFCURVE",
"444 201 CURVE SMOOTH",
"480 311 OFFCURVE",
"458 454 OFFCURVE",
"333 454 CURVE SMOOTH",
"271 454 OFFCURVE",
"211 408 OFFCURVE",
"177 354 CURVE",
"179 343 LINE",
"296 713 LINE",
"134 710 LINE",
"127 686 LINE",
"147 686 LINE SMOOTH",
"210 686 OFFCURVE",
"207 655 OFFCURVE",
"194 615 CURVE SMOOTH",
"71 233 LINE SMOOTH",
"26 96 OFFCURVE",
"33 -14 OFFCURVE",
"179 -14 CURVE SMOOTH"
);
},
{
closed = 1;
nodes = (
"91 8 OFFCURVE",
"107 138 OFFCURVE",
"137 221 CURVE SMOOTH",
"156 274 LINE SMOOTH",
"184 353 OFFCURVE",
"258 426 OFFCURVE",
"312 426 CURVE SMOOTH",
"400 426 OFFCURVE",
"393 293 OFFCURVE",
"365 208 CURVE SMOOTH",
"331 104 OFFCURVE",
"256 8 OFFCURVE",
"179 8 CURVE SMOOTH"
);
}
);
width = 493;
},
{
anchors = (
{
name = bottom;
position = "{229, 0}";
},
{
name = top;
position = "{389, 440}";
}
);
background = {
anchors = (
{
name = bottom;
position = "{229, 0}";
},
{
name = top;
position = "{389, 440}";
}
);
paths = (
{
closed = 1;
nodes = (
"392 -14 OFFCURVE",
"532 128 OFFCURVE",
"532 300 CURVE SMOOTH",
"532 397 OFFCURVE",
"481 454 OFFCURVE",
"405 454 CURVE SMOOTH",
"369 454 OFFCURVE",
"333 438 OFFCURVE",
"303 414 CURVE SMOOTH",
"281 398 OFFCURVE",
"265 379 OFFCURVE",
"249 354 CURVE",
"251 343 LINE",
"368 713 LINE",
"206 710 LINE",
"199 686 LINE",
"236 686 OFFCURVE",
"274 689 OFFCURVE",
"274 653 CURVE SMOOTH",
"274 644 OFFCURVE",
"272 633 OFFCURVE",
"267 619 CURVE SMOOTH",
"143 233 LINE SMOOTH",
"127 184 OFFCURVE",
"118 142 OFFCURVE",
"118 108 CURVE SMOOTH",
"118 26 OFFCURVE",
"166 -14 OFFCURVE",
"251 -14 CURVE SMOOTH"
);
},
{
closed = 1;
nodes = (
"212 8 OFFCURVE",
"185 38 OFFCURVE",
"185 91 CURVE SMOOTH",
"185 125 OFFCURVE",
"191 169 OFFCURVE",
"209 221 CURVE SMOOTH",
"228 274 LINE SMOOTH",
"257 353 OFFCURVE",
"330 426 OFFCURVE",
"384 426 CURVE SMOOTH",
"427 426 OFFCURVE",
"456 394 OFFCURVE",
"456 317 CURVE SMOOTH",
"456 183 OFFCURVE",
"355 8 OFFCURVE",
"251 8 CURVE SMOOTH"
);
}
);
};
guideLines = (
{
position = "{237, 37}";
}
);
layerId = m002;
paths = (
{
closed = 1;
nodes = (
"348 -14 OFFCURVE",
"482 65 OFFCURVE",
"534 211 CURVE SMOOTH",
"579 339 OFFCURVE",
"527 460 OFFCURVE",
"421 460 CURVE SMOOTH",
"356 460 OFFCURVE",
"279 419 OFFCURVE",
"232 342 CURVE",
"255 343 LINE",
"376 713 LINE",
"148 710 LINE",
"138 676 LINE",
"159 676 LINE SMOOTH",
"213 676 OFFCURVE",
"213 652 OFFCURVE",
"197 604 CURVE SMOOTH",
"79 243 LINE SMOOTH",
"24 75 OFFCURVE",
"66 -14 OFFCURVE",
"223 -14 CURVE SMOOTH"
);
},
{
closed = 1;
nodes = (
"183 37 OFFCURVE",
"170 86 OFFCURVE",
"209 210 CURVE SMOOTH",
"216 232 LINE SMOOTH",
"249 336 OFFCURVE",
"302 394 OFFCURVE",
"352 394 CURVE SMOOTH",
"404 394 OFFCURVE",
"412 327 OFFCURVE",
"375 213 CURVE SMOOTH",
"340 105 OFFCURVE",
"285 37 OFFCURVE",
"233 37 CURVE SMOOTH"
);
}
);
width = 574;
}
);
leftKerningGroup = l;
rightKerningGroup = b;
unicode = 0062;
},
{
color = 6;
glyphname = c;
layers = (
{
anchors = (
{
name = bottom;
position = "{205, 0}";
},
{
name = top;
position = "{305, 440}";
}
);
background = {
anchors = (
{
name = bottom;
position = "{205, 0}";
},
{
name = top;
position = "{305, 440}";
}
);
paths = (
{
closed = 1;
nodes = (
"285 -14 OFFCURVE",
"340 33 OFFCURVE",
"369 90 CURVE",
"351 103 LINE",
"340 84 OFFCURVE",
"328 68 OFFCURVE",
"312 53 CURVE SMOOTH",
"285 26 OFFCURVE",
"250 11 OFFCURVE",
"218 11 CURVE SMOOTH",
"145 11 OFFCURVE",
"115 73 OFFCURVE",
"115 148 CURVE SMOOTH",
"115 275 OFFCURVE",
"218 432 OFFCURVE",
"327 432 CURVE SMOOTH",
"364 432 OFFCURVE",
"359 409 OFFCURVE",
"359 367 CURVE SMOOTH",
"359 343 OFFCURVE",
"375 327 OFFCURVE",
"400 327 CURVE SMOOTH",
"430 327 OFFCURVE",
"445 354 OFFCURVE",
"445 379 CURVE SMOOTH",
"445 405 OFFCURVE",
"432 454 OFFCURVE",
"333 454 CURVE SMOOTH",
"189 454 OFFCURVE",
"37 318 OFFCURVE",
"37 155 CURVE SMOOTH",
"37 56 OFFCURVE",
"93 -14 OFFCURVE",
"201 -14 CURVE SMOOTH"
);
}
);
};
layerId = "9372F035-DA38-4B54-966C-CEBA9B53DD02";
paths = (
{
closed = 1;
nodes = (
"285 -14 OFFCURVE",
"340 33 OFFCURVE",
"369 90 CURVE",
"351 103 LINE",
"325 58 OFFCURVE",
"278 11 OFFCURVE",
"218 11 CURVE SMOOTH",
"108 11 OFFCURVE",
"101 148 OFFCURVE",
"130 239 CURVE SMOOTH",
"163 339 OFFCURVE",
"243 432 OFFCURVE",
"327 432 CURVE SMOOTH",
"364 432 OFFCURVE",
"359 409 OFFCURVE",
"359 367 CURVE SMOOTH",
"359 343 OFFCURVE",
"375 327 OFFCURVE",
"400 327 CURVE SMOOTH",
"430 327 OFFCURVE",
"445 354 OFFCURVE",
"445 379 CURVE SMOOTH",
"445 405 OFFCURVE",
"432 454 OFFCURVE",
"333 454 CURVE SMOOTH",
"214 454 OFFCURVE",
"91 362 OFFCURVE",
"50 238 CURVE SMOOTH",
"14 127 OFFCURVE",
"46 -14 OFFCURVE",
"201 -14 CURVE SMOOTH"
);
}
);
width = 439;
},
{
anchors = (
{
name = bottom;
position = "{219, 0}";
},
{
name = top;
position = "{319, 440}";
}
);
background = {
paths = (
{
closed = 1;
nodes = (
"322 -14 OFFCURVE",
"386 41 OFFCURVE",
"422 107 CURVE",
"395 125 LINE",
"348 51 OFFCURVE",
"296 26 OFFCURVE",
"247 26 CURVE SMOOTH",
"167 26 OFFCURVE",
"147 111 OFFCURVE",
"190 242 CURVE SMOOTH",
"222 337 OFFCURVE",
"273 424 OFFCURVE",
"338 424 CURVE SMOOTH",
"378 424 OFFCURVE",
"366 397 OFFCURVE",
"366 343 CURVE SMOOTH",
"366 310 OFFCURVE",
"389 288 OFFCURVE",
"425 288 CURVE SMOOTH",
"469 288 OFFCURVE",
"491 325 OFFCURVE",
"491 358 CURVE SMOOTH",
"491 402 OFFCURVE",
"450 460 OFFCURVE",
"346 460 CURVE SMOOTH",
"213 460 OFFCURVE",
"75 368 OFFCURVE",
"34 241 CURVE SMOOTH",
"-1 130 OFFCURVE",
"38 -14 OFFCURVE",
"214 -14 CURVE SMOOTH"
);
}
);
};
layerId = m002;
paths = (
{
closed = 1;
nodes = (
"322 -14 OFFCURVE",
"386 41 OFFCURVE",
"422 107 CURVE",
"395 125 LINE",
"349 58 OFFCURVE",
"297 36 OFFCURVE",
"249 36 CURVE SMOOTH",
"162 36 OFFCURVE",
"158 144 OFFCURVE",
"191 246 CURVE SMOOTH",
"221 338 OFFCURVE",
"280 424 OFFCURVE",
"338 424 CURVE SMOOTH",
"378 424 OFFCURVE",
"366 397 OFFCURVE",
"366 343 CURVE SMOOTH",
"366 310 OFFCURVE",
"389 288 OFFCURVE",
"425 288 CURVE SMOOTH",
"469 288 OFFCURVE",
"491 325 OFFCURVE",
"491 358 CURVE SMOOTH",
"491 402 OFFCURVE",
"450 460 OFFCURVE",
"346 460 CURVE SMOOTH",
"213 460 OFFCURVE",
"75 368 OFFCURVE",
"34 241 CURVE SMOOTH",
"-1 130 OFFCURVE",
"38 -14 OFFCURVE",
"214 -14 CURVE SMOOTH"
);
}
);
width = 476;
}
);
leftKerningGroup = o;
leftMetricsKey = o;
rightKerningGroup = o;
unicode = 0063;
},
{
color = 6;
glyphname = d;
layers = (
{
anchors = (
{
name = bottom;
position = "{184, 0}";
},
{
name = center;
position = "{514, 531}";
},
{
name = top;
position = "{323, 440}";
},
{
name = topright;
position = "{620, 710}";
}
);
background = {
paths = (
{
closed = 1;
nodes = (
"434 -14 OFFCURVE",
"474 33 OFFCURVE",
"499 75 CURVE",
"481 87 LINE",
"464 57 OFFCURVE",
"433 19 OFFCURVE",
"404 19 CURVE SMOOTH",
"378 19 OFFCURVE",
"390 60 OFFCURVE",
"398 85 CURVE SMOOTH",
"603 713 LINE",
"441 710 LINE",
"434 686 LINE",
"461 686 LINE SMOOTH",
"515 686 OFFCURVE",
"515 662 OFFCURVE",
"499 614 CURVE SMOOTH",
"417 362 LINE",
"410 417 OFFCURVE",
"377 454 OFFCURVE",
"320 454 CURVE SMOOTH",
"213 454 OFFCURVE",
"85 348 OFFCURVE",
"43 216 CURVE SMOOTH",
"6 104 OFFCURVE",
"36 -14 OFFCURVE",
"163 -14 CURVE SMOOTH",
"228 -14 OFFCURVE",
"287 29 OFFCURVE",
"332 100 CURVE",
"314 39 OFFCURVE",
"312 -14 OFFCURVE",
"377 -14 CURVE SMOOTH"
);
},
{
closed = 1;
nodes = (
"157 318 OFFCURVE",
"245 428 OFFCURVE",
"326 428 CURVE SMOOTH",
"406 428 OFFCURVE",
"402 326 OFFCURVE",
"381 250 CURVE",
"370 218 LINE SMOOTH",
"334 118 OFFCURVE",
"261 12 OFFCURVE",
"173 12 CURVE SMOOTH",
"87 12 OFFCURVE",
"95 130 OFFCURVE",
"120 206 CURVE SMOOTH"
);
}
);
};
layerId = "9372F035-DA38-4B54-966C-CEBA9B53DD02";
paths = (
{
closed = 1;
nodes = (
"234 -14 OFFCURVE",
"299 38 OFFCURVE",
"345 122 CURVE",
"340 126 LINE",
"316 55 OFFCURVE",
"303 -14 OFFCURVE",
"377 -14 CURVE SMOOTH",
"434 -14 OFFCURVE",
"474 33 OFFCURVE",
"499 75 CURVE",
"481 87 LINE",
"464 57 OFFCURVE",
"433 19 OFFCURVE",
"404 19 CURVE SMOOTH",
"378 19 OFFCURVE",
"390 60 OFFCURVE",
"398 85 CURVE SMOOTH",
"603 713 LINE",
"441 710 LINE",
"434 686 LINE",
"461 686 LINE SMOOTH",
"515 686 OFFCURVE",
"515 662 OFFCURVE",
"499 614 CURVE SMOOTH",
"407 332 LINE",
"418 338 LINE",
"419 406 OFFCURVE",
"385 454 OFFCURVE",
"320 454 CURVE SMOOTH",
"213 454 OFFCURVE",
"85 348 OFFCURVE",
"43 216 CURVE SMOOTH",
"6 104 OFFCURVE",
"36 -14 OFFCURVE",
"163 -14 CURVE SMOOTH"
);
},
{
closed = 1;
nodes = (
"87 12 OFFCURVE",
"95 130 OFFCURVE",
"120 206 CURVE SMOOTH",
"157 318 OFFCURVE",
"245 428 OFFCURVE",
"326 428 CURVE SMOOTH",
"406 428 OFFCURVE",
"405 326 OFFCURVE",
"374 229 CURVE SMOOTH",
"337 116 OFFCURVE",
"261 12 OFFCURVE",
"173 12 CURVE SMOOTH"
);
}
);
width = 540;
},
{
anchors = (
{
name = bottom;
position = "{219, 0}";
},
{
name = center;
position = "{530, 531}";
},
{
name = top;
position = "{449, 710}";
},
{
name = topright;
position = "{677, 710}";
}
);
background = {
paths = (
{
closed = 1;
nodes = (
"283 -14 OFFCURVE",
"346 37 OFFCURVE",
"393 120 CURVE",
"466 318 LINE",
"475 395 OFFCURVE",
"440 454 OFFCURVE",
"369 454 CURVE SMOOTH",
"262 454 OFFCURVE",
"134 348 OFFCURVE",
"92 216 CURVE SMOOTH",
"55 104 OFFCURVE",
"85 -14 OFFCURVE",
"212 -14 CURVE SMOOTH"
);
},
{
closed = 1;
nodes = (
"136 12 OFFCURVE",
"144 130 OFFCURVE",
"169 206 CURVE SMOOTH",
"206 318 OFFCURVE",
"294 428 OFFCURVE",
"375 428 CURVE SMOOTH",
"460 428 OFFCURVE",
"450 311 OFFCURVE",
"425 235 CURVE SMOOTH",
"391 130 OFFCURVE",
"315 12 OFFCURVE",
"222 12 CURVE SMOOTH"
);
},
{
closed = 1;
nodes = (
"483 -14 OFFCURVE",
"523 33 OFFCURVE",
"548 75 CURVE",
"530 87 LINE",
"513 57 OFFCURVE",
"482 19 OFFCURVE",
"453 19 CURVE SMOOTH",
"442 19 OFFCURVE",
"437 26 OFFCURVE",
"437 39 CURVE SMOOTH",
"437 50 OFFCURVE",
"440 65 OFFCURVE",
"447 85 CURVE SMOOTH",
"652 713 LINE",
"490 710 LINE",
"483 686 LINE",
"502 686 LINE SMOOTH",
"541 686 OFFCURVE",
"556 677 OFFCURVE",
"556 652 CURVE SMOOTH",
"556 643 OFFCURVE",
"554 630 OFFCURVE",
"549 615 CURVE SMOOTH",
"385 113 LINE SMOOTH",
"376 87 OFFCURVE",
"370 62 OFFCURVE",
"370 41 CURVE SMOOTH",
"370 8 OFFCURVE",
"385 -14 OFFCURVE",
"426 -14 CURVE SMOOTH"
);
}
);
};
layerId = m002;
paths = (
{
closed = 1;
nodes = (
"221 -14 OFFCURVE",
"306 35 OFFCURVE",
"356 131 CURVE",
"342 150 LINE",
"317 76 OFFCURVE",
"307 -14 OFFCURVE",
"402 -14 CURVE SMOOTH",
"470 -14 OFFCURVE",
"523 22 OFFCURVE",
"555 93 CURVE",
"527 111 LINE",
"503 64 OFFCURVE",
"483 45 OFFCURVE",
"469 45 CURVE SMOOTH",
"452 45 OFFCURVE",
"450 65 OFFCURVE",
"463 104 CURVE SMOOTH",
"661 713 LINE",
"434 710 LINE",
"424 676 LINE",
"445 676 LINE SMOOTH",
"499 676 OFFCURVE",
"499 652 OFFCURVE",
"483 604 CURVE SMOOTH",
"382 294 LINE",
"400 294 LINE",
"431 390 OFFCURVE",
"388 460 OFFCURVE",
"301 460 CURVE SMOOTH",
"197 460 OFFCURVE",
"86 368 OFFCURVE",
"40 235 CURVE SMOOTH",
"-1 115 OFFCURVE",
"23 -14 OFFCURVE",
"145 -14 CURVE SMOOTH"
);
},
{
closed = 1;
nodes = (
"167 52 OFFCURVE",
"157 111 OFFCURVE",
"191 214 CURVE SMOOTH",
"224 313 OFFCURVE",
"277 393 OFFCURVE",
"333 393 CURVE SMOOTH",
"383 393 OFFCURVE",
"397 328 OFFCURVE",
"359 218 CURVE SMOOTH",
"324 116 OFFCURVE",
"270 52 OFFCURVE",
"217 52 CURVE SMOOTH"
);
}
);
width = 581;
}
);
leftKerningGroup = o;
leftMetricsKey = a;
rightKerningGroup = l;
unicode = 0064;
},
{
color = 6;
glyphname = eth;
layers = (
{
anchors = (
{
name = bottom;
position = "{177, 0}";
},
{
name = center;
position = "{257, 220}";
},
{
name = ogonek;
position = "{320, 0}";
},
{
name = top;
position = "{321, 440}";
},
{
name = topright;
position = "{531, 440}";
}
);
background = {
anchors = (
{
name = bottom;
position = "{177, 0}";
},
{
name = center;
position = "{257, 220}";
},
{
name = ogonek;
position = "{320, 0}";
},
{
name = top;
position = "{321, 440}";
},
{
name = topright;
position = "{531, 440}";
}
);
paths = (
{
closed = 1;
nodes = (
"393 -14 OFFCURVE",
"504 202 OFFCURVE",
"504 384 CURVE SMOOTH",
"504 522 OFFCURVE",
"420 659 OFFCURVE",
"322 724 CURVE",
"300 724 LINE",
"404 606 OFFCURVE",
"438 530 OFFCURVE",
"438 387 CURVE",
"449 394 LINE",
"423 430 OFFCURVE",
"378 454 OFFCURVE",
"318 454 CURVE SMOOTH",
"168 454 OFFCURVE",
"36 308 OFFCURVE",
"36 149 CURVE SMOOTH",
"36 62 OFFCURVE",
"89 -14 OFFCURVE",
"196 -14 CURVE SMOOTH"
);
},
{
closed = 1;
nodes = (
"138 8 OFFCURVE",
"107 47 OFFCURVE",
"107 121 CURVE SMOOTH",
"107 233 OFFCURVE",
"198 432 OFFCURVE",
"320 432 CURVE SMOOTH",
"377 432 OFFCURVE",
"408 394 OFFCURVE",
"408 322 CURVE SMOOTH",
"408 209 OFFCURVE",
"317 8 OFFCURVE",
"195 8 CURVE SMOOTH"
);
},
{
closed = 1;
nodes = (
"543 619 LINE",
"543 643 LINE",
"270 595 LINE",
"270 570 LINE"
);
}
);
};
layerId = "9372F035-DA38-4B54-966C-CEBA9B53DD02";
paths = (
{
closed = 1;
nodes = (
"393 -14 OFFCURVE",
"504 202 OFFCURVE",
"504 384 CURVE SMOOTH",
"504 522 OFFCURVE",
"420 659 OFFCURVE",
"322 724 CURVE",
"311 710 LINE",
"404 606 OFFCURVE",
"438 530 OFFCURVE",
"438 387 CURVE",
"449 394 LINE",
"423 430 OFFCURVE",
"378 454 OFFCURVE",
"318 454 CURVE SMOOTH",
"198 454 OFFCURVE",
"90 361 OFFCURVE",
"51 242 CURVE SMOOTH",
"11 119 OFFCURVE",
"51 -14 OFFCURVE",
"196 -14 CURVE SMOOTH"
);
},
{
closed = 1;
nodes = (
"91 8 OFFCURVE",
"96 134 OFFCURVE",
"126 225 CURVE SMOOTH",
"159 326 OFFCURVE",
"231 432 OFFCURVE",
"320 432 CURVE SMOOTH",
"425 432 OFFCURVE",
"419 308 OFFCURVE",
"389 215 CURVE SMOOTH",
"356 114 OFFCURVE",
"284 8 OFFCURVE",
"195 8 CURVE SMOOTH"
);
},
{
closed = 1;
nodes = (
"543 619 LINE",
"543 643 LINE",
"270 595 LINE",
"270 570 LINE"
);
}
);
width = 519;
},
{
anchors = (
{
name = bottom;
position = "{190, 0}";
},
{
name = center;
position = "{270, 220}";
},
{
name = ogonek;
position = "{333, 0}";
},
{
name = top;
position = "{334, 440}";
},
{
name = topright;
position = "{544, 440}";
}
);
background = {
anchors = (
{
name = bottom;
position = "{190, 0}";
},
{
name = center;
position = "{270, 220}";
},
{
name = ogonek;
position = "{333, 0}";
},
{
name = top;
position = "{334, 440}";
},
{
name = topright;
position = "{544, 440}";
}
);
paths = (
{
closed = 1;
nodes = (
"346 -14 OFFCURVE",
"469 79 OFFCURVE",
"509 202 CURVE SMOOTH",
"551 332 OFFCURVE",
"508 460 OFFCURVE",
"334 460 CURVE SMOOTH",
"201 460 OFFCURVE",
"77 367 OFFCURVE",
"38 245 CURVE SMOOTH",
"-7 110 OFFCURVE",
"45 -14 OFFCURVE",
"211 -14 CURVE SMOOTH"
);
},
{
closed = 1;
nodes = (
"151 36 OFFCURVE",
"166 160 OFFCURVE",
"189 227 CURVE SMOOTH",
"231 356 OFFCURVE",
"286 410 OFFCURVE",
"325 410 CURVE SMOOTH",
"395 410 OFFCURVE",
"377 275 OFFCURVE",
"358 217 CURVE SMOOTH",
"317 92 OFFCURVE",
"259 36 OFFCURVE",
"219 36 CURVE SMOOTH"
);
}
);
};
layerId = m002;
paths = (
{
closed = 1;
nodes = (
"391 -14 OFFCURVE",
"531 150 OFFCURVE",
"531 336 CURVE SMOOTH",
"531 473 OFFCURVE",
"468 632 OFFCURVE",
"335 724 CURVE",
"297 710 LINE",
"375 596 OFFCURVE",
"417 473 OFFCURVE",
"384 371 CURVE",
"462 394 LINE",
"424 439 OFFCURVE",
"372 459 OFFCURVE",
"317 459 CURVE SMOOTH",
"202 459 OFFCURVE",
"76 371 OFFCURVE",
"34 241 CURVE SMOOTH",
"-10 107 OFFCURVE",
"44 -14 OFFCURVE",
"209 -14 CURVE SMOOTH"
);
},
{
closed = 1;
nodes = (
"171 36 OFFCURVE",
"146 103 OFFCURVE",
"192 243 CURVE SMOOTH",
"229 354 OFFCURVE",
"286 410 OFFCURVE",
"328 410 CURVE SMOOTH",
"373 410 OFFCURVE",
"398 343 OFFCURVE",
"354 207 CURVE SMOOTH",
"318 94 OFFCURVE",
"258 36 OFFCURVE",
"216 36 CURVE SMOOTH"
);
},
{
closed = 1;
nodes = (
"556 603 LINE",
"556 643 LINE",
"253 595 LINE",
"253 554 LINE"
);
}
);
width = 541;
}
);
leftKerningGroup = o;
leftMetricsKey = o;
rightKerningGroup = O;
rightMetricsKey = o;
unicode = 00F0;
},
{
color = 6;
glyphname = e;
layers = (
{
anchors = (
{
name = bottom;
position = "{187, 0}";
},
{
name = ogonek;
position = "{279, 0}";
},
{
name = top;
position = "{299, 440}";
}
);
background = {
anchors = (
{
name = bottom;
position = "{187, 0}";
},
{
name = ogonek;
position = "{281, 0}";
},
{
name = top;
position = "{299, 440}";
}
);
paths = (
{
closed = 1;
nodes = (
"262 -14 OFFCURVE",
"310 33 OFFCURVE",
"341 76 CURVE",
"324 90 LINE",
"298 54 OFFCURVE",
"253 12 OFFCURVE",
"201 12 CURVE SMOOTH",
"136 12 OFFCURVE",
"112 76 OFFCURVE",
"112 134 CURVE SMOOTH",
"112 275 OFFCURVE",
"218 432 OFFCURVE",
"307 432 CURVE SMOOTH",
"339 432 OFFCURVE",
"351 411 OFFCURVE",
"351 381 CURVE SMOOTH",
"350 347 OFFCURVE",
"329 271 OFFCURVE",
"187 251 CURVE SMOOTH",
"122 242 LINE",
"119 221 LINE",
"208 230 LINE SMOOTH",
"331 243 OFFCURVE",
"408 287 OFFCURVE",
"410 366 CURVE SMOOTH",
"410 418 OFFCURVE",
"371 452 OFFCURVE",
"308 452 CURVE SMOOTH",
"181 452 OFFCURVE",
"37 318 OFFCURVE",
"37 154 CURVE SMOOTH",
"37 66 OFFCURVE",
"82 -14 OFFCURVE",
"188 -14 CURVE SMOOTH"
);
}
);
};
layerId = "9372F035-DA38-4B54-966C-CEBA9B53DD02";
paths = (
{
closed = 1;
nodes = (
"262 -14 OFFCURVE",
"310 33 OFFCURVE",
"341 76 CURVE",
"324 90 LINE",
"298 54 OFFCURVE",
"253 12 OFFCURVE",
"201 12 CURVE SMOOTH",
"102 12 OFFCURVE",
"99 145 OFFCURVE",
"130 239 CURVE SMOOTH",
"163 343 OFFCURVE",
"240 432 OFFCURVE",
"307 432 CURVE SMOOTH",
"353 432 OFFCURVE",
"357 387 OFFCURVE",
"346 352 CURVE SMOOTH",
"334 315 OFFCURVE",
"296 266 OFFCURVE",
"187 251 CURVE SMOOTH",
"122 242 LINE",
"119 221 LINE",
"208 230 LINE SMOOTH",
"314 241 OFFCURVE",
"385 275 OFFCURVE",
"405 335 CURVE SMOOTH",
"423 390 OFFCURVE",
"394 452 OFFCURVE",
"308 452 CURVE SMOOTH",
"205 452 OFFCURVE",
"91 364 OFFCURVE",
"51 243 CURVE SMOOTH",
"13 126 OFFCURVE",
"48 -14 OFFCURVE",
"188 -14 CURVE SMOOTH"
);
}
);
width = 418;
},
{
anchors = (
{
name = bottom;
position = "{201, 0}";
},
{
name = ogonek;
position = "{326, 0}";
},
{
name = top;
position = "{323, 440}";
}
);
background = {
paths = (
{
closed = 1;
nodes = (
"317 -14 OFFCURVE",
"381 40 OFFCURVE",
"416 105 CURVE",
"386 123 LINE",
"340 50 OFFCURVE",
"290 25 OFFCURVE",
"244 25 CURVE SMOOTH",
"158 25 OFFCURVE",
"143 113 OFFCURVE",
"183 239 CURVE SMOOTH",
"224 367 OFFCURVE",
"283 424 OFFCURVE",
"321 424 CURVE SMOOTH",
"358 424 OFFCURVE",
"358 373 OFFCURVE",
"346 339 CURVE SMOOTH",
"335 308 OFFCURVE",
"301 265 OFFCURVE",
"201 251 CURVE SMOOTH",
"136 242 LINE",
"133 211 LINE",
"222 218 LINE SMOOTH",
"360 229 OFFCURVE",
"457 268 OFFCURVE",
"479 335 CURVE SMOOTH",
"499 397 OFFCURVE",
"456 460 OFFCURVE",
"339 460 CURVE SMOOTH",
"176 460 OFFCURVE",
"67 339 OFFCURVE",
"33 238 CURVE SMOOTH",
"-4 127 OFFCURVE",
"36 -14 OFFCURVE",
"210 -14 CURVE SMOOTH"
);
}
);
};
layerId = m002;
paths = (
{
closed = 1;
nodes = (
"317 -14 OFFCURVE",
"381 40 OFFCURVE",
"416 105 CURVE",
"386 123 LINE",
"340 57 OFFCURVE",
"290 35 OFFCURVE",
"244 35 CURVE SMOOTH",
"153 35 OFFCURVE",
"151 142 OFFCURVE",
"184 244 CURVE SMOOTH",
"214 336 OFFCURVE",
"273 424 OFFCURVE",
"321 424 CURVE SMOOTH",
"358 424 OFFCURVE",
"358 373 OFFCURVE",
"346 339 CURVE SMOOTH",
"335 308 OFFCURVE",
"301 265 OFFCURVE",
"201 251 CURVE SMOOTH",
"136 242 LINE",
"133 211 LINE",
"222 218 LINE SMOOTH",
"360 229 OFFCURVE",
"457 268 OFFCURVE",
"479 335 CURVE SMOOTH",
"499 397 OFFCURVE",
"456 460 OFFCURVE",
"339 460 CURVE SMOOTH",
"176 460 OFFCURVE",
"67 339 OFFCURVE",
"33 238 CURVE SMOOTH",
"-4 127 OFFCURVE",
"36 -14 OFFCURVE",
"210 -14 CURVE SMOOTH"
);
}
);
width = 476;
}
);
leftKerningGroup = o;
leftMetricsKey = o;
rightKerningGroup = o;
unicode = 0065;
},
{
color = 6;
glyphname = f;
layers = (
{
background = {
paths = (
{
closed = 1;
nodes = (
"-24 -290 OFFCURVE",
"29 -260 OFFCURVE",
"73 -127 CURVE SMOOTH",
"315 611 LINE SMOOTH",
"339 684 OFFCURVE",
"380 702 OFFCURVE",
"406 702 CURVE SMOOTH",
"432 702 OFFCURVE",
"441 689 OFFCURVE",
"441 651 CURVE SMOOTH",
"441 622 OFFCURVE",
"451 601 OFFCURVE",
"482 601 CURVE SMOOTH",
"515 601 OFFCURVE",
"528 627 OFFCURVE",
"528 654 CURVE SMOOTH",
"528 689 OFFCURVE",
"497 724 OFFCURVE",
"424 724 CURVE SMOOTH",
"338 724 OFFCURVE",
"265 683 OFFCURVE",
"222 552 CURVE SMOOTH",
"1 -127 LINE SMOOTH",
"-27 -213 OFFCURVE",
"-58 -268 OFFCURVE",
"-93 -268 CURVE SMOOTH",
"-137 -268 OFFCURVE",
"-114 -170 OFFCURVE",
"-173 -170 CURVE SMOOTH",
"-201 -170 OFFCURVE",
"-222 -190 OFFCURVE",
"-222 -217 CURVE SMOOTH",
"-222 -253 OFFCURVE",
"-193 -290 OFFCURVE",
"-111 -290 CURVE SMOOTH"
);
},
{
closed = 1;
nodes = (
"358 416 LINE",
"366 440 LINE",
"99 440 LINE",
"91 416 LINE"
);
}
);
};
guideLines = (
{
angle = 72;
position = "{60, 54}";
}
);
layerId = "9372F035-DA38-4B54-966C-CEBA9B53DD02";
paths = (
{
closed = 1;
nodes = (
"-24 -290 OFFCURVE",
"29 -260 OFFCURVE",
"73 -127 CURVE SMOOTH",
"315 611 LINE SMOOTH",
"339 684 OFFCURVE",
"380 702 OFFCURVE",
"406 702 CURVE SMOOTH",
"432 702 OFFCURVE",
"441 689 OFFCURVE",
"441 651 CURVE SMOOTH",
"441 622 OFFCURVE",
"451 601 OFFCURVE",
"482 601 CURVE SMOOTH",
"515 601 OFFCURVE",
"528 627 OFFCURVE",
"528 654 CURVE SMOOTH",
"528 689 OFFCURVE",
"497 724 OFFCURVE",
"424 724 CURVE SMOOTH",
"338 724 OFFCURVE",
"265 683 OFFCURVE",
"222 552 CURVE SMOOTH",
"1 -127 LINE SMOOTH",
"-27 -213 OFFCURVE",
"-58 -268 OFFCURVE",
"-93 -268 CURVE SMOOTH",
"-137 -268 OFFCURVE",
"-114 -170 OFFCURVE",
"-173 -170 CURVE SMOOTH",
"-201 -170 OFFCURVE",
"-222 -190 OFFCURVE",
"-222 -217 CURVE SMOOTH",
"-222 -253 OFFCURVE",
"-193 -290 OFFCURVE",
"-111 -290 CURVE SMOOTH"
);
},
{
closed = 1;
nodes = (
"358 416 LINE",
"366 440 LINE",
"99 440 LINE",
"91 416 LINE"
);
}
);
width = 330;
},
{
background = {
paths = (
{
closed = 1;
nodes = (
"6 -304 OFFCURVE",
"79 -260 OFFCURVE",
"123 -127 CURVE",
"396 709 LINE SMOOTH",
"424 796 OFFCURVE",
"446 864 OFFCURVE",
"482 864 CURVE SMOOTH",
"538 864 OFFCURVE",
"459 736 OFFCURVE",
"567 736 CURVE SMOOTH",
"621 736 OFFCURVE",
"651 768 OFFCURVE",
"651 807 CURVE SMOOTH",
"651 860 OFFCURVE",
"595 900 OFFCURVE",
"487 900 CURVE SMOOTH",
"373 900 OFFCURVE",
"299 856 OFFCURVE",
"256 723 CURVE SMOOTH",
"-17 -113 LINE",
"-45 -200 OFFCURVE",
"-67 -268 OFFCURVE",
"-103 -268 CURVE SMOOTH",
"-159 -268 OFFCURVE",
"-80 -140 OFFCURVE",
"-188 -140 CURVE SMOOTH",
"-242 -140 OFFCURVE",
"-272 -172 OFFCURVE",
"-272 -211 CURVE SMOOTH",
"-272 -264 OFFCURVE",
"-216 -304 OFFCURVE",
"-108 -304 CURVE SMOOTH"
);
},
{
closed = 1;
nodes = (
"370 416 LINE",
"378 440 LINE",
"111 440 LINE",
"103 416 LINE"
);
}
);
};
guideLines = (
{
angle = 72;
position = "{72, 54}";
}
);
layerId = m002;
paths = (
{
closed = 1;
nodes = (
"-1 -294 OFFCURVE",
"82 -251 OFFCURVE",
"126 -117 CURVE SMOOTH",
"339 533 LINE SMOOTH",
"367 620 OFFCURVE",
"389 688 OFFCURVE",
"425 688 CURVE SMOOTH",
"451 688 OFFCURVE",
"448 661 OFFCURVE",
"448 632 CURVE SMOOTH",
"448 597 OFFCURVE",
"452 560 OFFCURVE",
"510 560 CURVE SMOOTH",
"564 560 OFFCURVE",
"594 592 OFFCURVE",
"594 631 CURVE SMOOTH",
"594 680 OFFCURVE",
"562 724 OFFCURVE",
"450 724 CURVE SMOOTH",
"326 724 OFFCURVE",
"243 681 OFFCURVE",
"199 547 CURVE SMOOTH",
"-14 -103 LINE SMOOTH",
"-42 -190 OFFCURVE",
"-64 -258 OFFCURVE",
"-100 -258 CURVE SMOOTH",
"-156 -258 OFFCURVE",
"-77 -130 OFFCURVE",
"-185 -130 CURVE SMOOTH",
"-239 -130 OFFCURVE",
"-269 -162 OFFCURVE",
"-269 -201 CURVE SMOOTH",
"-269 -254 OFFCURVE",
"-220 -294 OFFCURVE",
"-125 -294 CURVE SMOOTH"
);
},
{
closed = 1;
nodes = (
"405 406 LINE",
"418 446 LINE",
"96 446 LINE",
"83 406 LINE"
);
}
);
width = 365;
}
);
leftKerningGroup = f;
rightKerningGroup = f;
unicode = 0066;
},
{
color = 6;
glyphname = g;
layers = (
{
anchors = (
{
name = top;
position = "{296, 440}";
}
);
background = {
anchors = (
{
name = top;
position = "{286, 440}";
}
);
paths = (
{
closed = 1;
nodes = (
"363 -290 OFFCURVE",
"400 -167 OFFCURVE",
"400 -111 CURVE SMOOTH",
"400 -48 OFFCURVE",
"365 7 OFFCURVE",
"251 21 CURVE SMOOTH",
"131 36 LINE SMOOTH",
"82 42 OFFCURVE",
"64 61 OFFCURVE",
"64 81 CURVE SMOOTH",
"64 110 OFFCURVE",
"97 140 OFFCURVE",
"167 164 CURVE",
"152 181 LINE",
"60 150 OFFCURVE",
"21 107 OFFCURVE",
"21 56 CURVE SMOOTH",
"21 9 OFFCURVE",
"60 -25 OFFCURVE",
"136 -35 CURVE SMOOTH",
"265 -52 LINE SMOOTH",
"332 -61 OFFCURVE",
"355 -99 OFFCURVE",
"355 -135 CURVE SMOOTH",
"355 -204 OFFCURVE",
"292 -268 OFFCURVE",
"170 -268 CURVE SMOOTH",
"57 -268 OFFCURVE",
"27 -224 OFFCURVE",
"27 -197 CURVE SMOOTH",
"27 -170 OFFCURVE",
"46 -149 OFFCURVE",
"46 -124 CURVE SMOOTH",
"46 -106 OFFCURVE",
"35 -83 OFFCURVE",
"5 -83 CURVE SMOOTH",
"-24 -83 OFFCURVE",
"-47 -112 OFFCURVE",
"-47 -148 CURVE SMOOTH",
"-47 -206 OFFCURVE",
"19 -290 OFFCURVE",
"167 -290 CURVE SMOOTH"
);
},
{
closed = 1;
nodes = (
"352 134 OFFCURVE",
"447 212 OFFCURVE",
"447 315 CURVE SMOOTH",
"447 384 OFFCURVE",
"399 453 OFFCURVE",
"293 453 CURVE SMOOTH",
"180 453 OFFCURVE",
"91 374 OFFCURVE",
"91 272 CURVE SMOOTH",
"91 208 OFFCURVE",
"131 134 OFFCURVE",
"251 134 CURVE SMOOTH"
);
},
{
closed = 1;
nodes = (
"192 158 OFFCURVE",
"159 197 OFFCURVE",
"159 250 CURVE SMOOTH",
"159 330 OFFCURVE",
"209 429 OFFCURVE",
"295 429 CURVE SMOOTH",
"347 429 OFFCURVE",
"379 391 OFFCURVE",
"379 338 CURVE SMOOTH",
"379 267 OFFCURVE",
"334 158 OFFCURVE",
"241 158 CURVE SMOOTH"
);
},
{
closed = 1;
nodes = (
"560 378 OFFCURVE",
"575 399 OFFCURVE",
"575 419 CURVE SMOOTH",
"575 452 OFFCURVE",
"546 478 OFFCURVE",
"502 478 CURVE SMOOTH",
"460 478 OFFCURVE",
"407 452 OFFCURVE",
"384 413 CURVE",
"402 403 LINE",
"435 439 OFFCURVE",
"453 449 OFFCURVE",
"469 449 CURVE SMOOTH",
"488 449 OFFCURVE",
"492 435 OFFCURVE",
"492 417 CURVE SMOOTH",
"492 391 OFFCURVE",
"512 378 OFFCURVE",
"534 378 CURVE SMOOTH"
);
}
);
};
layerId = "9372F035-DA38-4B54-966C-CEBA9B53DD02";
paths = (
{
closed = 1;
nodes = (
"300 -290 OFFCURVE",
"400 -222 OFFCURVE",
"400 -110 CURVE SMOOTH",
"400 -51 OFFCURVE",
"364 7 OFFCURVE",
"251 21 CURVE SMOOTH",
"131 36 LINE SMOOTH",
"82 42 OFFCURVE",
"64 61 OFFCURVE",
"64 81 CURVE SMOOTH",
"64 110 OFFCURVE",
"97 140 OFFCURVE",
"167 164 CURVE",
"152 181 LINE",
"60 150 OFFCURVE",
"21 107 OFFCURVE",
"21 56 CURVE SMOOTH",
"21 9 OFFCURVE",
"60 -25 OFFCURVE",
"136 -35 CURVE SMOOTH",
"265 -52 LINE SMOOTH",
"330 -61 OFFCURVE",
"355 -98 OFFCURVE",
"355 -137 CURVE SMOOTH",
"355 -218 OFFCURVE",
"271 -268 OFFCURVE",
"170 -268 CURVE SMOOTH",
"57 -268 OFFCURVE",
"27 -224 OFFCURVE",
"27 -197 CURVE SMOOTH",
"27 -170 OFFCURVE",
"46 -149 OFFCURVE",
"46 -124 CURVE SMOOTH",
"46 -106 OFFCURVE",
"35 -83 OFFCURVE",
"5 -83 CURVE SMOOTH",
"-24 -83 OFFCURVE",
"-47 -112 OFFCURVE",
"-47 -148 CURVE SMOOTH",
"-47 -206 OFFCURVE",
"19 -290 OFFCURVE",
"167 -290 CURVE SMOOTH"
);
},
{
closed = 1;
nodes = (
"335 134 OFFCURVE",
"414 187 OFFCURVE",
"439 264 CURVE SMOOTH",
"467 352 OFFCURVE",
"421 453 OFFCURVE",
"293 453 CURVE SMOOTH",
"200 453 OFFCURVE",
"124 400 OFFCURVE",
"99 324 CURVE SMOOTH",
"73 243 OFFCURVE",
"107 134 OFFCURVE",
"251 134 CURVE SMOOTH"
);
},
{
closed = 1;
nodes = (
"161 158 OFFCURVE",
"146 244 OFFCURVE",
"170 318 CURVE SMOOTH",
"189 377 OFFCURVE",
"233 429 OFFCURVE",
"295 429 CURVE SMOOTH",
"377 429 OFFCURVE",
"392 347 OFFCURVE",
"368 271 CURVE SMOOTH",
"349 213 OFFCURVE",
"307 158 OFFCURVE",
"241 158 CURVE SMOOTH"
);
},
{
closed = 1;
nodes = (
"560 378 OFFCURVE",
"575 399 OFFCURVE",
"575 419 CURVE SMOOTH",
"575 452 OFFCURVE",
"546 478 OFFCURVE",
"502 478 CURVE SMOOTH",
"460 478 OFFCURVE",
"407 452 OFFCURVE",
"384 413 CURVE",
"402 403 LINE",
"435 439 OFFCURVE",
"453 449 OFFCURVE",
"469 449 CURVE SMOOTH",
"488 449 OFFCURVE",
"492 435 OFFCURVE",
"492 417 CURVE SMOOTH",
"492 391 OFFCURVE",
"512 378 OFFCURVE",
"534 378 CURVE SMOOTH"
);
}
);
width = 534;
},
{
anchors = (
{
name = top;
position = "{304, 440}";
}
);
background = {
paths = (
{
closed = 1;
nodes = (
"302 -290 OFFCURVE",
"430 -234 OFFCURVE",
"430 -104 CURVE SMOOTH",
"430 -34 OFFCURVE",
"393 30 OFFCURVE",
"268 46 CURVE SMOOTH",
"145 62 LINE SMOOTH",
"104 67 OFFCURVE",
"89 79 OFFCURVE",
"89 95 CURVE SMOOTH",
"89 117 OFFCURVE",
"119 146 OFFCURVE",
"171 165 CURVE",
"134 179 LINE",
"38 147 OFFCURVE",
"-2 99 OFFCURVE",
"-2 42 CURVE SMOOTH",
"-2 -10 OFFCURVE",
"32 -52 OFFCURVE",
"142 -67 CURVE SMOOTH",
"262 -83 LINE SMOOTH",
"309 -89 OFFCURVE",
"333 -114 OFFCURVE",
"333 -154 CURVE SMOOTH",
"333 -199 OFFCURVE",
"282 -254 OFFCURVE",
"176 -254 CURVE SMOOTH",
"91 -254 OFFCURVE",
"67 -219 OFFCURVE",
"67 -194 CURVE SMOOTH",
"67 -175 OFFCURVE",
"81 -153 OFFCURVE",
"81 -133 CURVE SMOOTH",
"81 -110 OFFCURVE",
"61 -81 OFFCURVE",
"13 -81 CURVE SMOOTH",
"-43 -81 OFFCURVE",
"-73 -120 OFFCURVE",
"-73 -156 CURVE SMOOTH",
"-73 -212 OFFCURVE",
"0 -290 OFFCURVE",
"163 -290 CURVE SMOOTH"
);
},
{
closed = 1;
nodes = (
"355 138 OFFCURVE",
"449 185 OFFCURVE",
"477 269 CURVE SMOOTH",
"506 356 OFFCURVE",
"456 460 OFFCURVE",
"301 460 CURVE SMOOTH",
"192 460 OFFCURVE",
"100 408 OFFCURVE",
"74 328 CURVE SMOOTH",
"48 248 OFFCURVE",
"88 138 OFFCURVE",
"249 138 CURVE SMOOTH"
);
},
{
closed = 1;
nodes = (
"201 173 OFFCURVE",
"183 248 OFFCURVE",
"206 323 CURVE SMOOTH",
"221 371 OFFCURVE",
"254 424 OFFCURVE",
"298 424 CURVE SMOOTH",
"351 424 OFFCURVE",
"368 350 OFFCURVE",
"346 277 CURVE SMOOTH",
"328 217 OFFCURVE",
"292 173 OFFCURVE",
"253 173 CURVE SMOOTH"
);
},
{
closed = 1;
nodes = (
"586 384 OFFCURVE",
"611 414 OFFCURVE",
"611 451 CURVE SMOOTH",
"611 490 OFFCURVE",
"582 524 OFFCURVE",
"526 524 CURVE SMOOTH",
"467 524 OFFCURVE",
"416 485 OFFCURVE",
"389 426 CURVE",
"419 414 LINE",
"435 442 OFFCURVE",
"457 460 OFFCURVE",
"473 460 CURVE SMOOTH",
"487 460 OFFCURVE",
"492 450 OFFCURVE",
"492 430 CURVE SMOOTH",
"492 400 OFFCURVE",
"513 384 OFFCURVE",
"544 384 CURVE SMOOTH"
);
}
);
};
layerId = m002;
paths = (
{
closed = 1;
nodes = (
"311 -290 OFFCURVE",
"447 -235 OFFCURVE",
"447 -103 CURVE SMOOTH",
"447 -29 OFFCURVE",
"403 32 OFFCURVE",
"273 49 CURVE SMOOTH",
"150 65 LINE SMOOTH",
"112 70 OFFCURVE",
"95 80 OFFCURVE",
"95 97 CURVE SMOOTH",
"95 120 OFFCURVE",
"122 149 OFFCURVE",
"173 165 CURVE",
"135 179 LINE",
"38 147 OFFCURVE",
"-2 98 OFFCURVE",
"-2 40 CURVE SMOOTH",
"-2 -14 OFFCURVE",
"34 -56 OFFCURVE",
"146 -71 CURVE SMOOTH",
"265 -87 LINE SMOOTH",
"316 -94 OFFCURVE",
"344 -117 OFFCURVE",
"344 -156 CURVE SMOOTH",
"344 -196 OFFCURVE",
"294 -252 OFFCURVE",
"180 -252 CURVE SMOOTH",
"98 -252 OFFCURVE",
"75 -218 OFFCURVE",
"75 -194 CURVE SMOOTH",
"75 -176 OFFCURVE",
"89 -153 OFFCURVE",
"89 -134 CURVE SMOOTH",
"89 -111 OFFCURVE",
"68 -81 OFFCURVE",
"17 -81 CURVE SMOOTH",
"-42 -81 OFFCURVE",
"-73 -121 OFFCURVE",
"-73 -157 CURVE SMOOTH",
"-73 -213 OFFCURVE",
"1 -290 OFFCURVE",
"166 -290 CURVE SMOOTH"
);
},
{
closed = 1;
nodes = (
"362 139 OFFCURVE",
"457 186 OFFCURVE",
"485 270 CURVE SMOOTH",
"514 357 OFFCURVE",
"463 461 OFFCURVE",
"305 461 CURVE SMOOTH",
"199 461 OFFCURVE",
"101 412 OFFCURVE",
"74 328 CURVE SMOOTH",
"48 247 OFFCURVE",
"91 139 OFFCURVE",
"252 139 CURVE SMOOTH"
);
},
{
closed = 1;
nodes = (
"209 175 OFFCURVE",
"191 250 OFFCURVE",
"214 324 CURVE SMOOTH",
"228 369 OFFCURVE",
"259 423 OFFCURVE",
"302 423 CURVE SMOOTH",
"350 423 OFFCURVE",
"369 351 OFFCURVE",
"346 276 CURVE SMOOTH",
"327 214 OFFCURVE",
"291 175 OFFCURVE",
"258 175 CURVE SMOOTH"
);
},
{
closed = 1;
nodes = (
"589 385 OFFCURVE",
"614 416 OFFCURVE",
"614 455 CURVE SMOOTH",
"614 495 OFFCURVE",
"586 530 OFFCURVE",
"529 530 CURVE SMOOTH",
"468 530 OFFCURVE",
"419 488 OFFCURVE",
"393 428 CURVE",
"424 415 LINE",
"438 442 OFFCURVE",
"461 461 OFFCURVE",
"477 461 CURVE SMOOTH",
"490 461 OFFCURVE",
"495 451 OFFCURVE",
"495 432 CURVE SMOOTH",
"495 402 OFFCURVE",
"516 385 OFFCURVE",
"549 385 CURVE SMOOTH"
);
}
);
width = 562;
}
);
leftKerningGroup = g;
rightKerningGroup = g;
unicode = 0067;
},
{
color = 6;
glyphname = h;
layers = (
{
anchors = (
{
name = bottom;
position = "{194, 0}";
},
{
name = center;
position = "{237, 521}";
},
{
name = top;
position = "{271, 710}";
}
);
background = {
anchors = (
{
name = bottom;
position = "{194, 0}";
},
{
name = center;
position = "{237, 521}";
},
{
name = top;
position = "{271, 710}";
}
);
paths = (
{
closed = 1;
nodes = (
"173 257 LINE",
"198 326 OFFCURVE",
"295 429 OFFCURVE",
"371 429 CURVE SMOOTH",
"392 429 OFFCURVE",
"409 417 OFFCURVE",
"409 391 CURVE SMOOTH",
"409 381 OFFCURVE",
"407 370 OFFCURVE",
"402 356 CURVE SMOOTH",
"315 110 LINE SMOOTH",
"306 84 OFFCURVE",
"300 60 OFFCURVE",
"300 40 CURVE SMOOTH",
"300 8 OFFCURVE",
"315 -14 OFFCURVE",
"356 -14 CURVE SMOOTH",
"413 -14 OFFCURVE",
"453 31 OFFCURVE",
"478 72 CURVE",
"460 84 LINE",
"443 55 OFFCURVE",
"412 19 OFFCURVE",
"383 19 CURVE SMOOTH",
"372 19 OFFCURVE",
"367 26 OFFCURVE",
"367 39 CURVE SMOOTH",
"367 49 OFFCURVE",
"370 63 OFFCURVE",
"376 80 CURVE SMOOTH",
"466 331 LINE SMOOTH",
"473 351 OFFCURVE",
"477 370 OFFCURVE",
"477 388 CURVE SMOOTH",
"477 426 OFFCURVE",
"456 454 OFFCURVE",
"390 454 CURVE SMOOTH",
"301 454 OFFCURVE",
"229 386 OFFCURVE",
"185 322 CURVE"
);
},
{
closed = 1;
nodes = (
"317 702 LINE",
"321 713 LINE",
"159 710 LINE",
"152 686 LINE",
"190 686 OFFCURVE",
"225 690 OFFCURVE",
"225 652 CURVE SMOOTH",
"225 643 OFFCURVE",
"223 631 OFFCURVE",
"218 616 CURVE SMOOTH",
"17 0 LINE",
"89 0 LINE"
);
}
);
};
guideLines = (
{
angle = 72;
position = "{14, -13}";
},
{
angle = 72;
position = "{85, -13}";
}
);
layerId = "9372F035-DA38-4B54-966C-CEBA9B53DD02";
paths = (
{
closed = 1;
nodes = (
"413 -14 OFFCURVE",
"453 31 OFFCURVE",
"478 72 CURVE",
"460 84 LINE",
"443 55 OFFCURVE",
"412 19 OFFCURVE",
"383 19 CURVE SMOOTH",
"358 19 OFFCURVE",
"367 56 OFFCURVE",
"376 80 CURVE SMOOTH",
"466 331 LINE SMOOTH",
"488 393 OFFCURVE",
"485 454 OFFCURVE",
"390 454 CURVE SMOOTH",
"304 454 OFFCURVE",
"233 390 OFFCURVE",
"189 327 CURVE",
"191 313 LINE",
"321 713 LINE",
"159 710 LINE",
"152 686 LINE",
"171 686 LINE SMOOTH",
"230 686 OFFCURVE",
"233 660 OFFCURVE",
"218 615 CURVE SMOOTH",
"17 -1 LINE",
"89 0 LINE",
"173 257 LINE SMOOTH",
"196 327 OFFCURVE",
"295 429 OFFCURVE",
"371 429 CURVE SMOOTH",
"411 429 OFFCURVE",
"415 393 OFFCURVE",
"402 356 CURVE SMOOTH",
"315 110 LINE SMOOTH",
"294 52 OFFCURVE",
"285 -14 OFFCURVE",
"356 -14 CURVE SMOOTH"
);
}
);
width = 526;
},
{
anchors = (
{
name = bottom;
position = "{228, 0}";
},
{
name = center;
position = "{245, 521}";
},
{
name = top;
position = "{304, 710}";
}
);
background = {
paths = (
{
closed = 1;
nodes = (
"75 0 LINE",
"307 713 LINE",
"145 710 LINE",
"138 686 LINE",
"157 686 LINE SMOOTH",
"196 686 OFFCURVE",
"211 677 OFFCURVE",
"211 652 CURVE SMOOTH",
"211 643 OFFCURVE",
"209 630 OFFCURVE",
"204 615 CURVE SMOOTH",
"3 -1 LINE"
);
},
{
closed = 1;
nodes = (
"399 -14 OFFCURVE",
"439 31 OFFCURVE",
"464 72 CURVE",
"446 84 LINE",
"429 55 OFFCURVE",
"398 19 OFFCURVE",
"369 19 CURVE SMOOTH",
"344 19 OFFCURVE",
"354 56 OFFCURVE",
"362 80 CURVE SMOOTH",
"452 331 LINE SMOOTH",
"474 393 OFFCURVE",
"471 454 OFFCURVE",
"376 454 CURVE SMOOTH",
"287 454 OFFCURVE",
"215 386 OFFCURVE",
"171 322 CURVE",
"159 257 LINE",
"184 326 OFFCURVE",
"281 429 OFFCURVE",
"357 429 CURVE SMOOTH",
"397 429 OFFCURVE",
"401 393 OFFCURVE",
"388 356 CURVE SMOOTH",
"301 110 LINE SMOOTH",
"280 52 OFFCURVE",
"271 -14 OFFCURVE",
"342 -14 CURVE SMOOTH"
);
}
);
};
guideLines = (
{
angle = 72;
position = "{0, -13}";
},
{
angle = 72;
position = "{71, -13}";
},
{
position = "{375, 368}";
}
);
layerId = m002;
paths = (
{
closed = 1;
nodes = (
"484 -14 OFFCURVE",
"540 22 OFFCURVE",
"572 93 CURVE",
"544 111 LINE",
"521 64 OFFCURVE",
"501 45 OFFCURVE",
"486 45 CURVE SMOOTH",
"469 45 OFFCURVE",
"467 65 OFFCURVE",
"480 104 CURVE SMOOTH",
"546 299 LINE SMOOTH",
"581 401 OFFCURVE",
"567 460 OFFCURVE",
"467 460 CURVE SMOOTH",
"353 460 OFFCURVE",
"235 382 OFFCURVE",
"185 221 CURVE",
"220 226 LINE",
"382 713 LINE",
"152 710 LINE",
"141 676 LINE",
"162 676 LINE SMOOTH",
"216 676 OFFCURVE",
"216 652 OFFCURVE",
"200 604 CURVE SMOOTH",
"4 0 LINE",
"149 0 LINE",
"224 226 LINE SMOOTH",
"257 326 OFFCURVE",
"323 394 OFFCURVE",
"377 394 CURVE SMOOTH",
"414 394 OFFCURVE",
"422 362 OFFCURVE",
"408 321 CURVE SMOOTH",
"343 131 LINE SMOOTH",
"318 57 OFFCURVE",
"312 -14 OFFCURVE",
"412 -14 CURVE SMOOTH"
);
}
);
width = 594;
}
);
leftKerningGroup = l;
rightKerningGroup = n;
rightMetricsKey = n;
unicode = 0068;
},
{
color = 6;
glyphname = idotless;
layers = (
{
anchors = (
{
name = bottom;
position = "{64, 0}";
},
{
name = ogonek;
position = "{166, 0}";
},
{
name = top;
position = "{202, 440}";
}
);
background = {
paths = (
{
closed = 1;
nodes = (
"156 -14 OFFCURVE",
"196 33 OFFCURVE",
"221 75 CURVE",
"203 87 LINE",
"186 57 OFFCURVE",
"155 19 OFFCURVE",
"126 19 CURVE SMOOTH",
"115 19 OFFCURVE",
"110 26 OFFCURVE",
"110 39 CURVE SMOOTH",
"110 50 OFFCURVE",
"114 65 OFFCURVE",
"120 85 CURVE SMOOTH",
"246 443 LINE",
"84 440 LINE",
"77 416 LINE",
"115 416 OFFCURVE",
"153 418 OFFCURVE",
"153 382 CURVE SMOOTH",
"153 373 OFFCURVE",
"150 361 OFFCURVE",
"145 347 CURVE SMOOTH",
"58 113 LINE SMOOTH",
"49 87 OFFCURVE",
"43 62 OFFCURVE",
"43 41 CURVE SMOOTH",
"43 8 OFFCURVE",
"58 -14 OFFCURVE",
"99 -14 CURVE SMOOTH"
);
}
);
};
layerId = "9372F035-DA38-4B54-966C-CEBA9B53DD02";
paths = (
{
closed = 1;
nodes = (
"156 -14 OFFCURVE",
"196 33 OFFCURVE",
"221 75 CURVE",
"203 87 LINE",
"186 57 OFFCURVE",
"155 19 OFFCURVE",
"126 19 CURVE SMOOTH",
"106 19 OFFCURVE",
"105 42 OFFCURVE",
"120 85 CURVE SMOOTH",
"246 443 LINE",
"84 440 LINE",
"77 416 LINE",
"106 416 LINE SMOOTH",
"160 416 OFFCURVE",
"162 392 OFFCURVE",
"144 344 CURVE SMOOTH",
"58 113 LINE SMOOTH",
"33 45 OFFCURVE",
"33 -14 OFFCURVE",
"99 -14 CURVE SMOOTH"
);
}
);
width = 278;
},
{
anchors = (
{
name = bottom;
position = "{57, 0}";
},
{
name = ogonek;
position = "{197, 0}";
},
{
name = top;
position = "{197, 446}";
}
);
background = {
anchors = (
{
name = bottom;
position = "{54, 0}";
},
{
name = ogonek;
position = "{165, 0}";
},
{
name = top;
position = "{192, 440}";
}
);
paths = (
{
closed = 1;
nodes = (
"146 -14 OFFCURVE",
"186 33 OFFCURVE",
"211 75 CURVE",
"193 87 LINE",
"176 57 OFFCURVE",
"145 19 OFFCURVE",
"116 19 CURVE SMOOTH",
"105 19 OFFCURVE",
"100 26 OFFCURVE",
"100 39 CURVE SMOOTH",
"100 50 OFFCURVE",
"104 65 OFFCURVE",
"110 85 CURVE SMOOTH",
"236 443 LINE",
"74 440 LINE",
"67 416 LINE",
"105 416 OFFCURVE",
"143 418 OFFCURVE",
"143 382 CURVE SMOOTH",
"143 373 OFFCURVE",
"140 361 OFFCURVE",
"135 347 CURVE SMOOTH",
"48 113 LINE SMOOTH",
"39 87 OFFCURVE",
"33 62 OFFCURVE",
"33 41 CURVE SMOOTH",
"33 8 OFFCURVE",
"48 -14 OFFCURVE",
"89 -14 CURVE SMOOTH"
);
}
);
};
layerId = m002;
paths = (
{
closed = 1;
nodes = (
"182 -14 OFFCURVE",
"238 22 OFFCURVE",
"270 93 CURVE",
"242 111 LINE",
"219 64 OFFCURVE",
"199 45 OFFCURVE",
"184 45 CURVE SMOOTH",
"167 45 OFFCURVE",
"165 65 OFFCURVE",
"178 104 CURVE SMOOTH",
"292 449 LINE",
"62 446 LINE",
"51 412 LINE",
"72 412 LINE SMOOTH",
"126 412 OFFCURVE",
"126 388 OFFCURVE",
"110 340 CURVE SMOOTH",
"41 131 LINE SMOOTH",
"17 58 OFFCURVE",
"10 -14 OFFCURVE",
"110 -14 CURVE SMOOTH"
);
}
);
width = 296;
}
);
leftKerningGroup = n;
rightKerningGroup = u;
unicode = 0131;
},
{
color = 6;
glyphname = jdotless;
layers = (
{
anchors = (
{
name = bottom;
position = "{-31, -290}";
},
{
name = top;
position = "{206, 440}";
}
);
background = {
anchors = (
{
name = bottom;
position = "{72, 0}";
},
{
name = top;
position = "{218, 440}";
}
);
paths = (
{
closed = 1;
nodes = (
"-24 -290 OFFCURVE",
"29 -249 OFFCURVE",
"67 -132 CURVE SMOOTH",
"254 443 LINE",
"92 440 LINE",
"85 416 LINE",
"122 416 OFFCURVE",
"161 417 OFFCURVE",
"161 384 CURVE SMOOTH",
"161 378 OFFCURVE",
"159 370 OFFCURVE",
"156 360 CURVE SMOOTH",
"-2 -127 LINE SMOOTH",
"-30 -214 OFFCURVE",
"-57 -268 OFFCURVE",
"-93 -268 CURVE SMOOTH",
"-137 -268 OFFCURVE",
"-114 -170 OFFCURVE",
"-173 -170 CURVE SMOOTH",
"-201 -170 OFFCURVE",
"-222 -190 OFFCURVE",
"-222 -217 CURVE SMOOTH",
"-222 -253 OFFCURVE",
"-193 -290 OFFCURVE",
"-111 -290 CURVE SMOOTH"
);
}
);
};
layerId = "9372F035-DA38-4B54-966C-CEBA9B53DD02";
paths = (
{
closed = 1;
nodes = (
"-24 -290 OFFCURVE",
"29 -249 OFFCURVE",
"67 -132 CURVE SMOOTH",
"254 443 LINE",
"92 440 LINE",
"84 416 LINE",
"114 416 LINE SMOOTH",
"168 416 OFFCURVE",
"167 392 OFFCURVE",
"151 344 CURVE SMOOTH",
"-2 -127 LINE SMOOTH",
"-30 -214 OFFCURVE",
"-57 -268 OFFCURVE",
"-93 -268 CURVE SMOOTH",
"-137 -268 OFFCURVE",
"-114 -170 OFFCURVE",
"-173 -170 CURVE SMOOTH",
"-201 -170 OFFCURVE",
"-222 -190 OFFCURVE",
"-222 -217 CURVE SMOOTH",
"-222 -253 OFFCURVE",
"-193 -290 OFFCURVE",
"-111 -290 CURVE SMOOTH"
);
}
);
width = 270;
},
{
anchors = (
{
name = bottom;
position = "{-20, -290}";
},
{
name = top;
position = "{215, 446}";
}
);
background = {
paths = (
{
closed = 1;
nodes = (
"-14 -304 OFFCURVE",
"69 -261 OFFCURVE",
"113 -127 CURVE SMOOTH",
"303 449 LINE",
"72 446 LINE",
"61 412 LINE",
"82 412 LINE SMOOTH",
"136 412 OFFCURVE",
"136 388 OFFCURVE",
"120 340 CURVE SMOOTH",
"-27 -113 LINE SMOOTH",
"-55 -200 OFFCURVE",
"-77 -268 OFFCURVE",
"-113 -268 CURVE SMOOTH",
"-169 -268 OFFCURVE",
"-90 -140 OFFCURVE",
"-198 -140 CURVE SMOOTH",
"-252 -140 OFFCURVE",
"-282 -172 OFFCURVE",
"-282 -211 CURVE SMOOTH",
"-282 -264 OFFCURVE",
"-233 -304 OFFCURVE",
"-138 -304 CURVE SMOOTH"
);
}
);
};
layerId = m002;
paths = (
{
closed = 1;
nodes = (
"-11 -294 OFFCURVE",
"72 -251 OFFCURVE",
"116 -117 CURVE SMOOTH",
"303 449 LINE",
"72 446 LINE",
"61 412 LINE",
"82 412 LINE SMOOTH",
"136 412 OFFCURVE",
"136 388 OFFCURVE",
"120 340 CURVE SMOOTH",
"-24 -103 LINE SMOOTH",
"-52 -190 OFFCURVE",
"-74 -258 OFFCURVE",
"-110 -258 CURVE SMOOTH",
"-166 -258 OFFCURVE",
"-87 -130 OFFCURVE",
"-195 -130 CURVE SMOOTH",
"-249 -130 OFFCURVE",
"-279 -162 OFFCURVE",
"-279 -201 CURVE SMOOTH",
"-279 -254 OFFCURVE",
"-230 -294 OFFCURVE",
"-135 -294 CURVE SMOOTH"
);
}
);
width = 294;
}
);
leftKerningGroup = j;
rightKerningGroup = j;
unicode = 0237;
},
{
color = 6;
glyphname = k;
layers = (
{
anchors = (
{
name = bottom;
position = "{177, 0}";
},
{
name = top;
position = "{407, 710}";
}
);
background = {
anchors = (
{
name = bottom;
position = "{179, 0}";
},
{
name = top;
position = "{339, 440}";
}
);
paths = (
{
closed = 1;
nodes = (
"375 -14 OFFCURVE",
"423 9 OFFCURVE",
"458 72 CURVE",
"441 84 LINE",
"414 39 OFFCURVE",
"384 19 OFFCURVE",
"367 19 CURVE SMOOTH",
"340 19 OFFCURVE",
"340 37 OFFCURVE",
"338 136 CURVE SMOOTH",
"336 249 OFFCURVE",
"303 284 OFFCURVE",
"168 284 CURVE",
"166 269 LINE",
"250 269 OFFCURVE",
"270 236 OFFCURVE",
"270 132 CURVE SMOOTH",
"270 22 OFFCURVE",
"280 -14 OFFCURVE",
"337 -14 CURVE SMOOTH"
);
},
{
closed = 1;
nodes = (
"238 270 OFFCURVE",
"260 295 OFFCURVE",
"303 340 CURVE SMOOTH",
"344 383 LINE SMOOTH",
"362 403 OFFCURVE",
"374 414 OFFCURVE",
"388 414 CURVE SMOOTH",
"392 414 OFFCURVE",
"396 412 OFFCURVE",
"398 409 CURVE SMOOTH",
"402 404 OFFCURVE",
"403 396 OFFCURVE",
"403 373 CURVE SMOOTH",
"403 348 OFFCURVE",
"422 337 OFFCURVE",
"440 337 CURVE SMOOTH",
"466 337 OFFCURVE",
"483 362 OFFCURVE",
"483 392 CURVE SMOOTH",
"483 411 OFFCURVE",
"476 454 OFFCURVE",
"423 454 CURVE SMOOTH",
"389 454 OFFCURVE",
"365 433 OFFCURVE",
"328 394 CURVE SMOOTH",
"291 355 LINE SMOOTH",
"248 310 OFFCURVE",
"219 284 OFFCURVE",
"148 284 CURVE",
"148 270 LINE"
);
},
{
closed = 1;
nodes = (
"313 713 LINE",
"152 710 LINE",
"145 686 LINE",
"183 686 OFFCURVE",
"218 690 OFFCURVE",
"218 652 CURVE SMOOTH",
"218 643 OFFCURVE",
"216 631 OFFCURVE",
"211 616 CURVE SMOOTH",
"10 0 LINE",
"82 0 LINE"
);
}
);
};
guideLines = (
{
angle = 72;
position = "{-1345, 212}";
}
);
layerId = "9372F035-DA38-4B54-966C-CEBA9B53DD02";
paths = (
{
closed = 1;
nodes = (
"89 0 LINE",
"320 713 LINE",
"159 710 LINE",
"152 686 LINE",
"171 686 LINE SMOOTH",
"234 686 OFFCURVE",
"231 655 OFFCURVE",
"218 615 CURVE SMOOTH",
"17 0 LINE"
);
},
{
closed = 1;
nodes = (
"382 -14 OFFCURVE",
"430 9 OFFCURVE",
"465 72 CURVE",
"448 84 LINE",
"421 39 OFFCURVE",
"391 19 OFFCURVE",
"374 19 CURVE SMOOTH",
"347 19 OFFCURVE",
"347 37 OFFCURVE",
"345 136 CURVE SMOOTH",
"343 249 OFFCURVE",
"310 284 OFFCURVE",
"175 284 CURVE",
"173 269 LINE",
"257 269 OFFCURVE",
"277 236 OFFCURVE",
"277 132 CURVE SMOOTH",
"277 22 OFFCURVE",
"287 -14 OFFCURVE",
"344 -14 CURVE SMOOTH"
);
},
{
closed = 1;
nodes = (
"245 270 OFFCURVE",
"267 295 OFFCURVE",
"310 340 CURVE SMOOTH",
"351 383 LINE SMOOTH",
"370 402 OFFCURVE",
"381 414 OFFCURVE",
"395 414 CURVE SMOOTH",
"407 414 OFFCURVE",
"410 406 OFFCURVE",
"410 375 CURVE SMOOTH",
"410 346 OFFCURVE",
"427 337 OFFCURVE",
"447 337 CURVE SMOOTH",
"473 337 OFFCURVE",
"490 362 OFFCURVE",
"490 392 CURVE SMOOTH",
"490 411 OFFCURVE",
"483 454 OFFCURVE",
"430 454 CURVE SMOOTH",
"396 454 OFFCURVE",
"372 433 OFFCURVE",
"335 394 CURVE SMOOTH",
"298 355 LINE SMOOTH",
"255 310 OFFCURVE",
"226 284 OFFCURVE",
"155 284 CURVE",
"155 270 LINE"
);
}
);
visible = 1;
width = 491;
},
{
anchors = (
{
name = bottom;
position = "{255, 0}";
},
{
name = top;
position = "{485, 710}";
}
);
background = {
anchors = (
{
name = bottom;
position = "{168, 0}";
},
{
name = top;
position = "{328, 440}";
}
);
paths = (
{
closed = 0;
nodes = (
"408 -14 LINE SMOOTH",
"480 -14 OFFCURVE",
"536 22 OFFCURVE",
"568 93 CURVE",
"540 111 LINE",
"517 64 OFFCURVE",
"497 45 OFFCURVE",
"482 45 CURVE SMOOTH"
);
}
);
};
guideLines = (
{
angle = 72;
position = "{-1356, 212}";
}
);
layerId = m002;
paths = (
{
closed = 1;
nodes = (
"149 0 LINE",
"382 713 LINE",
"152 710 LINE",
"141 676 LINE",
"162 676 LINE SMOOTH",
"215 676 OFFCURVE",
"216 653 OFFCURVE",
"200 604 CURVE SMOOTH",
"3 0 LINE"
);
},
{
closed = 1;
nodes = (
"459 -14 OFFCURVE",
"516 22 OFFCURVE",
"548 93 CURVE",
"520 111 LINE",
"499 64 OFFCURVE",
"480 45 OFFCURVE",
"464 45 CURVE SMOOTH",
"449 45 OFFCURVE",
"441 59 OFFCURVE",
"439 143 CURVE SMOOTH",
"436 252 OFFCURVE",
"399 288 OFFCURVE",
"223 288 CURVE",
"221 254 LINE",
"290 254 OFFCURVE",
"302 224 OFFCURVE",
"302 132 CURVE SMOOTH",
"302 16 OFFCURVE",
"326 -14 OFFCURVE",
"389 -14 CURVE SMOOTH"
);
},
{
closed = 1;
nodes = (
"296 264 OFFCURVE",
"334 288 OFFCURVE",
"369 330 CURVE SMOOTH",
"400 367 LINE SMOOTH",
"420 391 OFFCURVE",
"430 397 OFFCURVE",
"439 397 CURVE SMOOTH",
"451 397 OFFCURVE",
"456 386 OFFCURVE",
"456 361 CURVE SMOOTH",
"456 322 OFFCURVE",
"479 307 OFFCURVE",
"514 307 CURVE SMOOTH",
"559 307 OFFCURVE",
"586 349 OFFCURVE",
"586 389 CURVE SMOOTH",
"586 434 OFFCURVE",
"556 460 OFFCURVE",
"503 460 CURVE SMOOTH",
"453 460 OFFCURVE",
"415 440 OFFCURVE",
"377 394 CURVE SMOOTH",
"344 355 LINE SMOOTH",
"305 309 OFFCURVE",
"270 288 OFFCURVE",
"203 288 CURVE",
"203 264 LINE"
);
}
);
width = 574;
}
);
leftKerningGroup = l;
rightKerningGroup = k;
unicode = 006B;
},
{
color = 6;
glyphname = l;
layers = (
{
anchors = (
{
name = bottom;
position = "{90, 0}";
},
{
name = center;
position = "{191, 398}";
},
{
name = top;
position = "{274, 710}";
},
{
name = topright;
position = "{332, 710}";
}
);
background = {
anchors = (
{
name = bottom;
position = "{90, 0}";
},
{
name = center;
position = "{191, 398}";
},
{
name = top;
position = "{274, 710}";
},
{
name = topright;
position = "{332, 710}";
}
);
paths = (
{
closed = 1;
nodes = (
"147 -14 OFFCURVE",
"187 33 OFFCURVE",
"212 75 CURVE",
"194 87 LINE",
"177 57 OFFCURVE",
"146 19 OFFCURVE",
"117 19 CURVE SMOOTH",
"106 19 OFFCURVE",
"101 26 OFFCURVE",
"101 39 CURVE SMOOTH",
"101 50 OFFCURVE",
"105 65 OFFCURVE",
"111 85 CURVE SMOOTH",
"316 713 LINE",
"154 710 LINE",
"147 686 LINE",
"184 686 OFFCURVE",
"220 689 OFFCURVE",
"220 652 CURVE SMOOTH",
"220 643 OFFCURVE",
"218 630 OFFCURVE",
"213 615 CURVE SMOOTH",
"49 113 LINE SMOOTH",
"40 87 OFFCURVE",
"34 62 OFFCURVE",
"34 41 CURVE SMOOTH",
"34 8 OFFCURVE",
"49 -14 OFFCURVE",
"90 -14 CURVE SMOOTH"
);
}
);
};
layerId = "9372F035-DA38-4B54-966C-CEBA9B53DD02";
paths = (
{
closed = 1;
nodes = (
"147 -14 OFFCURVE",
"187 33 OFFCURVE",
"212 75 CURVE",
"194 87 LINE",
"177 57 OFFCURVE",
"146 19 OFFCURVE",
"117 19 CURVE SMOOTH",
"90 19 OFFCURVE",
"103 61 OFFCURVE",
"111 85 CURVE SMOOTH",
"316 713 LINE",
"154 710 LINE",
"147 686 LINE",
"166 686 LINE SMOOTH",
"229 686 OFFCURVE",
"226 655 OFFCURVE",
"213 615 CURVE SMOOTH",
"49 113 LINE SMOOTH",
"27 47 OFFCURVE",
"21 -14 OFFCURVE",
"90 -14 CURVE SMOOTH"
);
}
);
width = 265;
},
{
anchors = (
{
name = bottom;
position = "{51, 0}";
},
{
name = center;
position = "{166, 355}";
},
{
name = top;
position = "{281, 710}";
},
{
name = topright;
position = "{393, 710}";
}
);
background = {
anchors = (
{
name = bottom;
position = "{80, 0}";
},
{
name = center;
position = "{181, 398}";
},
{
name = top;
position = "{264, 710}";
},
{
name = topright;
position = "{322, 710}";
}
);
paths = (
{
closed = 1;
nodes = (
"137 -14 OFFCURVE",
"177 33 OFFCURVE",
"202 75 CURVE",
"184 87 LINE",
"167 57 OFFCURVE",
"136 19 OFFCURVE",
"107 19 CURVE SMOOTH",
"96 19 OFFCURVE",
"91 26 OFFCURVE",
"91 39 CURVE SMOOTH",
"91 50 OFFCURVE",
"95 65 OFFCURVE",
"101 85 CURVE SMOOTH",
"306 713 LINE",
"144 710 LINE",
"137 686 LINE",
"174 686 OFFCURVE",
"210 689 OFFCURVE",
"210 652 CURVE SMOOTH",
"210 643 OFFCURVE",
"208 630 OFFCURVE",
"203 615 CURVE SMOOTH",
"39 113 LINE SMOOTH",
"30 87 OFFCURVE",
"24 62 OFFCURVE",
"24 41 CURVE SMOOTH",
"24 8 OFFCURVE",
"39 -14 OFFCURVE",
"80 -14 CURVE SMOOTH"
);
}
);
};
layerId = m002;
paths = (
{
closed = 1;
nodes = (
"183 -14 OFFCURVE",
"239 22 OFFCURVE",
"271 93 CURVE",
"243 111 LINE",
"220 64 OFFCURVE",
"200 45 OFFCURVE",
"185 45 CURVE SMOOTH",
"168 45 OFFCURVE",
"166 65 OFFCURVE",
"179 104 CURVE SMOOTH",
"378 713 LINE",
"148 710 LINE",
"137 676 LINE",
"158 676 LINE SMOOTH",
"212 676 OFFCURVE",
"212 652 OFFCURVE",
"196 604 CURVE SMOOTH",
"42 131 LINE SMOOTH",
"18 57 OFFCURVE",
"11 -14 OFFCURVE",
"111 -14 CURVE SMOOTH"
);
}
);
width = 297;
}
);
leftKerningGroup = l;
rightKerningGroup = l;
unicode = 006C;
},
